RecursiveSans-CasualBoldItalic.ufo
<glyph name="exclam" format="1">
  <advance width="350"/>
  <unicode hex="0021"/>
  <outline>
    <contour>
      <point x="232" y="281" type="line"/>
      <point x="263" y="349"/>
      <point x="301" y="451"/>
      <point x="318" y="519" type="curve"/>
      <point x="350" y="646" type="line" smooth="yes"/>
      <point x="361" y="691"/>
      <point x="317" y="710"/>
      <point x="252" y="710" type="curve" smooth="yes"/>
      <point x="230" y="710"/>
      <point x="213" y="709"/>
      <point x="191" y="704" type="curve"/>
      <point x="191" y="668"/>
      <point x="185" y="631"/>
      <point x="175" y="592" type="curve" smooth="yes"/>
      <point x="158" y="524" type="line"/>
      <point x="137" y="437"/>
      <point x="121" y="330"/>
      <point x="137" y="309" type="curve" smooth="yes"/>
      <point x="150" y="292"/>
      <point x="177" y="281"/>
      <point x="219" y="281" type="curve"/>
    </contour>
    <contour>
      <point x="204" y="-3" type="curve"/>
      <point x="235" y="123" type="line" smooth="yes"/>
      <point x="250" y="181"/>
      <point x="192" y="192"/>
      <point x="132" y="192" type="curve" smooth="yes"/>
      <point x="110" y="192"/>
      <point x="81" y="190"/>
      <point x="57" y="185" type="curve"/>
      <point x="26" y="59" type="line" smooth="yes"/>
      <point x="11" y="1"/>
      <point x="70" y="-10"/>
      <point x="129" y="-10" type="curve" smooth="yes"/>
      <point x="152" y="-10"/>
      <point x="180" y="-7"/>
    </contour>
  </outline>
</glyph>
<glyph name="quotedbl" format="1">
  <advance width="600"/>
  <unicode hex="0022"/>
  <outline>
    <contour>
      <point x="284" y="445" type="curve"/>
      <point x="348" y="646" type="line" smooth="yes"/>
      <point x="371" y="720"/>
      <point x="343" y="754"/>
      <point x="256" y="754" type="curve" smooth="yes"/>
      <point x="240" y="754"/>
      <point x="225" y="753"/>
      <point x="210" y="750" type="curve"/>
      <point x="213" y="725"/>
      <point x="211" y="700"/>
      <point x="202" y="647" type="curve" smooth="yes"/>
      <point x="174" y="497" type="line" smooth="yes"/>
      <point x="166" y="455"/>
      <point x="183" y="440"/>
      <point x="233" y="440" type="curve" smooth="yes"/>
      <point x="253" y="440"/>
      <point x="270" y="441"/>
    </contour>
    <contour>
      <point x="520" y="445" type="curve"/>
      <point x="586" y="644" type="line" smooth="yes"/>
      <point x="611" y="720"/>
      <point x="582" y="754"/>
      <point x="504" y="754" type="curve" smooth="yes"/>
      <point x="487" y="754"/>
      <point x="475" y="753"/>
      <point x="460" y="751" type="curve"/>
      <point x="413" y="497" type="line"/>
      <point x="405" y="455"/>
      <point x="422" y="440"/>
      <point x="472" y="440" type="curve" smooth="yes"/>
      <point x="492" y="440"/>
      <point x="507" y="441"/>
    </contour>
  </outline>
</glyph>
<glyph name="dollar" format="1">
  <advance width="600"/>
  <unicode hex="0024"/>
  <outline>
    <contour>
      <point x="482" y="720" type="curve" smooth="yes"/>
      <point x="316" y="720"/>
      <point x="162" y="622"/>
      <point x="131" y="498" type="curve" smooth="yes"/>
      <point x="128" y="486" type="line" smooth="yes"/>
      <point x="121" y="459"/>
      <point x="176" y="428"/>
      <point x="245" y="427" type="curve"/>
      <point x="244" y="449"/>
      <point x="249" y="475"/>
      <point x="255" y="496" type="curve" smooth="yes"/>
      <point x="270" y="556"/>
      <point x="374" y="587"/>
      <point x="457" y="587" type="curve" smooth="yes"/>
      <point x="519" y="587"/>
      <point x="554" y="575"/>
      <point x="582" y="549" type="curve"/>
      <point x="586" y="549" type="line"/>
      <point x="604" y="574"/>
      <point x="616" y="599"/>
      <point x="621" y="619" type="curve" smooth="yes"/>
      <point x="627" y="644"/>
      <point x="631" y="665"/>
      <point x="616" y="685" type="curve" smooth="yes"/>
      <point x="600" y="706"/>
      <point x="552" y="720"/>
    </contour>
    <contour>
      <point x="415" y="373" type="curve" smooth="yes"/>
      <point x="331" y="406" type="line" smooth="yes"/>
      <point x="258" y="435"/>
      <point x="246" y="461"/>
      <point x="255" y="496" type="curve" smooth="yes"/>
      <point x="262" y="525"/>
      <point x="269" y="545"/>
      <point x="282" y="567" type="curve"/>
      <point x="210" y="564"/>
      <point x="142" y="544"/>
      <point x="128" y="486" type="curve" smooth="yes"/>
      <point x="111" y="421"/>
      <point x="124" y="353"/>
      <point x="262" y="297" type="curve" smooth="yes"/>
      <point x="345" y="263" type="line" smooth="yes"/>
      <point x="407" y="238"/>
      <point x="424" y="209"/>
      <point x="408" y="147" type="curve" smooth="yes"/>
      <point x="404" y="130"/>
      <point x="403" y="126"/>
      <point x="402" y="122" type="curve"/>
      <point x="453" y="123"/>
      <point x="527" y="161"/>
      <point x="535" y="193" type="curve"/>
      <point x="549" y="248"/>
      <point x="531" y="326"/>
    </contour>
    <contour>
      <point x="228" y="-19" type="curve" smooth="yes"/>
      <point x="394" y="-19"/>
      <point x="504" y="68"/>
      <point x="531" y="179" type="curve" smooth="yes"/>
      <point x="535" y="193" type="line" smooth="yes"/>
      <point x="539" y="210"/>
      <point x="499" y="238"/>
      <point x="466" y="240" type="curve"/>
      <point x="465" y="236"/>
      <point x="464" y="233"/>
      <point x="463" y="228" type="curve" smooth="yes"/>
      <point x="448" y="169"/>
      <point x="357" y="114"/>
      <point x="261" y="114" type="curve" smooth="yes"/>
      <point x="157" y="114"/>
      <point x="91" y="145"/>
      <point x="49" y="203" type="curve"/>
      <point x="45" y="203" type="line"/>
      <point x="37" y="188"/>
      <point x="30" y="169"/>
      <point x="24" y="145" type="curve" smooth="yes"/>
      <point x="11" y="95"/>
      <point x="16" y="59"/>
      <point x="30" y="39" type="curve" smooth="yes"/>
      <point x="56" y="5"/>
      <point x="134" y="-19"/>
    </contour>
    <contour>
      <point x="402" y="432" type="line"/>
      <point x="563" y="779" type="line" smooth="yes"/>
      <point x="596" y="846"/>
      <point x="578" y="885"/>
      <point x="511" y="885" type="curve" smooth="yes"/>
      <point x="497" y="885"/>
      <point x="472" y="881"/>
      <point x="456" y="876" type="curve"/>
      <point x="459" y="848"/>
      <point x="460" y="821"/>
      <point x="447" y="778" type="curve"/>
      <point x="360" y="477" type="line" smooth="yes"/>
      <point x="351" y="448"/>
      <point x="374" y="432"/>
      <point x="398" y="432" type="curve" smooth="yes"/>
    </contour>
    <contour>
      <point x="263" y="237" type="line"/>
      <point x="108" y="-89" type="line" smooth="yes"/>
      <point x="75" y="-156"/>
      <point x="94" y="-195"/>
      <point x="161" y="-195" type="curve" smooth="yes"/>
      <point x="175" y="-195"/>
      <point x="199" y="-191"/>
      <point x="216" y="-186" type="curve"/>
      <point x="213" y="-158"/>
      <point x="213" y="-131"/>
      <point x="225" y="-88" type="curve"/>
      <point x="305" y="192" type="line" smooth="yes"/>
      <point x="313" y="221"/>
      <point x="291" y="237"/>
      <point x="267" y="237" type="curve" smooth="yes"/>
    </contour>
  </outline>
</glyph>
<glyph name="ampersand" format="1">
  <advance width="600"/>
  <unicode hex="0026"/>
  <outline>
    <contour>
      <point x="438" y="710" type="curve" smooth="yes"/>
      <point x="305" y="710"/>
      <point x="190" y="610"/>
      <point x="169" y="527" type="curve" smooth="yes"/>
      <point x="160" y="491"/>
      <point x="181" y="463"/>
      <point x="256" y="463" type="curve"/>
      <point x="256" y="474"/>
      <point x="257" y="480"/>
      <point x="260" y="495" type="curve" smooth="yes"/>
      <point x="273" y="547"/>
      <point x="334" y="577"/>
      <point x="407" y="577" type="curve" smooth="yes"/>
      <point x="470" y="577"/>
      <point x="515" y="566"/>
      <point x="549" y="540" type="curve"/>
      <point x="553" y="540" type="line"/>
      <point x="564" y="556"/>
      <point x="573" y="576"/>
      <point x="578" y="598" type="curve"/>
      <point x="587" y="631"/>
      <point x="582" y="658"/>
      <point x="568" y="677" type="curve" smooth="yes"/>
      <point x="552" y="698"/>
      <point x="510" y="710"/>
    </contour>
    <contour>
      <point x="291" y="383" type="curve" smooth="yes"/>
      <point x="280" y="434"/>
      <point x="281" y="484"/>
      <point x="291" y="521" type="curve" smooth="yes"/>
      <point x="301" y="562"/>
      <point x="313" y="588"/>
      <point x="336" y="617" type="curve"/>
      <point x="272" y="633"/>
      <point x="186" y="595"/>
      <point x="169" y="527" type="curve" smooth="yes"/>
      <point x="168" y="524" type="line" smooth="yes"/>
      <point x="155" y="470"/>
      <point x="159" y="406"/>
      <point x="180" y="335" type="curve" smooth="yes"/>
      <point x="205" y="251"/>
      <point x="248" y="163"/>
      <point x="297" y="97" type="curve" smooth="yes"/>
      <point x="363" y="9"/>
      <point x="411" y="-10"/>
      <point x="447" y="-10" type="curve" smooth="yes"/>
      <point x="452" y="-10" type="line" smooth="yes"/>
      <point x="492" y="-10"/>
      <point x="517" y="14"/>
      <point x="534" y="81" type="curve" smooth="yes"/>
      <point x="540" y="105"/>
      <point x="543" y="125"/>
      <point x="543" y="142" type="curve"/>
      <point x="539" y="142" type="line"/>
      <point x="524" y="134"/>
      <point x="511" y="131"/>
      <point x="490" y="131" type="curve" smooth="yes"/>
      <point x="452" y="131"/>
      <point x="408" y="155"/>
      <point x="378" y="195" type="curve" smooth="yes"/>
      <point x="339" y="246"/>
      <point x="305" y="319"/>
    </contour>
    <contour>
      <point x="136" y="-9" type="curve" smooth="yes"/>
      <point x="223" y="-9"/>
      <point x="282" y="28"/>
      <point x="327" y="84" type="curve" smooth="yes"/>
      <point x="342" y="107"/>
      <point x="334" y="144"/>
      <point x="305" y="159" type="curve"/>
      <point x="266" y="122"/>
      <point x="236" y="108"/>
      <point x="187" y="108" type="curve" smooth="yes"/>
      <point x="137" y="108"/>
      <point x="121" y="148"/>
      <point x="133" y="197" type="curve" smooth="yes"/>
      <point x="134" y="200" type="line" smooth="yes"/>
      <point x="147" y="255"/>
      <point x="187" y="280"/>
      <point x="246" y="287" type="curve"/>
      <point x="242" y="321"/>
      <point x="233" y="366"/>
      <point x="205" y="362" type="curve" smooth="yes"/>
      <point x="126" y="348"/>
      <point x="32" y="287"/>
      <point x="3" y="172" type="curve" smooth="yes"/>
      <point x="2" y="167" type="line" smooth="yes"/>
      <point x="-24" y="63"/>
      <point x="28" y="-9"/>
    </contour>
    <contour>
      <point x="492" y="418" type="curve" smooth="yes"/>
      <point x="476" y="418"/>
      <point x="464" y="416"/>
      <point x="455" y="414" type="curve"/>
      <point x="452" y="404"/>
      <point x="450" y="393"/>
      <point x="447" y="382" type="curve" smooth="yes"/>
      <point x="430" y="314"/>
      <point x="401" y="258"/>
      <point x="351" y="205" type="curve" smooth="yes"/>
      <point x="331" y="180"/>
      <point x="351" y="150"/>
      <point x="398" y="148" type="curve"/>
      <point x="495" y="211"/>
      <point x="558" y="286"/>
      <point x="574" y="348" type="curve" smooth="yes"/>
      <point x="576" y="359" type="line" smooth="yes"/>
      <point x="585" y="394"/>
      <point x="550" y="418"/>
    </contour>
  </outline>
</glyph>
<glyph name="quotesingle" format="1">
  <advance width="250"/>
  <unicode hex="0027"/>
  <outline>
    <contour>
      <point x="237" y="445" type="curve"/>
      <point x="300" y="644" type="line" smooth="yes"/>
      <point x="324" y="720"/>
      <point x="296" y="754"/>
      <point x="208" y="754" type="curve" smooth="yes"/>
      <point x="193" y="754"/>
      <point x="179" y="753"/>
      <point x="164" y="750" type="curve"/>
      <point x="166" y="725"/>
      <point x="164" y="700"/>
      <point x="155" y="647" type="curve" smooth="yes"/>
      <point x="127" y="497" type="line" smooth="yes"/>
      <point x="119" y="455"/>
      <point x="136" y="440"/>
      <point x="186" y="440" type="curve" smooth="yes"/>
      <point x="206" y="440"/>
      <point x="223" y="441"/>
    </contour>
  </outline>
</glyph>
<glyph name="parenleft" format="1">
  <advance width="400"/>
  <unicode hex="0028"/>
  <outline>
    <contour>
      <point x="333" y="728" type="curve" smooth="yes"/>
      <point x="210" y="630"/>
      <point x="117" y="474"/>
      <point x="74" y="303" type="curve" smooth="yes"/>
      <point x="72" y="295" type="line" smooth="yes"/>
      <point x="29" y="123"/>
      <point x="45" y="-33"/>
      <point x="118" y="-131" type="curve" smooth="yes"/>
      <point x="140" y="-160"/>
      <point x="163" y="-173"/>
      <point x="195" y="-173" type="curve" smooth="yes"/>
      <point x="243" y="-173"/>
      <point x="283" y="-159"/>
      <point x="313" y="-140" type="curve"/>
      <point x="314" y="-136" type="line"/>
      <point x="206" y="-30"/>
      <point x="180" y="128"/>
      <point x="222" y="295" type="curve" smooth="yes"/>
      <point x="224" y="303" type="line" smooth="yes"/>
      <point x="265" y="468"/>
      <point x="370" y="628"/>
      <point x="531" y="733" type="curve"/>
      <point x="532" y="737" type="line"/>
      <point x="511" y="756"/>
      <point x="479" y="770"/>
      <point x="431" y="770" type="curve" smooth="yes"/>
      <point x="399" y="770"/>
      <point x="369" y="757"/>
    </contour>
  </outline>
</glyph>
<glyph name="parenright" format="1">
  <advance width="400"/>
  <unicode hex="0029"/>
  <outline>
    <contour>
      <point x="83" y="-127" type="curve" smooth="yes"/>
      <point x="205" y="-29"/>
      <point x="299" y="127"/>
      <point x="341" y="298" type="curve" smooth="yes"/>
      <point x="343" y="306" type="line" smooth="yes"/>
      <point x="386" y="477"/>
      <point x="370" y="634"/>
      <point x="297" y="731" type="curve" smooth="yes"/>
      <point x="276" y="760"/>
      <point x="253" y="773"/>
      <point x="221" y="773" type="curve" smooth="yes"/>
      <point x="172" y="773"/>
      <point x="133" y="759"/>
      <point x="103" y="741" type="curve"/>
      <point x="102" y="737" type="line"/>
      <point x="210" y="631"/>
      <point x="236" y="473"/>
      <point x="194" y="306" type="curve" smooth="yes"/>
      <point x="192" y="298" type="line" smooth="yes"/>
      <point x="150" y="132"/>
      <point x="46" y="-27"/>
      <point x="-116" y="-133" type="curve"/>
      <point x="-117" y="-137" type="line"/>
      <point x="-96" y="-155"/>
      <point x="-63" y="-170"/>
      <point x="-15" y="-170" type="curve" smooth="yes"/>
      <point x="17" y="-170"/>
      <point x="46" y="-156"/>
    </contour>
  </outline>
</glyph>
<glyph name="asterisk" format="1">
  <advance width="500"/>
  <unicode hex="002A"/>
  <outline>
    <contour>
      <point x="315" y="763" type="curve"/>
      <point x="317" y="741"/>
      <point x="319" y="720"/>
      <point x="315" y="689" type="curve" smooth="yes"/>
      <point x="301" y="555" type="line"/>
      <point x="242" y="427" type="line" smooth="yes"/>
      <point x="216" y="373"/>
      <point x="229" y="341"/>
      <point x="284" y="341" type="curve"/>
      <point x="298" y="341"/>
      <point x="314" y="343"/>
      <point x="328" y="348" type="curve"/>
      <point x="326" y="370"/>
      <point x="324" y="390"/>
      <point x="327" y="421" type="curve" smooth="yes"/>
      <point x="342" y="555" type="line"/>
      <point x="401" y="684" type="line" smooth="yes"/>
      <point x="427" y="739"/>
      <point x="413" y="770"/>
      <point x="358" y="770" type="curve" smooth="yes"/>
      <point x="345" y="770"/>
      <point x="330" y="768"/>
    </contour>
    <contour>
      <point x="517" y="701" type="curve"/>
      <point x="312" y="575" type="line"/>
      <point x="142" y="514" type="line" smooth="yes"/>
      <point x="114" y="503"/>
      <point x="103" y="474"/>
      <point x="113" y="442" type="curve"/>
      <point x="117" y="430"/>
      <point x="122" y="421"/>
      <point x="129" y="413" type="curve"/>
      <point x="332" y="540" type="line"/>
      <point x="503" y="602" type="line" smooth="yes"/>
      <point x="532" y="612"/>
      <point x="542" y="639"/>
      <point x="531" y="673" type="curve" smooth="yes"/>
      <point x="528" y="682"/>
      <point x="525" y="690"/>
    </contour>
    <contour>
      <point x="510" y="493" type="curve"/>
      <point x="341" y="575" type="line"/>
      <point x="231" y="681" type="line" smooth="yes"/>
      <point x="212" y="699"/>
      <point x="184" y="688"/>
      <point x="156" y="656" type="curve"/>
      <point x="147" y="645"/>
      <point x="140" y="632"/>
      <point x="134" y="621" type="curve"/>
      <point x="303" y="540" type="line"/>
      <point x="414" y="433" type="line" smooth="yes"/>
      <point x="432" y="415"/>
      <point x="460" y="426"/>
      <point x="488" y="459" type="curve"/>
      <point x="495" y="468"/>
      <point x="502" y="478"/>
    </contour>
  </outline>
</glyph>
<glyph name="plus" format="1">
  <advance width="600"/>
  <unicode hex="002B"/>
  <outline>
    <contour>
      <point x="75" y="366" type="line"/>
      <point x="74" y="361"/>
      <point x="73" y="355"/>
      <point x="71" y="349" type="curve" smooth="yes"/>
      <point x="58" y="297"/>
      <point x="58" y="267"/>
      <point x="70" y="251" type="curve" smooth="yes"/>
      <point x="80" y="238"/>
      <point x="96" y="234"/>
      <point x="135" y="234" type="curve"/>
      <point x="543" y="234" type="line"/>
      <point x="551" y="251"/>
      <point x="558" y="271"/>
      <point x="562" y="287" type="curve" smooth="yes"/>
      <point x="577" y="346"/>
      <point x="567" y="366"/>
      <point x="517" y="366" type="curve"/>
    </contour>
    <contour>
      <point x="314" y="57" type="curve"/>
      <point x="410" y="439" type="line" smooth="yes"/>
      <point x="422" y="487"/>
      <point x="420" y="504"/>
      <point x="406" y="522" type="curve" smooth="yes"/>
      <point x="391" y="542"/>
      <point x="357" y="548"/>
      <point x="329" y="548" type="curve" smooth="yes"/>
      <point x="317" y="548"/>
      <point x="304" y="547"/>
      <point x="291" y="544" type="curve"/>
      <point x="291" y="510"/>
      <point x="288" y="482"/>
      <point x="278" y="442" type="curve" smooth="yes"/>
      <point x="194" y="107" type="line" smooth="yes"/>
      <point x="182" y="59"/>
      <point x="212" y="52"/>
      <point x="263" y="52" type="curve" smooth="yes"/>
      <point x="283" y="52"/>
      <point x="300" y="53"/>
    </contour>
  </outline>
</glyph>
<glyph name="comma" format="1">
  <advance width="350"/>
  <unicode hex="002C"/>
  <outline>
    <contour>
      <point x="33" y="-198" type="curve" smooth="yes"/>
      <point x="53" y="-198"/>
      <point x="65" y="-195"/>
      <point x="78" y="-184" type="curve"/>
      <point x="148" y="-128"/>
      <point x="230" y="-7"/>
      <point x="253" y="85" type="curve"/>
      <point x="265" y="136"/>
      <point x="237" y="155"/>
      <point x="160" y="155" type="curve" smooth="yes"/>
      <point x="137" y="155"/>
      <point x="120" y="153"/>
      <point x="93" y="148" type="curve"/>
      <point x="60" y="14"/>
      <point x="12" y="-85"/>
      <point x="-58" y="-167" type="curve"/>
      <point x="-35" y="-189"/>
      <point x="-10" y="-198"/>
    </contour>
  </outline>
</glyph>
<glyph name="period" format="1">
  <advance width="300"/>
  <unicode hex="002E"/>
  <outline>
    <contour>
      <point x="179" y="-3" type="curve"/>
      <point x="210" y="123" type="line" smooth="yes"/>
      <point x="225" y="181"/>
      <point x="167" y="192"/>
      <point x="107" y="192" type="curve" smooth="yes"/>
      <point x="85" y="192"/>
      <point x="56" y="190"/>
      <point x="32" y="185" type="curve"/>
      <point x="1" y="59" type="line" smooth="yes"/>
      <point x="-14" y="1"/>
      <point x="45" y="-10"/>
      <point x="104" y="-10" type="curve" smooth="yes"/>
      <point x="127" y="-10"/>
      <point x="155" y="-7"/>
    </contour>
  </outline>
</glyph>
<glyph name="zero" format="1">
  <advance width="600"/>
  <unicode hex="0030"/>
  <outline>
    <contour>
      <point x="409" y="720" type="curve" smooth="yes"/>
      <point x="264" y="720"/>
      <point x="138" y="607"/>
      <point x="81" y="376" type="curve" smooth="yes"/>
      <point x="71" y="334" type="line" smooth="yes"/>
      <point x="18" y="122"/>
      <point x="90" y="-20"/>
      <point x="235" y="-20" type="curve"/>
      <point x="275" y="-20"/>
      <point x="307" y="15"/>
      <point x="319" y="63" type="curve"/>
      <point x="191" y="66"/>
      <point x="162" y="160"/>
      <point x="196" y="300" type="curve" smooth="yes"/>
      <point x="206" y="345" type="line" smooth="yes"/>
      <point x="242" y="493"/>
      <point x="307" y="592"/>
      <point x="395" y="592" type="curve" smooth="yes"/>
      <point x="437" y="592"/>
      <point x="461" y="584"/>
      <point x="484" y="565" type="curve"/>
      <point x="535" y="609"/>
      <point x="489" y="720"/>
    </contour>
    <contour>
      <point x="235" y="-20" type="curve" smooth="yes"/>
      <point x="379" y="-20"/>
      <point x="495" y="78"/>
      <point x="547" y="286" type="curve" smooth="yes"/>
      <point x="558" y="330" type="line" smooth="yes"/>
      <point x="618" y="571"/>
      <point x="554" y="720"/>
      <point x="409" y="720" type="curve"/>
      <point x="368" y="720"/>
      <point x="336" y="685"/>
      <point x="324" y="637" type="curve"/>
      <point x="451" y="634"/>
      <point x="475" y="530"/>
      <point x="433" y="360" type="curve" smooth="yes"/>
      <point x="422" y="315" type="line" smooth="yes"/>
      <point x="391" y="191"/>
      <point x="336" y="108"/>
      <point x="247" y="108" type="curve" smooth="yes"/>
      <point x="205" y="108"/>
      <point x="174" y="117"/>
      <point x="150" y="140" type="curve"/>
      <point x="99" y="95"/>
      <point x="152" y="-20"/>
    </contour>
  </outline>
</glyph>
<glyph name="two" format="1">
  <advance width="600"/>
  <unicode hex="0032"/>
  <outline>
    <contour>
      <point x="426" y="621" type="curve"/>
      <point x="455" y="587"/>
      <point x="464" y="565"/>
      <point x="452" y="518" type="curve" smooth="yes"/>
      <point x="436" y="454"/>
      <point x="392" y="416"/>
      <point x="272" y="349" type="curve" smooth="yes"/>
      <point x="87" y="245"/>
      <point x="33" y="184"/>
      <point x="13" y="107" type="curve" smooth="yes"/>
      <point x="5" y="71"/>
      <point x="47" y="58"/>
      <point x="121" y="58" type="curve"/>
      <point x="141" y="136"/>
      <point x="173" y="168"/>
      <point x="343" y="256" type="curve" smooth="yes"/>
      <point x="505" y="340"/>
      <point x="565" y="400"/>
      <point x="592" y="511" type="curve" smooth="yes"/>
      <point x="593" y="516" type="line" smooth="yes"/>
      <point x="618" y="614"/>
      <point x="560" y="670"/>
    </contour>
    <contour>
      <point x="474" y="0" type="line"/>
      <point x="482" y="16"/>
      <point x="489" y="36"/>
      <point x="493" y="54" type="curve" smooth="yes"/>
      <point x="507" y="109"/>
      <point x="497" y="129"/>
      <point x="447" y="129" type="curve" smooth="yes"/>
      <point x="152" y="129" type="line" smooth="yes"/>
      <point x="93" y="129"/>
      <point x="53" y="125"/>
      <point x="13" y="107" type="curve"/>
      <point x="13" y="105"/>
      <point x="13" y="104"/>
      <point x="12" y="102" type="curve" smooth="yes"/>
      <point x="2" y="61"/>
      <point x="20" y="0"/>
      <point x="50" y="0" type="curve" smooth="yes"/>
    </contour>
    <contour>
      <point x="416" y="720" type="curve" smooth="yes"/>
      <point x="334" y="720"/>
      <point x="260" y="706"/>
      <point x="218" y="672" type="curve" smooth="yes"/>
      <point x="188" y="649"/>
      <point x="168" y="618"/>
      <point x="158" y="577" type="curve" smooth="yes"/>
      <point x="151" y="552"/>
      <point x="152" y="526"/>
      <point x="158" y="508" type="curve"/>
      <point x="162" y="508" type="line"/>
      <point x="232" y="565"/>
      <point x="304" y="591"/>
      <point x="390" y="591" type="curve" smooth="yes"/>
      <point x="472" y="591"/>
      <point x="525" y="555"/>
      <point x="512" y="506" type="curve" smooth="yes"/>
      <point x="507" y="485"/>
      <point x="499" y="464"/>
      <point x="488" y="445" type="curve"/>
      <point x="541" y="445"/>
      <point x="582" y="471"/>
      <point x="593" y="516" type="curve" smooth="yes"/>
      <point x="626" y="646"/>
      <point x="549" y="720"/>
    </contour>
  </outline>
</glyph>
<glyph name="three" format="1">
  <advance width="600"/>
  <unicode hex="0033"/>
  <outline>
    <contour>
      <point x="361" y="591" type="curve" smooth="yes"/>
      <point x="472" y="591"/>
      <point x="521" y="535"/>
      <point x="502" y="462" type="curve" smooth="yes"/>
      <point x="500" y="449"/>
      <point x="496" y="438"/>
      <point x="490" y="428" type="curve"/>
      <point x="526" y="429"/>
      <point x="588" y="485"/>
      <point x="595" y="515" type="curve" smooth="yes"/>
      <point x="599" y="530" type="line" smooth="yes"/>
      <point x="625" y="631"/>
      <point x="546" y="720"/>
      <point x="398" y="720" type="curve" smooth="yes"/>
      <point x="312" y="720"/>
      <point x="245" y="703"/>
      <point x="205" y="672" type="curve" smooth="yes"/>
      <point x="173" y="648"/>
      <point x="157" y="626"/>
      <point x="147" y="583" type="curve" smooth="yes"/>
      <point x="141" y="561"/>
      <point x="142" y="538"/>
      <point x="145" y="515" type="curve"/>
      <point x="149" y="515" type="line"/>
      <point x="221" y="575"/>
      <point x="277" y="591"/>
    </contour>
    <contour>
      <point x="224" y="317" type="curve" smooth="yes"/>
      <point x="428" y="317"/>
      <point x="570" y="415"/>
      <point x="595" y="515" type="curve" smooth="yes"/>
      <point x="604" y="551"/>
      <point x="529" y="600"/>
      <point x="492" y="600" type="curve"/>
      <point x="491" y="595"/>
      <point x="490" y="589"/>
      <point x="489" y="583" type="curve" smooth="yes"/>
      <point x="455" y="440"/>
      <point x="339" y="389"/>
      <point x="202" y="389" type="curve"/>
      <point x="195" y="375"/>
      <point x="191" y="366"/>
      <point x="187" y="346" type="curve" smooth="yes"/>
      <point x="182" y="324"/>
      <point x="213" y="317"/>
    </contour>
    <contour>
      <point x="214" y="278" type="curve" smooth="yes"/>
      <point x="332" y="271"/>
      <point x="419" y="221"/>
      <point x="399" y="141" type="curve" smooth="yes"/>
      <point x="398" y="135"/>
      <point x="397" y="130"/>
      <point x="395" y="126" type="curve"/>
      <point x="446" y="126"/>
      <point x="513" y="141"/>
      <point x="520" y="163" type="curve" smooth="yes"/>
      <point x="554" y="304"/>
      <point x="400" y="359"/>
      <point x="195" y="359" type="curve"/>
      <point x="191" y="352"/>
      <point x="188" y="351"/>
      <point x="187" y="346" type="curve" smooth="yes"/>
      <point x="176" y="300"/>
      <point x="182" y="281"/>
    </contour>
    <contour>
      <point x="242" y="109" type="curve" smooth="yes"/>
      <point x="150" y="109"/>
      <point x="94" y="131"/>
      <point x="49" y="194" type="curve"/>
      <point x="45" y="194" type="line"/>
      <point x="35" y="175"/>
      <point x="28" y="159"/>
      <point x="22" y="134" type="curve" smooth="yes"/>
      <point x="10" y="86"/>
      <point x="13" y="66"/>
      <point x="31" y="42" type="curve" smooth="yes"/>
      <point x="56" y="9"/>
      <point x="133" y="-20"/>
      <point x="229" y="-20" type="curve" smooth="yes"/>
      <point x="383" y="-20"/>
      <point x="489" y="42"/>
      <point x="516" y="148" type="curve" smooth="yes"/>
      <point x="520" y="163" type="line" smooth="yes"/>
      <point x="526" y="193"/>
      <point x="476" y="257"/>
      <point x="439" y="259" type="curve"/>
      <point x="438" y="249"/>
      <point x="436" y="239"/>
      <point x="433" y="226" type="curve" smooth="yes"/>
      <point x="414" y="150"/>
      <point x="360" y="109"/>
    </contour>
  </outline>
</glyph>
<glyph name="four" format="1">
  <advance width="600"/>
  <unicode hex="0034"/>
  <outline>
    <contour>
      <point x="140" y="234" type="curve"/>
      <point x="260" y="398"/>
      <point x="456" y="577"/>
      <point x="637" y="669" type="curve"/>
      <point x="638" y="673" type="line"/>
      <point x="621" y="696"/>
      <point x="579" y="711"/>
      <point x="515" y="711" type="curve" smooth="yes"/>
      <point x="473" y="711"/>
      <point x="440" y="702"/>
      <point x="371" y="652" type="curve" smooth="yes"/>
      <point x="207" y="532"/>
      <point x="63" y="352"/>
      <point x="41" y="266" type="curve" smooth="yes"/>
      <point x="36" y="245"/>
      <point x="93" y="234"/>
    </contour>
    <contour>
      <point x="536" y="154" type="line"/>
      <point x="543" y="167"/>
      <point x="548" y="182"/>
      <point x="551" y="195" type="curve" smooth="yes"/>
      <point x="561" y="234"/>
      <point x="564" y="283"/>
      <point x="532" y="283" type="curve" smooth="yes"/>
      <point x="339" y="283" type="line"/>
      <point x="257" y="283"/>
      <point x="135" y="278"/>
      <point x="41" y="266" type="curve"/>
      <point x="37" y="253" type="line" smooth="yes"/>
      <point x="28" y="212"/>
      <point x="32" y="185"/>
      <point x="45" y="167" type="curve" smooth="yes"/>
      <point x="53" y="157"/>
      <point x="60" y="154"/>
      <point x="81" y="154" type="curve" smooth="yes"/>
    </contour>
    <contour>
      <point x="437" y="-2" type="curve"/>
      <point x="438" y="32"/>
      <point x="442" y="59"/>
      <point x="451" y="97" type="curve" smooth="yes"/>
      <point x="518" y="362" type="line" smooth="yes"/>
      <point x="524" y="388"/>
      <point x="487" y="412"/>
      <point x="444" y="412" type="curve" smooth="yes"/>
      <point x="439" y="412" type="line"/>
      <point x="399" y="351"/>
      <point x="351" y="260"/>
      <point x="336" y="200" type="curve"/>
      <point x="300" y="56" type="line" smooth="yes"/>
      <point x="290" y="15"/>
      <point x="318" y="-7"/>
      <point x="378" y="-7" type="curve" smooth="yes"/>
      <point x="407" y="-7"/>
      <point x="424" y="-5"/>
    </contour>
  </outline>
</glyph>
<glyph name="five" format="1">
  <advance width="600"/>
  <unicode hex="0035"/>
  <outline>
    <contour>
      <point x="199" y="700" type="line"/>
      <point x="196" y="692"/>
      <point x="194" y="684"/>
      <point x="192" y="674" type="curve" smooth="yes"/>
      <point x="180" y="627"/>
      <point x="181" y="606"/>
      <point x="194" y="589" type="curve" smooth="yes"/>
      <point x="205" y="574"/>
      <point x="221" y="571"/>
      <point x="250" y="571" type="curve" smooth="yes"/>
      <point x="597" y="571" type="line"/>
      <point x="604" y="586"/>
      <point x="611" y="606"/>
      <point x="616" y="625" type="curve" smooth="yes"/>
      <point x="631" y="680"/>
      <point x="620" y="700"/>
      <point x="571" y="700" type="curve" smooth="yes"/>
    </contour>
    <contour>
      <point x="224" y="285" type="line"/>
      <point x="379" y="658" type="line" smooth="yes"/>
      <point x="390" y="685"/>
      <point x="353" y="700"/>
      <point x="288" y="700" type="curve" smooth="yes"/>
      <point x="262" y="700" type="line"/>
      <point x="106" y="323" type="line" smooth="yes"/>
      <point x="95" y="298"/>
      <point x="142" y="285"/>
      <point x="217" y="285" type="curve" smooth="yes"/>
    </contour>
    <contour>
      <point x="200" y="386" type="curve"/>
      <point x="167" y="313"/>
      <point x="191" y="285"/>
      <point x="224" y="285" type="curve"/>
      <point x="226" y="285"/>
      <point x="227" y="285"/>
      <point x="230" y="285" type="curve" smooth="yes"/>
      <point x="382" y="285"/>
      <point x="448" y="233"/>
      <point x="424" y="138" type="curve" smooth="yes"/>
      <point x="419" y="123"/>
      <point x="416" y="114"/>
      <point x="410" y="99" type="curve"/>
      <point x="459" y="99"/>
      <point x="510" y="127"/>
      <point x="522" y="173" type="curve" smooth="yes"/>
      <point x="550" y="285"/>
      <point x="495" y="386"/>
      <point x="227" y="386" type="curve" smooth="yes"/>
      <point x="218" y="386"/>
      <point x="209" y="386"/>
    </contour>
    <contour>
      <point x="230" y="-20" type="curve" smooth="yes"/>
      <point x="390" y="-20"/>
      <point x="490" y="45"/>
      <point x="517" y="155" type="curve" smooth="yes"/>
      <point x="522" y="173" type="line" smooth="yes"/>
      <point x="530" y="208"/>
      <point x="503" y="269"/>
      <point x="462" y="271" type="curve"/>
      <point x="462" y="262"/>
      <point x="460" y="253"/>
      <point x="458" y="242" type="curve" smooth="yes"/>
      <point x="456" y="237" type="line" smooth="yes"/>
      <point x="436" y="154"/>
      <point x="355" y="109"/>
      <point x="243" y="109" type="curve" smooth="yes"/>
      <point x="151" y="109"/>
      <point x="94" y="140"/>
      <point x="43" y="187" type="curve"/>
      <point x="39" y="187" type="line"/>
      <point x="34" y="176"/>
      <point x="27" y="159"/>
      <point x="22" y="139" type="curve" smooth="yes"/>
      <point x="13" y="102"/>
      <point x="16" y="66"/>
      <point x="32" y="44" type="curve" smooth="yes"/>
      <point x="59" y="8"/>
      <point x="122" y="-20"/>
    </contour>
  </outline>
</glyph>
<glyph name="six" format="1">
  <advance width="600"/>
  <unicode hex="0036"/>
  <outline>
    <contour>
      <point x="118" y="161" type="curve"/>
      <point x="70" y="84"/>
      <point x="161" y="-20"/>
      <point x="261" y="-20" type="curve"/>
      <point x="402" y="-20"/>
      <point x="489" y="50"/>
      <point x="523" y="188" type="curve" smooth="yes"/>
      <point x="525" y="193" type="line" smooth="yes"/>
      <point x="558" y="322"/>
      <point x="463" y="371"/>
      <point x="396" y="325" type="curve"/>
      <point x="409" y="295"/>
      <point x="407" y="252"/>
      <point x="394" y="202" type="curve" smooth="yes"/>
      <point x="393" y="198" type="line" smooth="yes"/>
      <point x="379" y="141"/>
      <point x="335" y="108"/>
      <point x="260" y="108" type="curve" smooth="yes"/>
      <point x="199" y="108"/>
      <point x="151" y="126"/>
    </contour>
    <contour>
      <point x="241" y="522" type="curve"/>
      <point x="304" y="568"/>
      <point x="369" y="591"/>
      <point x="439" y="591" type="curve" smooth="yes"/>
      <point x="498" y="591"/>
      <point x="540" y="578"/>
      <point x="581" y="552" type="curve"/>
      <point x="585" y="552" type="line"/>
      <point x="591" y="565"/>
      <point x="597" y="580"/>
      <point x="602" y="600" type="curve" smooth="yes"/>
      <point x="615" y="649"/>
      <point x="608" y="669"/>
      <point x="599" y="682" type="curve" smooth="yes"/>
      <point x="587" y="698"/>
      <point x="541" y="720"/>
      <point x="458" y="720" type="curve" smooth="yes"/>
      <point x="330" y="720"/>
      <point x="214" y="633"/>
    </contour>
    <contour>
      <point x="72" y="340" type="curve" smooth="yes"/>
      <point x="69" y="331" type="line" smooth="yes"/>
      <point x="16" y="114"/>
      <point x="109" y="-20"/>
      <point x="261" y="-20" type="curve" smooth="yes"/>
      <point x="269" y="-20"/>
      <point x="293" y="-13"/>
      <point x="306" y="38" type="curve"/>
      <point x="198" y="62"/>
      <point x="166" y="173"/>
      <point x="204" y="325" type="curve" smooth="yes"/>
      <point x="206" y="333" type="line" smooth="yes"/>
      <point x="260" y="549"/>
      <point x="314" y="602"/>
      <point x="489" y="665" type="curve"/>
      <point x="497" y="697"/>
      <point x="483" y="720"/>
      <point x="458" y="720" type="curve" smooth="yes"/>
      <point x="296" y="720"/>
      <point x="146" y="639"/>
    </contour>
    <contour>
      <point x="368" y="401" type="curve" smooth="yes"/>
      <point x="302" y="401"/>
      <point x="232" y="378"/>
      <point x="195" y="349" type="curve" smooth="yes"/>
      <point x="170" y="328"/>
      <point x="161" y="308"/>
      <point x="143" y="251" type="curve"/>
      <point x="206" y="278"/>
      <point x="267" y="293"/>
      <point x="321" y="293" type="curve" smooth="yes"/>
      <point x="423" y="293"/>
      <point x="465" y="241"/>
      <point x="448" y="173" type="curve" smooth="yes"/>
      <point x="444" y="157"/>
      <point x="440" y="144"/>
      <point x="432" y="131" type="curve"/>
      <point x="469" y="131"/>
      <point x="514" y="149"/>
      <point x="525" y="192" type="curve" smooth="yes"/>
      <point x="559" y="328"/>
      <point x="480" y="401"/>
    </contour>
  </outline>
</glyph>
<glyph name="seven" format="1">
  <advance width="600"/>
  <unicode hex="0037"/>
  <outline>
    <contour>
      <point x="488" y="571" type="line" smooth="yes"/>
      <point x="536" y="571"/>
      <point x="585" y="575"/>
      <point x="630" y="582" type="curve"/>
      <point x="633" y="594" type="line"/>
      <point x="643" y="635"/>
      <point x="634" y="700"/>
      <point x="603" y="700" type="curve"/>
      <point x="207" y="700" type="line"/>
      <point x="201" y="675" type="line" smooth="yes"/>
      <point x="185" y="611"/>
      <point x="191" y="571"/>
      <point x="225" y="571" type="curve" smooth="yes"/>
    </contour>
    <contour>
      <point x="278" y="-10" type="line"/>
      <point x="344" y="251"/>
      <point x="598" y="454"/>
      <point x="630" y="582" type="curve" smooth="yes"/>
      <point x="634" y="598"/>
      <point x="570" y="613"/>
      <point x="495" y="613" type="curve"/>
      <point x="463" y="487"/>
      <point x="205" y="255"/>
      <point x="157" y="64" type="curve" smooth="yes"/>
      <point x="145" y="14"/>
      <point x="210" y="-10"/>
      <point x="256" y="-10" type="curve" smooth="yes"/>
    </contour>
    <contour>
      <point x="241" y="455" type="curve"/>
      <point x="268" y="566"/>
      <point x="299" y="616"/>
      <point x="313" y="671" type="curve"/>
      <point x="321" y="703"/>
      <point x="262" y="720"/>
      <point x="209" y="720" type="curve" smooth="yes"/>
      <point x="202" y="720" type="line"/>
      <point x="165" y="650"/>
      <point x="139" y="576"/>
      <point x="122" y="505" type="curve"/>
      <point x="109" y="458"/>
      <point x="139" y="450"/>
      <point x="189" y="450" type="curve" smooth="yes"/>
      <point x="209" y="450"/>
      <point x="227" y="452"/>
    </contour>
  </outline>
</glyph>
<glyph name="eight" format="1">
  <advance width="600"/>
  <unicode hex="0038"/>
  <outline>
    <contour>
      <point x="406" y="345" type="curve" smooth="yes"/>
      <point x="322" y="378" type="line" smooth="yes"/>
      <point x="246" y="409"/>
      <point x="232" y="457"/>
      <point x="245" y="508" type="curve" smooth="yes"/>
      <point x="251" y="530"/>
      <point x="263" y="568"/>
      <point x="283" y="604" type="curve"/>
      <point x="210" y="602"/>
      <point x="144" y="581"/>
      <point x="129" y="522" type="curve" smooth="yes"/>
      <point x="111" y="452"/>
      <point x="128" y="356"/>
      <point x="262" y="302" type="curve" smooth="yes"/>
      <point x="344" y="268" type="line" smooth="yes"/>
      <point x="409" y="242"/>
      <point x="414" y="203"/>
      <point x="397" y="131" type="curve" smooth="yes"/>
      <point x="393" y="119"/>
      <point x="391" y="109"/>
      <point x="388" y="95" type="curve"/>
      <point x="439" y="96"/>
      <point x="510" y="121"/>
      <point x="519" y="156" type="curve"/>
      <point x="530" y="201"/>
      <point x="526" y="298"/>
    </contour>
    <contour>
      <point x="235" y="-20" type="curve" smooth="yes"/>
      <point x="401" y="-20"/>
      <point x="487" y="38"/>
      <point x="516" y="146" type="curve" smooth="yes"/>
      <point x="519" y="156" type="line" smooth="yes"/>
      <point x="524" y="174"/>
      <point x="485" y="221"/>
      <point x="451" y="223" type="curve"/>
      <point x="450" y="218"/>
      <point x="450" y="215"/>
      <point x="448" y="209" type="curve" smooth="yes"/>
      <point x="432" y="144"/>
      <point x="355" y="106"/>
      <point x="252" y="106" type="curve" smooth="yes"/>
      <point x="159" y="106"/>
      <point x="129" y="141"/>
      <point x="107" y="201" type="curve"/>
      <point x="0" y="112"/>
      <point x="79" y="-20"/>
    </contour>
    <contour>
      <point x="404" y="720" type="curve" smooth="yes"/>
      <point x="253" y="720"/>
      <point x="157" y="637"/>
      <point x="131" y="530" type="curve" smooth="yes"/>
      <point x="129" y="522" type="line" smooth="yes"/>
      <point x="120" y="486"/>
      <point x="168" y="434"/>
      <point x="238" y="433" type="curve"/>
      <point x="238" y="451"/>
      <point x="239" y="482"/>
      <point x="245" y="508" type="curve" smooth="yes"/>
      <point x="263" y="577"/>
      <point x="328" y="603"/>
      <point x="389" y="603" type="curve" smooth="yes"/>
      <point x="448" y="603"/>
      <point x="486" y="586"/>
      <point x="517" y="550" type="curve"/>
      <point x="596" y="612"/>
      <point x="498" y="720"/>
    </contour>
    <contour>
      <point x="373" y="328" type="curve" smooth="yes"/>
      <point x="447" y="328"/>
      <point x="569" y="404"/>
      <point x="596" y="508" type="curve" smooth="yes"/>
      <point x="598" y="516" type="line" smooth="yes"/>
      <point x="630" y="639"/>
      <point x="541" y="720"/>
      <point x="404" y="720" type="curve" smooth="yes"/>
      <point x="386" y="720"/>
      <point x="366" y="710"/>
      <point x="348" y="657" type="curve"/>
      <point x="439" y="657"/>
      <point x="496" y="603"/>
      <point x="474" y="515" type="curve" smooth="yes"/>
      <point x="472" y="508" type="line" smooth="yes"/>
      <point x="457" y="444"/>
      <point x="406" y="401"/>
      <point x="294" y="358" type="curve"/>
      <point x="316" y="337"/>
      <point x="340" y="328"/>
    </contour>
    <contour>
      <point x="312" y="46" type="curve"/>
      <point x="164" y="46"/>
      <point x="133" y="113"/>
      <point x="140" y="141" type="curve" smooth="yes"/>
      <point x="142" y="149" type="line" smooth="yes"/>
      <point x="158" y="222"/>
      <point x="227" y="270"/>
      <point x="344" y="300" type="curve"/>
      <point x="322" y="322"/>
      <point x="310" y="336"/>
      <point x="266" y="336" type="curve" smooth="yes"/>
      <point x="186" y="336"/>
      <point x="57" y="280"/>
      <point x="32" y="180" type="curve" smooth="yes"/>
      <point x="30" y="172" type="line" smooth="yes"/>
      <point x="4" y="69"/>
      <point x="84" y="-20"/>
      <point x="235" y="-20" type="curve" smooth="yes"/>
      <point x="273" y="-20"/>
      <point x="303" y="10"/>
    </contour>
  </outline>
</glyph>
<glyph name="nine" format="1">
  <advance width="600"/>
  <unicode hex="0039"/>
  <outline>
    <contour>
      <point x="522" y="539" type="curve"/>
      <point x="573" y="613"/>
      <point x="492" y="720"/>
      <point x="393" y="720" type="curve"/>
      <point x="253" y="720"/>
      <point x="148" y="643"/>
      <point x="107" y="481" type="curve" smooth="yes"/>
      <point x="104" y="470" type="line" smooth="yes"/>
      <point x="72" y="340"/>
      <point x="175" y="287"/>
      <point x="243" y="333" type="curve"/>
      <point x="219" y="362"/>
      <point x="219" y="401"/>
      <point x="231" y="449" type="curve" smooth="yes"/>
      <point x="232" y="454" type="line" smooth="yes"/>
      <point x="253" y="535"/>
      <point x="306" y="592"/>
      <point x="381" y="592" type="curve" smooth="yes"/>
      <point x="442" y="592"/>
      <point x="490" y="574"/>
    </contour>
    <contour>
      <point x="411" y="180" type="curve"/>
      <point x="344" y="130"/>
      <point x="274" y="109"/>
      <point x="200" y="109" type="curve" smooth="yes"/>
      <point x="141" y="109"/>
      <point x="101" y="121"/>
      <point x="60" y="147" type="curve"/>
      <point x="56" y="147" type="line"/>
      <point x="48" y="135"/>
      <point x="42" y="119"/>
      <point x="38" y="100" type="curve" smooth="yes"/>
      <point x="29" y="55"/>
      <point x="35" y="32"/>
      <point x="46" y="18" type="curve" smooth="yes"/>
      <point x="60" y="0"/>
      <point x="103" y="-20"/>
      <point x="193" y="-20" type="curve" smooth="yes"/>
      <point x="327" y="-20"/>
      <point x="436" y="67"/>
    </contour>
    <contour>
      <point x="570" y="370" type="curve" smooth="yes"/>
      <point x="572" y="379" type="line" smooth="yes"/>
      <point x="627" y="603"/>
      <point x="545" y="720"/>
      <point x="393" y="720" type="curve" smooth="yes"/>
      <point x="384" y="720"/>
      <point x="361" y="714"/>
      <point x="344" y="654" type="curve"/>
      <point x="469" y="622"/>
      <point x="477" y="543"/>
      <point x="437" y="385" type="curve" smooth="yes"/>
      <point x="435" y="376" type="line" smooth="yes"/>
      <point x="379" y="150"/>
      <point x="327" y="97"/>
      <point x="155" y="49" type="curve"/>
      <point x="146" y="3"/>
      <point x="167" y="-20"/>
      <point x="193" y="-20" type="curve" smooth="yes"/>
      <point x="356" y="-20"/>
      <point x="488" y="46"/>
    </contour>
    <contour>
      <point x="269" y="240" type="curve" smooth="yes"/>
      <point x="333" y="240"/>
      <point x="387" y="252"/>
      <point x="424" y="283" type="curve" smooth="yes"/>
      <point x="449" y="303"/>
      <point x="458" y="323"/>
      <point x="469" y="388" type="curve"/>
      <point x="412" y="358"/>
      <point x="364" y="345"/>
      <point x="310" y="345" type="curve" smooth="yes"/>
      <point x="208" y="345"/>
      <point x="157" y="400"/>
      <point x="177" y="481" type="curve" smooth="yes"/>
      <point x="182" y="499"/>
      <point x="186" y="514"/>
      <point x="196" y="529" type="curve"/>
      <point x="158" y="529"/>
      <point x="116" y="516"/>
      <point x="104" y="470" type="curve" smooth="yes"/>
      <point x="66" y="319"/>
      <point x="152" y="240"/>
    </contour>
  </outline>
</glyph>
<glyph name="colon" format="1">
  <advance width="300"/>
  <unicode hex="003A"/>
  <outline>
    <contour>
      <point x="268" y="354" type="curve"/>
      <point x="299" y="479" type="line" smooth="yes"/>
      <point x="314" y="537"/>
      <point x="256" y="549"/>
      <point x="197" y="549" type="curve" smooth="yes"/>
      <point x="174" y="549"/>
      <point x="145" y="546"/>
      <point x="121" y="541" type="curve"/>
      <point x="90" y="416" type="line" smooth="yes"/>
      <point x="75" y="358"/>
      <point x="134" y="347"/>
      <point x="193" y="347" type="curve" smooth="yes"/>
      <point x="216" y="347"/>
      <point x="244" y="349"/>
    </contour>
    <contour>
      <point x="179" y="-3" type="curve"/>
      <point x="210" y="123" type="line" smooth="yes"/>
      <point x="225" y="181"/>
      <point x="167" y="192"/>
      <point x="107" y="192" type="curve" smooth="yes"/>
      <point x="85" y="192"/>
      <point x="56" y="190"/>
      <point x="32" y="185" type="curve"/>
      <point x="1" y="59" type="line" smooth="yes"/>
      <point x="-14" y="1"/>
      <point x="45" y="-10"/>
      <point x="104" y="-10" type="curve" smooth="yes"/>
      <point x="127" y="-10"/>
      <point x="155" y="-7"/>
    </contour>
  </outline>
</glyph>
<glyph name="semicolon" format="1">
  <advance width="350"/>
  <unicode hex="003B"/>
  <outline>
    <contour>
      <point x="288" y="352" type="curve"/>
      <point x="320" y="478" type="line" smooth="yes"/>
      <point x="334" y="535"/>
      <point x="276" y="547"/>
      <point x="217" y="547" type="curve" smooth="yes"/>
      <point x="194" y="547"/>
      <point x="166" y="544"/>
      <point x="142" y="539" type="curve"/>
      <point x="110" y="414" type="line" smooth="yes"/>
      <point x="96" y="356"/>
      <point x="154" y="345"/>
      <point x="213" y="345" type="curve" smooth="yes"/>
      <point x="236" y="345"/>
      <point x="264" y="347"/>
    </contour>
    <contour>
      <point x="2" y="-198" type="curve" smooth="yes"/>
      <point x="22" y="-198"/>
      <point x="34" y="-195"/>
      <point x="47" y="-184" type="curve"/>
      <point x="117" y="-128"/>
      <point x="199" y="-7"/>
      <point x="222" y="85" type="curve"/>
      <point x="235" y="136"/>
      <point x="206" y="155"/>
      <point x="129" y="155" type="curve" smooth="yes"/>
      <point x="106" y="155"/>
      <point x="89" y="153"/>
      <point x="62" y="148" type="curve"/>
      <point x="29" y="14"/>
      <point x="-19" y="-85"/>
      <point x="-89" y="-167" type="curve"/>
      <point x="-66" y="-189"/>
      <point x="-40" y="-198"/>
    </contour>
  </outline>
</glyph>
<glyph name="equal" format="1">
  <advance width="600"/>
  <unicode hex="003D"/>
  <outline>
    <contour>
      <point x="107" y="491" type="line"/>
      <point x="106" y="486"/>
      <point x="105" y="480"/>
      <point x="103" y="474" type="curve" smooth="yes"/>
      <point x="90" y="422"/>
      <point x="90" y="392"/>
      <point x="102" y="376" type="curve" smooth="yes"/>
      <point x="112" y="363"/>
      <point x="128" y="359"/>
      <point x="167" y="359" type="curve"/>
      <point x="575" y="359" type="line"/>
      <point x="583" y="376"/>
      <point x="590" y="396"/>
      <point x="594" y="412" type="curve" smooth="yes"/>
      <point x="609" y="471"/>
      <point x="599" y="491"/>
      <point x="549" y="491" type="curve"/>
    </contour>
    <contour>
      <point x="518" y="109" type="line"/>
      <point x="520" y="114"/>
      <point x="521" y="120"/>
      <point x="523" y="126" type="curve" smooth="yes"/>
      <point x="535" y="178"/>
      <point x="536" y="208"/>
      <point x="524" y="224" type="curve" smooth="yes"/>
      <point x="514" y="237"/>
      <point x="498" y="241"/>
      <point x="459" y="241" type="curve"/>
      <point x="51" y="241" type="line"/>
      <point x="43" y="224"/>
      <point x="35" y="204"/>
      <point x="31" y="188" type="curve" smooth="yes"/>
      <point x="17" y="129"/>
      <point x="27" y="109"/>
      <point x="76" y="109" type="curve"/>
    </contour>
  </outline>
</glyph>
<glyph name="greater" format="1">
  <advance width="550"/>
  <unicode hex="003E"/>
  <outline>
    <contour>
      <point x="34" y="130" type="curve"/>
      <point x="29" y="110" type="line"/>
      <point x="19" y="70"/>
      <point x="29" y="15"/>
      <point x="63" y="15" type="curve" smooth="yes"/>
      <point x="76" y="15"/>
      <point x="107" y="22"/>
      <point x="152" y="39" type="curve" smooth="yes"/>
      <point x="298" y="92"/>
      <point x="443" y="185"/>
      <point x="533" y="273" type="curve"/>
      <point x="538" y="296" type="line"/>
      <point x="547" y="330"/>
      <point x="516" y="338"/>
      <point x="435" y="336" type="curve"/>
      <point x="330" y="241"/>
      <point x="225" y="170"/>
    </contour>
    <contour>
      <point x="160" y="594" type="curve"/>
      <point x="152" y="581"/>
      <point x="147" y="567"/>
      <point x="141" y="546" type="curve" smooth="yes"/>
      <point x="129" y="497"/>
      <point x="131" y="461"/>
      <point x="154" y="453" type="curve" smooth="yes"/>
      <point x="298" y="404"/>
      <point x="369" y="347"/>
      <point x="435" y="249" type="curve" smooth="yes"/>
      <point x="440" y="242"/>
      <point x="440" y="234"/>
      <point x="439" y="230" type="curve" smooth="yes"/>
      <point x="438" y="224"/>
      <point x="437" y="220"/>
      <point x="435" y="213" type="curve"/>
      <point x="503" y="246"/>
      <point x="533" y="275"/>
      <point x="537" y="292" type="curve" smooth="yes"/>
      <point x="540" y="301" type="line" smooth="yes"/>
      <point x="546" y="328"/>
      <point x="545" y="343"/>
      <point x="515" y="379" type="curve" smooth="yes"/>
      <point x="441" y="468"/>
      <point x="345" y="547"/>
    </contour>
  </outline>
</glyph>
<glyph name="at" format="1">
  <advance width="600"/>
  <unicode hex="0040"/>
  <outline>
    <contour>
      <point x="529" y="521" type="curve" smooth="yes"/>
      <point x="519" y="535"/>
      <point x="499" y="546"/>
      <point x="453" y="546" type="curve" smooth="yes"/>
      <point x="428" y="546"/>
      <point x="396" y="540"/>
      <point x="360" y="511" type="curve" smooth="yes"/>
      <point x="332" y="489"/>
      <point x="317" y="437"/>
      <point x="326" y="409" type="curve"/>
      <point x="375" y="436"/>
      <point x="400" y="443"/>
      <point x="440" y="443" type="curve" smooth="yes"/>
      <point x="467" y="443"/>
      <point x="487" y="440"/>
      <point x="506" y="421" type="curve"/>
      <point x="533" y="462"/>
      <point x="541" y="506"/>
    </contour>
    <contour>
      <point x="479" y="203" type="curve"/>
      <point x="430" y="152"/>
      <point x="377" y="118"/>
      <point x="344" y="118" type="curve" smooth="yes"/>
      <point x="315" y="118"/>
      <point x="308" y="148"/>
      <point x="326" y="222" type="curve" smooth="yes"/>
      <point x="328" y="229" type="line" smooth="yes"/>
      <point x="351" y="322"/>
      <point x="390" y="428"/>
      <point x="461" y="505" type="curve"/>
      <point x="432" y="530"/>
      <point x="392" y="537"/>
      <point x="360" y="511" type="curve" smooth="yes"/>
      <point x="300" y="463"/>
      <point x="246" y="368"/>
      <point x="208" y="215" type="curve" smooth="yes"/>
      <point x="206" y="207" type="line" smooth="yes"/>
      <point x="173" y="77"/>
      <point x="205" y="10"/>
      <point x="293" y="10" type="curve" smooth="yes"/>
      <point x="343" y="10"/>
      <point x="381" y="29"/>
      <point x="440" y="84" type="curve" smooth="yes"/>
      <point x="464" y="107"/>
      <point x="482" y="154"/>
    </contour>
    <contour>
      <point x="488" y="15" type="line"/>
      <point x="491" y="50"/>
      <point x="496" y="80"/>
      <point x="505" y="114" type="curve"/>
      <point x="605" y="516" type="line" smooth="yes"/>
      <point x="646" y="680"/>
      <point x="599" y="760"/>
      <point x="466" y="760" type="curve" smooth="yes"/>
      <point x="431" y="760"/>
      <point x="427" y="725"/>
      <point x="422" y="705" type="curve"/>
      <point x="519" y="704"/>
      <point x="523" y="651"/>
      <point x="500" y="559" type="curve" smooth="yes"/>
      <point x="389" y="115" type="line" smooth="yes"/>
      <point x="375" y="61"/>
      <point x="409" y="15"/>
      <point x="475" y="15" type="curve" smooth="yes"/>
    </contour>
    <contour>
      <point x="37" y="211" type="curve" smooth="yes"/>
      <point x="35" y="199" type="line" smooth="yes"/>
      <point x="-9" y="26"/>
      <point x="-1" y="-71"/>
      <point x="40" y="-127" type="curve" smooth="yes"/>
      <point x="64" y="-159"/>
      <point x="106" y="-152"/>
      <point x="150" y="-117" type="curve"/>
      <point x="79" y="-24"/>
      <point x="86" y="38"/>
      <point x="126" y="198" type="curve" smooth="yes"/>
      <point x="128" y="208" type="line" smooth="yes"/>
      <point x="195" y="473"/>
      <point x="323" y="669"/>
      <point x="450" y="669" type="curve" smooth="yes"/>
      <point x="504" y="669"/>
      <point x="515" y="644"/>
      <point x="523" y="606" type="curve"/>
      <point x="553" y="621"/>
      <point x="570" y="641"/>
      <point x="576" y="665" type="curve" smooth="yes"/>
      <point x="590" y="721"/>
      <point x="543" y="760"/>
      <point x="466" y="760" type="curve" smooth="yes"/>
      <point x="282" y="760"/>
      <point x="118" y="532"/>
    </contour>
    <contour>
      <point x="209" y="-190" type="curve" smooth="yes"/>
      <point x="276" y="-190"/>
      <point x="328" y="-181"/>
      <point x="350" y="-163" type="curve" smooth="yes"/>
      <point x="370" y="-147"/>
      <point x="381" y="-117"/>
      <point x="391" y="-79" type="curve" smooth="yes"/>
      <point x="393" y="-71" type="line"/>
      <point x="389" y="-71" type="line"/>
      <point x="341" y="-91"/>
      <point x="298" y="-99"/>
      <point x="236" y="-99" type="curve" smooth="yes"/>
      <point x="157" y="-99"/>
      <point x="108" y="-70"/>
      <point x="69" y="-10" type="curve"/>
      <point x="37" y="-38"/>
      <point x="16" y="-95"/>
      <point x="40" y="-127" type="curve"/>
      <point x="72" y="-169"/>
      <point x="128" y="-190"/>
    </contour>
  </outline>
</glyph>
<glyph name="A" format="1">
  <advance width="600"/>
  <unicode hex="0041"/>
  <outline>
    <contour>
      <point x="127" y="-7" type="curve"/>
      <point x="233" y="381"/>
      <point x="301" y="501"/>
      <point x="418" y="606" type="curve"/>
      <point x="451" y="634"/>
      <point x="450" y="710"/>
      <point x="383" y="710" type="curve"/>
      <point x="350" y="710" type="line"/>
      <point x="199" y="588"/>
      <point x="71" y="335"/>
      <point x="0" y="49" type="curve"/>
      <point x="-11" y="6"/>
      <point x="28" y="-10"/>
      <point x="91" y="-10" type="curve" smooth="yes"/>
      <point x="108" y="-10"/>
      <point x="116" y="-9"/>
    </contour>
    <contour>
      <point x="477" y="-6" type="curve"/>
      <point x="533" y="249"/>
      <point x="549" y="447"/>
      <point x="523" y="576" type="curve"/>
      <point x="513" y="624"/>
      <point x="498" y="659"/>
      <point x="478" y="686" type="curve" smooth="yes"/>
      <point x="468" y="699"/>
      <point x="432" y="710"/>
      <point x="383" y="710" type="curve"/>
      <point x="355" y="710"/>
      <point x="309" y="657"/>
      <point x="300" y="623" type="curve"/>
      <point x="310" y="623"/>
      <point x="317" y="623"/>
      <point x="325" y="623" type="curve" smooth="yes"/>
      <point x="349" y="623"/>
      <point x="358" y="619"/>
      <point x="365" y="602" type="curve"/>
      <point x="416" y="500"/>
      <point x="412" y="377"/>
      <point x="346" y="51" type="curve"/>
      <point x="342" y="35"/>
      <point x="343" y="26"/>
      <point x="350" y="17" type="curve" smooth="yes"/>
      <point x="365" y="-1"/>
      <point x="400" y="-10"/>
      <point x="438" y="-10" type="curve" smooth="yes"/>
      <point x="454" y="-10"/>
      <point x="466" y="-9"/>
    </contour>
    <contour>
      <point x="34" y="286" type="line"/>
      <point x="27" y="264" type="line" smooth="yes"/>
      <point x="18" y="225"/>
      <point x="16" y="193"/>
      <point x="31" y="174" type="curve" smooth="yes"/>
      <point x="35" y="168"/>
      <point x="38" y="166"/>
      <point x="45" y="166" type="curve"/>
      <point x="407" y="166" type="line"/>
      <point x="427" y="247"/>
      <point x="392" y="286"/>
      <point x="296" y="286" type="curve" smooth="yes"/>
    </contour>
    <contour>
      <point x="410" y="711" type="move" name="top"/>
    </contour>
    <contour>
      <point x="477" y="-7" type="move" name="ogonek"/>
    </contour>
    <contour>
      <point x="409" y="708" type="move" name="ring"/>
    </contour>
    <contour>
      <point x="221" y="-1" type="move" name="bottom"/>
    </contour>
  </outline>
</glyph>
<glyph name="B" format="1">
  <advance width="600"/>
  <unicode hex="0042"/>
  <outline>
    <contour>
      <point x="160" y="28" type="curve"/>
      <point x="282" y="515" type="line" smooth="yes"/>
      <point x="301" y="590"/>
      <point x="262" y="622"/>
      <point x="167" y="622" type="curve"/>
      <point x="30" y="75" type="line"/>
      <point x="23" y="47"/>
      <point x="87" y="28"/>
    </contour>
    <contour>
      <point x="137" y="700" type="curve"/>
      <point x="131" y="685"/>
      <point x="126" y="671"/>
      <point x="121" y="651" type="curve" smooth="yes"/>
      <point x="112" y="615"/>
      <point x="112" y="594"/>
      <point x="122" y="580" type="curve" smooth="yes"/>
      <point x="127" y="573"/>
      <point x="132" y="572"/>
      <point x="141" y="572" type="curve" smooth="yes"/>
      <point x="151" y="572"/>
      <point x="167" y="575"/>
      <point x="202" y="580" type="curve" smooth="yes"/>
      <point x="248" y="586"/>
      <point x="300" y="592"/>
      <point x="364" y="592" type="curve" smooth="yes"/>
      <point x="448" y="592"/>
      <point x="486" y="580"/>
      <point x="524" y="541" type="curve"/>
      <point x="597" y="600"/>
      <point x="514" y="720"/>
      <point x="397" y="720" type="curve" smooth="yes"/>
      <point x="313" y="720"/>
      <point x="226" y="714"/>
    </contour>
    <contour>
      <point x="597" y="510" type="curve" smooth="yes"/>
      <point x="601" y="522" type="line" smooth="yes"/>
      <point x="622" y="610"/>
      <point x="566" y="720"/>
      <point x="397" y="720" type="curve" smooth="yes"/>
      <point x="381" y="720"/>
      <point x="365" y="702"/>
      <point x="353" y="652" type="curve"/>
      <point x="455" y="652"/>
      <point x="488" y="601"/>
      <point x="464" y="507" type="curve" smooth="yes"/>
      <point x="460" y="493" type="line" smooth="yes"/>
      <point x="441" y="415"/>
      <point x="377" y="376"/>
      <point x="281" y="376" type="curve" smooth="yes"/>
      <point x="244" y="376"/>
      <point x="233" y="379"/>
      <point x="210" y="388" type="curve"/>
      <point x="197" y="376"/>
      <point x="192" y="367"/>
      <point x="189" y="351" type="curve" smooth="yes"/>
      <point x="180" y="314"/>
      <point x="210" y="277"/>
      <point x="259" y="277" type="curve" smooth="yes"/>
      <point x="271" y="277" type="line" smooth="yes"/>
      <point x="422" y="277"/>
      <point x="563" y="373"/>
    </contour>
    <contour>
      <point x="511" y="197" type="curve" smooth="yes"/>
      <point x="514" y="207" type="line" smooth="yes"/>
      <point x="532" y="278"/>
      <point x="481" y="351"/>
      <point x="406" y="351" type="curve" smooth="yes"/>
      <point x="400" y="351" type="line" smooth="yes"/>
      <point x="353" y="351"/>
      <point x="325" y="331"/>
      <point x="321" y="314" type="curve"/>
      <point x="320" y="310" type="line"/>
      <point x="329" y="310" type="line"/>
      <point x="370" y="310"/>
      <point x="397" y="273"/>
      <point x="383" y="217" type="curve" smooth="yes"/>
      <point x="380" y="207" type="line" smooth="yes"/>
      <point x="365" y="145"/>
      <point x="303" y="114"/>
      <point x="231" y="114" type="curve" smooth="yes"/>
      <point x="168" y="114"/>
      <point x="133" y="130"/>
      <point x="94" y="159" type="curve"/>
      <point x="59" y="136"/>
      <point x="38" y="106"/>
      <point x="30" y="75" type="curve" smooth="yes"/>
      <point x="20" y="33"/>
      <point x="98" y="-10"/>
      <point x="187" y="-10" type="curve" smooth="yes"/>
      <point x="198" y="-10" type="line" smooth="yes"/>
      <point x="342" y="-10"/>
      <point x="478" y="65"/>
    </contour>
  </outline>
</glyph>
<glyph name="C" format="1">
  <advance width="600"/>
  <unicode hex="0043"/>
  <outline>
    <contour>
      <point x="436" y="603" type="curve" smooth="yes"/>
      <point x="492" y="603"/>
      <point x="531" y="590"/>
      <point x="522" y="470" type="curve"/>
      <point x="570" y="470"/>
      <point x="582" y="476"/>
      <point x="586" y="491" type="curve" smooth="yes"/>
      <point x="609" y="579"/>
      <point x="604" y="633"/>
      <point x="577" y="668" type="curve" smooth="yes"/>
      <point x="554" y="699"/>
      <point x="520" y="720"/>
      <point x="450" y="720" type="curve" smooth="yes"/>
      <point x="278" y="720"/>
      <point x="140" y="586"/>
      <point x="72" y="312" type="curve" smooth="yes"/>
      <point x="64" y="284" type="line" smooth="yes"/>
      <point x="48" y="216"/>
      <point x="102" y="118"/>
      <point x="180" y="118" type="curve"/>
      <point x="174" y="171"/>
      <point x="180" y="226"/>
      <point x="193" y="279" type="curve" smooth="yes"/>
      <point x="198" y="298" type="line" smooth="yes"/>
      <point x="249" y="504"/>
      <point x="351" y="603"/>
    </contour>
    <contour>
      <point x="269" y="-20" type="curve" smooth="yes"/>
      <point x="346" y="-20"/>
      <point x="407" y="-8"/>
      <point x="454" y="31" type="curve" smooth="yes"/>
      <point x="482" y="54"/>
      <point x="498" y="89"/>
      <point x="511" y="140" type="curve" smooth="yes"/>
      <point x="515" y="156"/>
      <point x="517" y="174"/>
      <point x="518" y="194" type="curve"/>
      <point x="514" y="194" type="line"/>
      <point x="448" y="133"/>
      <point x="376" y="108"/>
      <point x="290" y="108" type="curve" smooth="yes"/>
      <point x="181" y="108"/>
      <point x="153" y="182"/>
      <point x="191" y="335" type="curve"/>
      <point x="102" y="336"/>
      <point x="78" y="340"/>
      <point x="64" y="284" type="curve" smooth="yes"/>
      <point x="18" y="101"/>
      <point x="107" y="-20"/>
    </contour>
    <contour>
      <point x="565" y="405" type="curve"/>
      <point x="586" y="491" type="line" smooth="yes"/>
      <point x="615" y="605"/>
      <point x="580" y="655"/>
      <point x="518" y="652" type="curve"/>
      <point x="477" y="580"/>
      <point x="460" y="540"/>
      <point x="445" y="482" type="curve" smooth="yes"/>
      <point x="438" y="453" type="line"/>
      <point x="434" y="438"/>
      <point x="436" y="427"/>
      <point x="443" y="418" type="curve" smooth="yes"/>
      <point x="452" y="405"/>
      <point x="472" y="400"/>
      <point x="513" y="400" type="curve"/>
      <point x="534" y="400"/>
      <point x="551" y="401"/>
    </contour>
    <contour>
      <point x="422" y="711" type="move" name="top"/>
    </contour>
    <contour>
      <point x="260" y="-2" type="move" name="bottom"/>
    </contour>
  </outline>
</glyph>
<glyph name="D" format="1">
  <advance width="650"/>
  <unicode hex="0044"/>
  <outline>
    <contour>
      <point x="164" y="36" type="curve"/>
      <point x="283" y="515" type="line" smooth="yes"/>
      <point x="302" y="591"/>
      <point x="264" y="622"/>
      <point x="169" y="622" type="curve"/>
      <point x="35" y="86" type="line" smooth="yes"/>
      <point x="28" y="58"/>
      <point x="85" y="36"/>
    </contour>
    <contour>
      <point x="139" y="700" type="curve"/>
      <point x="132" y="685"/>
      <point x="127" y="671"/>
      <point x="122" y="651" type="curve"/>
      <point x="112" y="613"/>
      <point x="113" y="589"/>
      <point x="122" y="575" type="curve" smooth="yes"/>
      <point x="127" y="569"/>
      <point x="133" y="567"/>
      <point x="142" y="567" type="curve" smooth="yes"/>
      <point x="151" y="567"/>
      <point x="168" y="571"/>
      <point x="202" y="575" type="curve" smooth="yes"/>
      <point x="248" y="582"/>
      <point x="299" y="587"/>
      <point x="363" y="587" type="curve"/>
      <point x="447" y="587"/>
      <point x="504" y="568"/>
      <point x="550" y="508" type="curve"/>
      <point x="615" y="586"/>
      <point x="550" y="720"/>
      <point x="392" y="720" type="curve" smooth="yes"/>
      <point x="298" y="720"/>
      <point x="231" y="716"/>
    </contour>
    <contour>
      <point x="617" y="370" type="curve" smooth="yes"/>
      <point x="620" y="382" type="line" smooth="yes"/>
      <point x="671" y="587"/>
      <point x="585" y="720"/>
      <point x="392" y="720" type="curve" smooth="yes"/>
      <point x="368" y="720"/>
      <point x="338" y="703"/>
      <point x="325" y="653" type="curve"/>
      <point x="512" y="630"/>
      <point x="529" y="567"/>
      <point x="487" y="400" type="curve" smooth="yes"/>
      <point x="484" y="387" type="line" smooth="yes"/>
      <point x="442" y="220"/>
      <point x="322" y="127"/>
      <point x="212" y="127" type="curve" smooth="yes"/>
      <point x="143" y="127"/>
      <point x="119" y="132"/>
      <point x="70" y="153" type="curve"/>
      <point x="53" y="137"/>
      <point x="43" y="121"/>
      <point x="35" y="86" type="curve" smooth="yes"/>
      <point x="24" y="44"/>
      <point x="104" y="-10"/>
      <point x="185" y="-10" type="curve" smooth="yes"/>
      <point x="189" y="-10" type="line" smooth="yes"/>
      <point x="400" y="-10"/>
      <point x="555" y="120"/>
    </contour>
    <contour>
      <point x="422" y="711" type="move" name="top"/>
    </contour>
  </outline>
</glyph>
<glyph name="E" format="1">
  <advance width="550"/>
  <unicode hex="0045"/>
  <outline>
    <contour>
      <point x="138" y="700" type="line"/>
      <point x="137" y="693"/>
      <point x="135" y="685"/>
      <point x="133" y="678" type="curve" smooth="yes"/>
      <point x="122" y="635"/>
      <point x="117" y="590"/>
      <point x="128" y="575" type="curve" smooth="yes"/>
      <point x="132" y="569"/>
      <point x="135" y="567"/>
      <point x="143" y="567" type="curve" smooth="yes"/>
      <point x="578" y="567" type="line"/>
      <point x="586" y="581"/>
      <point x="592" y="596"/>
      <point x="596" y="615" type="curve" smooth="yes"/>
      <point x="601" y="634"/>
      <point x="606" y="672"/>
      <point x="593" y="689" type="curve" smooth="yes"/>
      <point x="587" y="698"/>
      <point x="580" y="700"/>
      <point x="565" y="700" type="curve" smooth="yes"/>
    </contour>
    <contour>
      <point x="173" y="73" type="curve"/>
      <point x="279" y="498" type="line" smooth="yes"/>
      <point x="298" y="574"/>
      <point x="269" y="600"/>
      <point x="163" y="600" type="curve"/>
      <point x="44" y="123" type="line"/>
      <point x="34" y="84"/>
      <point x="97" y="73"/>
    </contour>
    <contour>
      <point x="46" y="133" type="line"/>
      <point x="42" y="116" type="line" smooth="yes"/>
      <point x="29" y="64"/>
      <point x="65" y="0"/>
      <point x="108" y="0" type="curve" smooth="yes"/>
      <point x="439" y="0" type="line"/>
      <point x="445" y="13"/>
      <point x="451" y="30"/>
      <point x="455" y="50" type="curve" smooth="yes"/>
      <point x="470" y="109"/>
      <point x="460" y="133"/>
      <point x="421" y="133" type="curve" smooth="yes"/>
    </contour>
    <contour>
      <point x="173" y="391" type="line"/>
      <point x="152" y="311"/>
      <point x="154" y="275"/>
      <point x="193" y="275" type="curve" smooth="yes"/>
      <point x="452" y="275" type="line"/>
      <point x="457" y="282"/>
      <point x="460" y="290"/>
      <point x="462" y="298" type="curve" smooth="yes"/>
      <point x="467" y="321"/>
      <point x="467" y="353"/>
      <point x="449" y="376" type="curve" smooth="yes"/>
      <point x="440" y="389"/>
      <point x="433" y="391"/>
      <point x="412" y="391" type="curve" smooth="yes"/>
    </contour>
    <contour>
      <point x="381" y="711" type="move" name="top"/>
    </contour>
    <contour>
      <point x="366" y="-1" type="move" name="ogonek"/>
    </contour>
    <contour>
      <point x="203" y="-1" type="move" name="bottom"/>
    </contour>
  </outline>
</glyph>
<glyph name="F" format="1">
  <advance width="550"/>
  <unicode hex="0046"/>
  <outline>
    <contour>
      <point x="176" y="-6" type="curve"/>
      <point x="178" y="29"/>
      <point x="184" y="59"/>
      <point x="193" y="93" type="curve" smooth="yes"/>
      <point x="294" y="498" type="line"/>
      <point x="313" y="575"/>
      <point x="285" y="601"/>
      <point x="178" y="601" type="curve"/>
      <point x="42" y="53" type="line" smooth="yes"/>
      <point x="31" y="11"/>
      <point x="66" y="-6"/>
      <point x="163" y="-6" type="curve" smooth="yes"/>
      <point x="167" y="-6"/>
      <point x="172" y="-6"/>
    </contour>
    <contour>
      <point x="137" y="700" type="line"/>
      <point x="135" y="693"/>
      <point x="133" y="685"/>
      <point x="131" y="678" type="curve" smooth="yes"/>
      <point x="118" y="626"/>
      <point x="117" y="588"/>
      <point x="126" y="575" type="curve" smooth="yes"/>
      <point x="131" y="568"/>
      <point x="134" y="567"/>
      <point x="141" y="567" type="curve"/>
      <point x="584" y="567" type="line"/>
      <point x="592" y="579"/>
      <point x="598" y="595"/>
      <point x="603" y="615" type="curve" smooth="yes"/>
      <point x="610" y="645"/>
      <point x="609" y="676"/>
      <point x="600" y="689" type="curve" smooth="yes"/>
      <point x="593" y="698"/>
      <point x="588" y="700"/>
      <point x="572" y="700" type="curve"/>
    </contour>
    <contour>
      <point x="134" y="341" type="line"/>
      <point x="113" y="261"/>
      <point x="111" y="209"/>
      <point x="150" y="209" type="curve"/>
      <point x="450" y="209" type="line"/>
      <point x="454" y="217"/>
      <point x="457" y="225"/>
      <point x="459" y="234" type="curve"/>
      <point x="467" y="266"/>
      <point x="462" y="302"/>
      <point x="446" y="322" type="curve" smooth="yes"/>
      <point x="433" y="339"/>
      <point x="426" y="341"/>
      <point x="400" y="341" type="curve"/>
    </contour>
  </outline>
</glyph>
<glyph name="G" format="1">
  <advance width="650"/>
  <unicode hex="0047"/>
  <outline>
    <contour>
      <point x="478" y="596" type="curve" smooth="yes"/>
      <point x="543" y="596"/>
      <point x="563" y="563"/>
      <point x="547" y="499" type="curve"/>
      <point x="602" y="499"/>
      <point x="629" y="534"/>
      <point x="634" y="554" type="curve" smooth="yes"/>
      <point x="644" y="594"/>
      <point x="638" y="637"/>
      <point x="613" y="670" type="curve" smooth="yes"/>
      <point x="592" y="698"/>
      <point x="556" y="720"/>
      <point x="493" y="720" type="curve" smooth="yes"/>
      <point x="311" y="720"/>
      <point x="142" y="599"/>
      <point x="66" y="299" type="curve" smooth="yes"/>
      <point x="63" y="288" type="line" smooth="yes"/>
      <point x="41" y="196"/>
      <point x="98" y="135"/>
      <point x="183" y="132" type="curve"/>
      <point x="175" y="181"/>
      <point x="178" y="221"/>
      <point x="192" y="275" type="curve" smooth="yes"/>
      <point x="195" y="290" type="line" smooth="yes"/>
      <point x="250" y="508"/>
      <point x="373" y="596"/>
    </contour>
    <contour>
      <point x="307" y="113" type="curve" smooth="yes"/>
      <point x="182" y="113"/>
      <point x="149" y="185"/>
      <point x="187" y="334" type="curve"/>
      <point x="118" y="335"/>
      <point x="77" y="340"/>
      <point x="63" y="288" type="curve" smooth="yes"/>
      <point x="21" y="114"/>
      <point x="92" y="-20"/>
      <point x="307" y="-20" type="curve" smooth="yes"/>
      <point x="446" y="-20"/>
      <point x="527" y="41"/>
      <point x="553" y="146" type="curve" smooth="yes"/>
      <point x="555" y="154" type="line" smooth="yes"/>
      <point x="571" y="220"/>
      <point x="543" y="291"/>
      <point x="488" y="291" type="curve"/>
      <point x="487" y="272"/>
      <point x="485" y="253"/>
      <point x="477" y="223" type="curve" smooth="yes"/>
      <point x="458" y="147"/>
      <point x="395" y="113"/>
    </contour>
    <contour>
      <point x="372" y="346" type="line"/>
      <point x="370" y="340"/>
      <point x="368" y="334"/>
      <point x="366" y="327" type="curve" smooth="yes"/>
      <point x="358" y="292"/>
      <point x="362" y="272"/>
      <point x="373" y="258" type="curve" smooth="yes"/>
      <point x="388" y="238"/>
      <point x="409" y="230"/>
      <point x="476" y="230" type="curve"/>
      <point x="604" y="230" type="line"/>
      <point x="606" y="239" type="line" smooth="yes"/>
      <point x="626" y="319"/>
      <point x="618" y="346"/>
      <point x="573" y="346" type="curve" smooth="yes"/>
    </contour>
    <contour>
      <point x="611" y="460" type="curve"/>
      <point x="634" y="554" type="line" smooth="yes"/>
      <point x="647" y="606"/>
      <point x="617" y="646"/>
      <point x="556" y="644" type="curve"/>
      <point x="522" y="598"/>
      <point x="501" y="557"/>
      <point x="495" y="529" type="curve" smooth="yes"/>
      <point x="490" y="509" type="line" smooth="yes"/>
      <point x="482" y="468"/>
      <point x="501" y="455"/>
      <point x="559" y="455" type="curve" smooth="yes"/>
      <point x="579" y="455"/>
      <point x="597" y="456"/>
    </contour>
    <contour>
      <point x="445" y="711" type="move" name="top"/>
    </contour>
    <contour>
      <point x="267" y="-1" type="move" name="bottom"/>
    </contour>
  </outline>
</glyph>
<glyph name="H" format="1">
  <advance width="650"/>
  <unicode hex="0048"/>
  <outline>
    <contour>
      <point x="179" y="704" type="curve"/>
      <point x="179" y="668"/>
      <point x="173" y="631"/>
      <point x="163" y="592" type="curve" smooth="yes"/>
      <point x="27" y="49" type="line" smooth="yes"/>
      <point x="17" y="9"/>
      <point x="49" y="-10"/>
      <point x="121" y="-10" type="curve" smooth="yes"/>
      <point x="136" y="-10"/>
      <point x="147" y="-9"/>
      <point x="154" y="-8" type="curve"/>
      <point x="317" y="642" type="line" smooth="yes"/>
      <point x="323" y="666"/>
      <point x="322" y="679"/>
      <point x="314" y="690" type="curve" smooth="yes"/>
      <point x="303" y="705"/>
      <point x="283" y="710"/>
      <point x="239" y="710" type="curve" smooth="yes"/>
      <point x="217" y="710"/>
      <point x="200" y="708"/>
    </contour>
    <contour>
      <point x="524" y="-4" type="curve"/>
      <point x="525" y="32"/>
      <point x="530" y="69"/>
      <point x="540" y="108" type="curve" smooth="yes"/>
      <point x="676" y="651" type="line" smooth="yes"/>
      <point x="686" y="690"/>
      <point x="647" y="710"/>
      <point x="565" y="710" type="curve" smooth="yes"/>
      <point x="558" y="710"/>
      <point x="553" y="710"/>
      <point x="550" y="710" type="curve"/>
      <point x="387" y="58" type="line" smooth="yes"/>
      <point x="380" y="34"/>
      <point x="381" y="21"/>
      <point x="389" y="10" type="curve" smooth="yes"/>
      <point x="400" y="-5"/>
      <point x="420" y="-10"/>
      <point x="464" y="-10" type="curve" smooth="yes"/>
      <point x="486" y="-10"/>
      <point x="503" y="-8"/>
    </contour>
    <contour>
      <point x="59" y="383" type="line"/>
      <point x="54" y="360" type="line" smooth="yes"/>
      <point x="42" y="315"/>
      <point x="45" y="280"/>
      <point x="61" y="257" type="curve" smooth="yes"/>
      <point x="66" y="251"/>
      <point x="69" y="250"/>
      <point x="75" y="250" type="curve"/>
      <point x="468" y="250" type="line"/>
      <point x="493" y="349"/>
      <point x="474" y="383"/>
      <point x="399" y="383" type="curve" smooth="yes"/>
    </contour>
    <contour>
      <point x="421" y="711" type="move" name="top"/>
    </contour>
  </outline>
</glyph>
<glyph name="I" format="1">
  <advance width="500"/>
  <unicode hex="0049"/>
  <outline>
    <contour>
      <point x="273" y="76" type="curve"/>
      <point x="379" y="498" type="line" smooth="yes"/>
      <point x="398" y="574"/>
      <point x="371" y="600"/>
      <point x="263" y="600" type="curve"/>
      <point x="165" y="206" type="line" smooth="yes"/>
      <point x="143" y="116"/>
      <point x="166" y="76"/>
    </contour>
    <contour>
      <point x="160" y="700" type="line"/>
      <point x="155" y="692"/>
      <point x="150" y="681"/>
      <point x="147" y="667" type="curve"/>
      <point x="138" y="634"/>
      <point x="140" y="608"/>
      <point x="153" y="591" type="curve" smooth="yes"/>
      <point x="168" y="572"/>
      <point x="192" y="567"/>
      <point x="254" y="567" type="curve" smooth="yes"/>
      <point x="525" y="567" type="line"/>
      <point x="534" y="584"/>
      <point x="540" y="602"/>
      <point x="544" y="618" type="curve" smooth="yes"/>
      <point x="556" y="664"/>
      <point x="557" y="700"/>
      <point x="509" y="700" type="curve" smooth="yes"/>
    </contour>
    <contour>
      <point x="20" y="133" type="line"/>
      <point x="12" y="119"/>
      <point x="6" y="103"/>
      <point x="2" y="86" type="curve"/>
      <point x="-5" y="59"/>
      <point x="-8" y="32"/>
      <point x="4" y="16" type="curve" smooth="yes"/>
      <point x="13" y="4"/>
      <point x="23" y="0"/>
      <point x="57" y="0" type="curve" smooth="yes"/>
      <point x="384" y="0" type="line"/>
      <point x="390" y="13"/>
      <point x="397" y="30"/>
      <point x="402" y="50" type="curve" smooth="yes"/>
      <point x="414" y="97"/>
      <point x="415" y="133"/>
      <point x="368" y="133" type="curve" smooth="yes"/>
    </contour>
    <contour>
      <point x="363" y="711" type="move" name="top"/>
    </contour>
    <contour>
      <point x="384" y="-1" type="move" name="ogonek"/>
    </contour>
    <contour>
      <point x="185" y="-1" type="move" name="bottom"/>
    </contour>
  </outline>
</glyph>
<glyph name="J" format="1">
  <advance width="500"/>
  <unicode hex="004A"/>
  <outline>
    <contour>
      <point x="185" y="700" type="line"/>
      <point x="180" y="692"/>
      <point x="176" y="681"/>
      <point x="173" y="668" type="curve" smooth="yes"/>
      <point x="164" y="634"/>
      <point x="166" y="608"/>
      <point x="179" y="590" type="curve" smooth="yes"/>
      <point x="193" y="572"/>
      <point x="214" y="567"/>
      <point x="271" y="567" type="curve" smooth="yes"/>
      <point x="460" y="567" type="line"/>
      <point x="485" y="664"/>
      <point x="471" y="700"/>
      <point x="427" y="700" type="curve"/>
    </contour>
    <contour>
      <point x="427" y="177" type="curve" smooth="yes"/>
      <point x="546" y="652" type="line" smooth="yes"/>
      <point x="553" y="681"/>
      <point x="525" y="700"/>
      <point x="447" y="700" type="curve" smooth="yes"/>
      <point x="417" y="700" type="line"/>
      <point x="299" y="230" type="line" smooth="yes"/>
      <point x="277" y="141"/>
      <point x="254" y="100"/>
      <point x="202" y="56" type="curve"/>
      <point x="276" y="18"/>
      <point x="398" y="61"/>
    </contour>
    <contour>
      <point x="185" y="113" type="curve" smooth="yes"/>
      <point x="111" y="113"/>
      <point x="81" y="128"/>
      <point x="26" y="170" type="curve"/>
      <point x="22" y="170" type="line"/>
      <point x="14" y="154"/>
      <point x="7" y="137"/>
      <point x="3" y="120" type="curve"/>
      <point x="-8" y="61"/>
      <point x="-1" y="44"/>
      <point x="12" y="28" type="curve" smooth="yes"/>
      <point x="37" y="-1"/>
      <point x="86" y="-20"/>
      <point x="157" y="-20" type="curve" smooth="yes"/>
      <point x="163" y="-20" type="line" smooth="yes"/>
      <point x="297" y="-20"/>
      <point x="397" y="57"/>
      <point x="427" y="177" type="curve"/>
      <point x="434" y="208"/>
      <point x="432" y="272"/>
      <point x="366" y="300" type="curve"/>
      <point x="334" y="172"/>
      <point x="284" y="113"/>
    </contour>
    <contour>
      <point x="371" y="711" type="move" name="top"/>
    </contour>
  </outline>
</glyph>
<glyph name="K" format="1">
  <advance width="600"/>
  <unicode hex="004B"/>
  <outline>
    <contour>
      <point x="181" y="705" type="curve"/>
      <point x="181" y="670"/>
      <point x="176" y="631"/>
      <point x="166" y="592" type="curve" smooth="yes"/>
      <point x="30" y="49" type="line" smooth="yes"/>
      <point x="19" y="4"/>
      <point x="62" y="-10"/>
      <point x="124" y="-10" type="curve" smooth="yes"/>
      <point x="139" y="-10"/>
      <point x="149" y="-9"/>
      <point x="157" y="-8" type="curve"/>
      <point x="321" y="651" type="line" smooth="yes"/>
      <point x="326" y="670"/>
      <point x="325" y="682"/>
      <point x="316" y="692" type="curve" smooth="yes"/>
      <point x="302" y="705"/>
      <point x="269" y="710"/>
      <point x="227" y="710" type="curve" smooth="yes"/>
      <point x="211" y="710"/>
      <point x="198" y="709"/>
    </contour>
    <contour>
      <point x="555" y="710" type="curve"/>
      <point x="533" y="710" type="line"/>
      <point x="447" y="482"/>
      <point x="281" y="352"/>
      <point x="133" y="304" type="curve"/>
      <point x="119" y="251"/>
      <point x="135" y="211"/>
      <point x="159" y="215" type="curve"/>
      <point x="288" y="242"/>
      <point x="493" y="371"/>
      <point x="589" y="514" type="curve" smooth="yes"/>
      <point x="636" y="582"/>
      <point x="649" y="615"/>
      <point x="659" y="651" type="curve" smooth="yes"/>
      <point x="669" y="693"/>
      <point x="625" y="710"/>
    </contour>
    <contour>
      <point x="367" y="372" type="line"/>
      <point x="275" y="327"/>
      <point x="256" y="299"/>
      <point x="263" y="273" type="curve" smooth="yes"/>
      <point x="329" y="71" type="line" smooth="yes"/>
      <point x="350" y="3"/>
      <point x="381" y="-20"/>
      <point x="429" y="-20" type="curve" smooth="yes"/>
      <point x="434" y="-20" type="line" smooth="yes"/>
      <point x="479" y="-20"/>
      <point x="506" y="9"/>
      <point x="522" y="72" type="curve" smooth="yes"/>
      <point x="529" y="98"/>
      <point x="531" y="116"/>
      <point x="532" y="135" type="curve"/>
      <point x="528" y="135" type="line"/>
      <point x="513" y="127"/>
      <point x="503" y="124"/>
      <point x="486" y="124" type="curve" smooth="yes"/>
      <point x="458" y="124"/>
      <point x="443" y="142"/>
      <point x="431" y="179" type="curve" smooth="yes"/>
    </contour>
    <contour>
      <point x="255" y="-1" type="move" name="bottom"/>
    </contour>
  </outline>
</glyph>
<glyph name="L" format="1">
  <advance width="550"/>
  <unicode hex="004C"/>
  <outline>
    <contour>
      <point x="160" y="64" type="curve"/>
      <point x="305" y="642" type="line" smooth="yes"/>
      <point x="311" y="666"/>
      <point x="311" y="679"/>
      <point x="302" y="690" type="curve" smooth="yes"/>
      <point x="292" y="705"/>
      <point x="271" y="710"/>
      <point x="227" y="710" type="curve" smooth="yes"/>
      <point x="206" y="710"/>
      <point x="189" y="708"/>
      <point x="167" y="704" type="curve"/>
      <point x="167" y="669"/>
      <point x="161" y="632"/>
      <point x="151" y="592" type="curve" smooth="yes"/>
      <point x="34" y="121" type="line" smooth="yes"/>
      <point x="24" y="83"/>
      <point x="72" y="64"/>
    </contour>
    <contour>
      <point x="37" y="133" type="line"/>
      <point x="32" y="116" type="line" smooth="yes"/>
      <point x="19" y="64"/>
      <point x="55" y="0"/>
      <point x="98" y="0" type="curve" smooth="yes"/>
      <point x="442" y="0" type="line"/>
      <point x="449" y="13"/>
      <point x="455" y="30"/>
      <point x="460" y="50" type="curve" smooth="yes"/>
      <point x="474" y="109"/>
      <point x="464" y="133"/>
      <point x="425" y="133" type="curve" smooth="yes"/>
    </contour>
    <contour>
      <point x="472" y="551" type="move" name="caronslovak"/>
    </contour>
    <contour>
      <point x="253" y="711" type="move" name="top"/>
    </contour>
    <contour>
      <point x="469" y="400" type="move" name="dot"/>
    </contour>
    <contour>
      <point x="219" y="-1" type="move" name="bottom"/>
    </contour>
  </outline>
</glyph>
<glyph name="M" format="1">
  <advance width="800"/>
  <unicode hex="004D"/>
  <outline>
    <contour>
      <point x="127" y="-8" type="curve"/>
      <point x="135" y="42"/>
      <point x="146" y="90"/>
      <point x="158" y="139" type="curve" smooth="yes"/>
      <point x="198" y="298"/>
      <point x="259" y="472"/>
      <point x="334" y="639" type="curve" smooth="yes"/>
      <point x="344" y="661"/>
      <point x="339" y="680"/>
      <point x="332" y="690" type="curve" smooth="yes"/>
      <point x="321" y="705"/>
      <point x="300" y="710"/>
      <point x="255" y="710" type="curve" smooth="yes"/>
      <point x="234" y="710"/>
      <point x="216" y="708"/>
      <point x="195" y="704" type="curve"/>
      <point x="194" y="667"/>
      <point x="189" y="636"/>
      <point x="173" y="594" type="curve" smooth="yes"/>
      <point x="106" y="412"/>
      <point x="43" y="233"/>
      <point x="-3" y="49" type="curve" smooth="yes"/>
      <point x="-6" y="35"/>
      <point x="-5" y="24"/>
      <point x="2" y="15" type="curve" smooth="yes"/>
      <point x="15" y="-2"/>
      <point x="47" y="-10"/>
      <point x="94" y="-10" type="curve" smooth="yes"/>
      <point x="109" y="-10"/>
      <point x="120" y="-9"/>
    </contour>
    <contour>
      <point x="694" y="-4" type="curve"/>
      <point x="694" y="33"/>
      <point x="700" y="71"/>
      <point x="710" y="110" type="curve" smooth="yes"/>
      <point x="755" y="294"/>
      <point x="780" y="473"/>
      <point x="798" y="648" type="curve"/>
      <point x="799" y="662"/>
      <point x="797" y="673"/>
      <point x="790" y="682" type="curve" smooth="yes"/>
      <point x="776" y="700"/>
      <point x="731" y="710"/>
      <point x="673" y="710" type="curve" smooth="yes"/>
      <point x="670" y="710" type="line"/>
      <point x="669" y="682"/>
      <point x="664" y="654"/>
      <point x="661" y="624" type="curve"/>
      <point x="649" y="480"/>
      <point x="623" y="320"/>
      <point x="589" y="178" type="curve" smooth="yes"/>
      <point x="578" y="136"/>
      <point x="567" y="96"/>
      <point x="555" y="57" type="curve" smooth="yes"/>
      <point x="548" y="31"/>
      <point x="550" y="20"/>
      <point x="558" y="10" type="curve" smooth="yes"/>
      <point x="569" y="-5"/>
      <point x="589" y="-10"/>
      <point x="633" y="-10" type="curve" smooth="yes"/>
      <point x="655" y="-10"/>
      <point x="672" y="-8"/>
    </contour>
    <contour>
      <point x="395" y="663" type="curve" smooth="yes"/>
      <point x="397" y="690"/>
      <point x="357" y="710"/>
      <point x="266" y="710" type="curve"/>
      <point x="256" y="710" type="line"/>
      <point x="276" y="679"/>
      <point x="290" y="636"/>
      <point x="288" y="611" type="curve" smooth="yes"/>
      <point x="251" y="320"/>
      <point x="301" y="158"/>
      <point x="318" y="135" type="curve"/>
      <point x="332" y="116"/>
      <point x="340" y="112"/>
      <point x="364" y="112" type="curve" smooth="yes"/>
      <point x="394" y="112"/>
      <point x="416" y="134"/>
      <point x="428" y="185" type="curve"/>
      <point x="386" y="333"/>
      <point x="382" y="440"/>
    </contour>
    <contour>
      <point x="612" y="704" type="curve"/>
      <point x="514" y="470"/>
      <point x="431" y="339"/>
      <point x="334" y="216" type="curve"/>
      <point x="309" y="184"/>
      <point x="327" y="112"/>
      <point x="364" y="112" type="curve"/>
      <point x="400" y="112" type="line"/>
      <point x="531" y="268"/>
      <point x="675" y="542"/>
      <point x="705" y="661" type="curve" smooth="yes"/>
      <point x="713" y="692"/>
      <point x="702" y="710"/>
      <point x="670" y="710" type="curve" smooth="yes"/>
      <point x="651" y="710"/>
      <point x="631" y="708"/>
    </contour>
  </outline>
</glyph>
<glyph name="N" format="1">
  <advance width="700"/>
  <unicode hex="004E"/>
  <outline>
    <contour>
      <point x="145" y="-5" type="curve"/>
      <point x="195" y="195" type="line"/>
      <point x="267" y="482"/>
      <point x="290" y="663"/>
      <point x="266" y="695" type="curve" smooth="yes"/>
      <point x="261" y="702"/>
      <point x="250" y="710"/>
      <point x="242" y="710" type="curve"/>
      <point x="220" y="710"/>
      <point x="203" y="708"/>
      <point x="177" y="702" type="curve"/>
      <point x="176" y="666"/>
      <point x="171" y="629"/>
      <point x="161" y="592" type="curve" smooth="yes"/>
      <point x="26" y="49" type="line"/>
      <point x="15" y="6"/>
      <point x="64" y="-9"/>
      <point x="102" y="-9" type="curve"/>
      <point x="120" y="-9"/>
      <point x="131" y="-9"/>
    </contour>
    <contour>
      <point x="560" y="-10" type="line"/>
      <point x="727" y="657" type="line"/>
      <point x="736" y="693"/>
      <point x="692" y="710"/>
      <point x="630" y="710" type="curve"/>
      <point x="608" y="710" type="line"/>
      <point x="530" y="398" type="line"/>
      <point x="478" y="189"/>
      <point x="463" y="46"/>
      <point x="485" y="17" type="curve" smooth="yes"/>
      <point x="498" y="-2"/>
      <point x="521" y="-10"/>
      <point x="538" y="-10" type="curve"/>
    </contour>
    <contour>
      <point x="242" y="710" type="line"/>
      <point x="258" y="684"/>
      <point x="255" y="635"/>
      <point x="253" y="592" type="curve"/>
      <point x="243" y="329"/>
      <point x="358" y="125"/>
      <point x="430" y="29" type="curve"/>
      <point x="450" y="3"/>
      <point x="490" y="-10"/>
      <point x="538" y="-10" type="curve" smooth="yes"/>
      <point x="542" y="-10"/>
      <point x="542" y="-10"/>
      <point x="546" y="-10" type="curve"/>
      <point x="551" y="-10"/>
      <point x="560" y="12"/>
      <point x="561" y="76" type="curve"/>
      <point x="419" y="250"/>
      <point x="358" y="438"/>
      <point x="344" y="670" type="curve"/>
      <point x="343" y="696"/>
      <point x="295" y="710"/>
      <point x="244" y="710" type="curve"/>
    </contour>
    <contour>
      <point x="459" y="711" type="move" name="top"/>
    </contour>
    <contour>
      <point x="281" y="-1" type="move" name="bottom"/>
    </contour>
  </outline>
</glyph>
<glyph name="O" format="1">
  <advance width="650"/>
  <unicode hex="004F"/>
  <outline>
    <contour>
      <point x="425" y="720" type="curve" smooth="yes"/>
      <point x="255" y="720"/>
      <point x="147" y="617"/>
      <point x="86" y="375" type="curve" smooth="yes"/>
      <point x="80" y="353" type="line" smooth="yes"/>
      <point x="23" y="126"/>
      <point x="90" y="-20"/>
      <point x="268" y="-20" type="curve" smooth="yes"/>
      <point x="308" y="-20"/>
      <point x="336" y="22"/>
      <point x="352" y="83" type="curve"/>
      <point x="198" y="83"/>
      <point x="168" y="173"/>
      <point x="207" y="330" type="curve" smooth="yes"/>
      <point x="213" y="352" type="line" smooth="yes"/>
      <point x="261" y="545"/>
      <point x="325" y="588"/>
      <point x="404" y="588" type="curve" smooth="yes"/>
      <point x="458" y="588"/>
      <point x="490" y="571"/>
      <point x="523" y="547" type="curve"/>
      <point x="579" y="592"/>
      <point x="509" y="720"/>
    </contour>
    <contour>
      <point x="268" y="-20" type="curve" smooth="yes"/>
      <point x="436" y="-20"/>
      <point x="550" y="85"/>
      <point x="610" y="327" type="curve" smooth="yes"/>
      <point x="616" y="348" type="line" smooth="yes"/>
      <point x="672" y="574"/>
      <point x="602" y="720"/>
      <point x="425" y="720" type="curve" smooth="yes"/>
      <point x="385" y="720"/>
      <point x="357" y="678"/>
      <point x="341" y="617" type="curve"/>
      <point x="495" y="617"/>
      <point x="525" y="515"/>
      <point x="487" y="366" type="curve" smooth="yes"/>
      <point x="482" y="345" type="line" smooth="yes"/>
      <point x="436" y="160"/>
      <point x="368" y="112"/>
      <point x="289" y="112" type="curve" smooth="yes"/>
      <point x="235" y="112"/>
      <point x="202" y="126"/>
      <point x="171" y="154" type="curve"/>
      <point x="114" y="109"/>
      <point x="185" y="-20"/>
    </contour>
    <contour>
      <point x="437" y="711" type="move" name="top"/>
    </contour>
    <contour>
      <point x="361" y="-1" type="move" name="ogonek"/>
    </contour>
    <contour>
      <point x="259" y="-1" type="move" name="bottom"/>
    </contour>
  </outline>
</glyph>
<glyph name="P" format="1">
  <advance width="600"/>
  <unicode hex="0050"/>
  <outline>
    <contour>
      <point x="164" y="-4" type="curve"/>
      <point x="164" y="32"/>
      <point x="170" y="69"/>
      <point x="180" y="108" type="curve" smooth="yes"/>
      <point x="283" y="519" type="line" smooth="yes"/>
      <point x="301" y="595"/>
      <point x="264" y="626"/>
      <point x="169" y="626" type="curve"/>
      <point x="26" y="58" type="line" smooth="yes"/>
      <point x="20" y="34"/>
      <point x="21" y="21"/>
      <point x="29" y="10" type="curve" smooth="yes"/>
      <point x="39" y="-5"/>
      <point x="59" y="-10"/>
      <point x="103" y="-10" type="curve" smooth="yes"/>
      <point x="125" y="-10"/>
      <point x="143" y="-8"/>
    </contour>
    <contour>
      <point x="137" y="700" type="curve"/>
      <point x="131" y="685"/>
      <point x="126" y="671"/>
      <point x="121" y="651" type="curve"/>
      <point x="112" y="615"/>
      <point x="112" y="594"/>
      <point x="122" y="580" type="curve" smooth="yes"/>
      <point x="126" y="573"/>
      <point x="132" y="572"/>
      <point x="141" y="572" type="curve" smooth="yes"/>
      <point x="151" y="572"/>
      <point x="167" y="575"/>
      <point x="202" y="580" type="curve" smooth="yes"/>
      <point x="247" y="586"/>
      <point x="298" y="592"/>
      <point x="362" y="592" type="curve" smooth="yes"/>
      <point x="448" y="592"/>
      <point x="476" y="578"/>
      <point x="514" y="538" type="curve"/>
      <point x="585" y="588"/>
      <point x="519" y="720"/>
      <point x="411" y="720" type="curve" smooth="yes"/>
      <point x="324" y="720"/>
      <point x="229" y="714"/>
    </contour>
    <contour>
      <point x="598" y="480" type="curve" smooth="yes"/>
      <point x="604" y="503" type="line" smooth="yes"/>
      <point x="635" y="630"/>
      <point x="559" y="720"/>
      <point x="411" y="720" type="curve"/>
      <point x="375" y="720"/>
      <point x="357" y="698"/>
      <point x="348" y="661" type="curve"/>
      <point x="462" y="646"/>
      <point x="489" y="603"/>
      <point x="466" y="508" type="curve" smooth="yes"/>
      <point x="460" y="487" type="line" smooth="yes"/>
      <point x="426" y="350"/>
      <point x="355" y="289"/>
      <point x="276" y="289" type="curve" smooth="yes"/>
      <point x="243" y="289"/>
      <point x="232" y="291"/>
      <point x="211" y="297" type="curve"/>
      <point x="202" y="289"/>
      <point x="198" y="282"/>
      <point x="195" y="269" type="curve" smooth="yes"/>
      <point x="184" y="229"/>
      <point x="234" y="167"/>
      <point x="290" y="167" type="curve" smooth="yes"/>
      <point x="293" y="167" type="line" smooth="yes"/>
      <point x="422" y="167"/>
      <point x="541" y="254"/>
    </contour>
  </outline>
</glyph>
<glyph name="Q" format="1">
  <advance width="650"/>
  <unicode hex="0051"/>
  <outline>
    <contour>
      <point x="425" y="720" type="curve" smooth="yes"/>
      <point x="255" y="720"/>
      <point x="147" y="617"/>
      <point x="86" y="375" type="curve" smooth="yes"/>
      <point x="80" y="353" type="line" smooth="yes"/>
      <point x="23" y="126"/>
      <point x="90" y="-20"/>
      <point x="268" y="-20" type="curve" smooth="yes"/>
      <point x="308" y="-20"/>
      <point x="336" y="22"/>
      <point x="352" y="83" type="curve"/>
      <point x="199" y="83"/>
      <point x="168" y="173"/>
      <point x="207" y="330" type="curve" smooth="yes"/>
      <point x="213" y="352" type="line" smooth="yes"/>
      <point x="261" y="545"/>
      <point x="325" y="588"/>
      <point x="404" y="588" type="curve" smooth="yes"/>
      <point x="458" y="588"/>
      <point x="490" y="571"/>
      <point x="523" y="547" type="curve"/>
      <point x="579" y="592"/>
      <point x="509" y="720"/>
    </contour>
    <contour>
      <point x="268" y="-20" type="curve" smooth="yes"/>
      <point x="436" y="-20"/>
      <point x="550" y="85"/>
      <point x="610" y="327" type="curve" smooth="yes"/>
      <point x="616" y="348" type="line" smooth="yes"/>
      <point x="672" y="574"/>
      <point x="602" y="720"/>
      <point x="425" y="720" type="curve" smooth="yes"/>
      <point x="385" y="720"/>
      <point x="357" y="678"/>
      <point x="342" y="617" type="curve"/>
      <point x="495" y="617"/>
      <point x="525" y="515"/>
      <point x="487" y="366" type="curve" smooth="yes"/>
      <point x="482" y="345" type="line" smooth="yes"/>
      <point x="436" y="160"/>
      <point x="368" y="112"/>
      <point x="289" y="112" type="curve" smooth="yes"/>
      <point x="235" y="112"/>
      <point x="202" y="126"/>
      <point x="171" y="154" type="curve"/>
      <point x="114" y="109"/>
      <point x="185" y="-20"/>
    </contour>
    <contour>
      <point x="421" y="129" type="line"/>
      <point x="328" y="85"/>
      <point x="306" y="56"/>
      <point x="313" y="30" type="curve" smooth="yes"/>
      <point x="346" y="-77" type="line" smooth="yes"/>
      <point x="366" y="-144"/>
      <point x="395" y="-181"/>
      <point x="446" y="-181" type="curve" smooth="yes"/>
      <point x="450" y="-181" type="line" smooth="yes"/>
      <point x="497" y="-181"/>
      <point x="534" y="-147"/>
      <point x="552" y="-78" type="curve" smooth="yes"/>
      <point x="559" y="-49"/>
      <point x="561" y="-31"/>
      <point x="561" y="-12" type="curve"/>
      <point x="557" y="-12" type="line"/>
      <point x="543" y="-20"/>
      <point x="534" y="-23"/>
      <point x="517" y="-23" type="curve" smooth="yes"/>
      <point x="484" y="-23"/>
      <point x="471" y="-12"/>
      <point x="461" y="17" type="curve" smooth="yes"/>
    </contour>
  </outline>
</glyph>
<glyph name="R" format="1">
  <advance width="600"/>
  <unicode hex="0052"/>
  <outline>
    <contour>
      <point x="164" y="-4" type="curve"/>
      <point x="164" y="32"/>
      <point x="170" y="69"/>
      <point x="180" y="108" type="curve" smooth="yes"/>
      <point x="283" y="519" type="line" smooth="yes"/>
      <point x="301" y="595"/>
      <point x="264" y="626"/>
      <point x="169" y="626" type="curve"/>
      <point x="26" y="58" type="line" smooth="yes"/>
      <point x="20" y="34"/>
      <point x="21" y="21"/>
      <point x="29" y="10" type="curve" smooth="yes"/>
      <point x="39" y="-5"/>
      <point x="59" y="-10"/>
      <point x="103" y="-10" type="curve" smooth="yes"/>
      <point x="125" y="-10"/>
      <point x="143" y="-8"/>
    </contour>
    <contour>
      <point x="137" y="700" type="curve"/>
      <point x="131" y="685"/>
      <point x="125" y="670"/>
      <point x="121" y="651" type="curve"/>
      <point x="112" y="616"/>
      <point x="112" y="594"/>
      <point x="122" y="580" type="curve" smooth="yes"/>
      <point x="126" y="573"/>
      <point x="132" y="572"/>
      <point x="141" y="572" type="curve" smooth="yes"/>
      <point x="151" y="572"/>
      <point x="167" y="575"/>
      <point x="202" y="580" type="curve" smooth="yes"/>
      <point x="257" y="587"/>
      <point x="308" y="592"/>
      <point x="362" y="592" type="curve" smooth="yes"/>
      <point x="435" y="592"/>
      <point x="480" y="578"/>
      <point x="521" y="528" type="curve"/>
      <point x="580" y="581"/>
      <point x="541" y="720"/>
      <point x="393" y="720" type="curve" smooth="yes"/>
      <point x="310" y="720"/>
      <point x="224" y="714"/>
    </contour>
    <contour>
      <point x="590" y="483" type="curve" smooth="yes"/>
      <point x="595" y="505" type="line" smooth="yes"/>
      <point x="620" y="604"/>
      <point x="583" y="720"/>
      <point x="393" y="720" type="curve"/>
      <point x="367" y="720"/>
      <point x="346" y="695"/>
      <point x="338" y="662" type="curve"/>
      <point x="457" y="635"/>
      <point x="481" y="601"/>
      <point x="456" y="504" type="curve" smooth="yes"/>
      <point x="451" y="483" type="line" smooth="yes"/>
      <point x="422" y="365"/>
      <point x="347" y="310"/>
      <point x="261" y="310" type="curve" smooth="yes"/>
      <point x="222" y="310"/>
      <point x="213" y="313"/>
      <point x="196" y="325" type="curve"/>
      <point x="182" y="314"/>
      <point x="174" y="294"/>
      <point x="170" y="278" type="curve" smooth="yes"/>
      <point x="158" y="232"/>
      <point x="194" y="188"/>
      <point x="243" y="188" type="curve" smooth="yes"/>
      <point x="249" y="188" type="line" smooth="yes"/>
      <point x="407" y="188"/>
      <point x="543" y="297"/>
    </contour>
    <contour>
      <point x="380" y="292" type="line"/>
      <point x="293" y="251"/>
      <point x="261" y="227"/>
      <point x="269" y="203" type="curve" smooth="yes"/>
      <point x="319" y="71" type="line" smooth="yes"/>
      <point x="343" y="4"/>
      <point x="374" y="-20"/>
      <point x="425" y="-20" type="curve" smooth="yes"/>
      <point x="430" y="-20" type="line" smooth="yes"/>
      <point x="470" y="-20"/>
      <point x="502" y="7"/>
      <point x="518" y="73" type="curve" smooth="yes"/>
      <point x="524" y="93"/>
      <point x="526" y="110"/>
      <point x="526" y="129" type="curve"/>
      <point x="522" y="129" type="line"/>
      <point x="508" y="121"/>
      <point x="499" y="118"/>
      <point x="482" y="118" type="curve" smooth="yes"/>
      <point x="454" y="118"/>
      <point x="436" y="132"/>
      <point x="424" y="169" type="curve" smooth="yes"/>
    </contour>
    <contour>
      <point x="408" y="711" type="move" name="top"/>
    </contour>
    <contour>
      <point x="230" y="-1" type="move" name="bottom"/>
    </contour>
  </outline>
</glyph>
<glyph name="S" format="1">
  <advance width="600"/>
  <unicode hex="0053"/>
  <outline>
    <contour>
      <point x="486" y="720" type="curve" smooth="yes"/>
      <point x="324" y="720"/>
      <point x="160" y="609"/>
      <point x="127" y="476" type="curve" smooth="yes"/>
      <point x="123" y="461" type="line" smooth="yes"/>
      <point x="116" y="434"/>
      <point x="165" y="376"/>
      <point x="240" y="375" type="curve"/>
      <point x="238" y="398"/>
      <point x="244" y="424"/>
      <point x="249" y="446" type="curve" smooth="yes"/>
      <point x="268" y="518"/>
      <point x="372" y="592"/>
      <point x="453" y="592" type="curve" smooth="yes"/>
      <point x="510" y="592"/>
      <point x="530" y="560"/>
      <point x="517" y="510" type="curve"/>
      <point x="558" y="510"/>
      <point x="587" y="540"/>
      <point x="592" y="556" type="curve" smooth="yes"/>
      <point x="606" y="614"/>
      <point x="601" y="647"/>
      <point x="579" y="676" type="curve" smooth="yes"/>
      <point x="558" y="703"/>
      <point x="530" y="720"/>
    </contour>
    <contour>
      <point x="401" y="326" type="curve" smooth="yes"/>
      <point x="318" y="360" type="line" smooth="yes"/>
      <point x="251" y="386"/>
      <point x="241" y="413"/>
      <point x="249" y="446" type="curve" smooth="yes"/>
      <point x="257" y="475"/>
      <point x="264" y="494"/>
      <point x="277" y="517" type="curve"/>
      <point x="200" y="514"/>
      <point x="137" y="519"/>
      <point x="123" y="461" type="curve" smooth="yes"/>
      <point x="108" y="399"/>
      <point x="116" y="320"/>
      <point x="254" y="264" type="curve" smooth="yes"/>
      <point x="336" y="230" type="line" smooth="yes"/>
      <point x="397" y="206"/>
      <point x="405" y="173"/>
      <point x="387" y="105" type="curve" smooth="yes"/>
      <point x="386" y="102"/>
      <point x="385" y="98"/>
      <point x="383" y="94" type="curve"/>
      <point x="435" y="95"/>
      <point x="505" y="113"/>
      <point x="514" y="148" type="curve"/>
      <point x="527" y="200"/>
      <point x="517" y="280"/>
    </contour>
    <contour>
      <point x="240" y="-19" type="curve" smooth="yes"/>
      <point x="393" y="-19"/>
      <point x="483" y="26"/>
      <point x="510" y="133" type="curve" smooth="yes"/>
      <point x="514" y="148" type="line" smooth="yes"/>
      <point x="518" y="164"/>
      <point x="483" y="213"/>
      <point x="450" y="215" type="curve"/>
      <point x="449" y="211"/>
      <point x="448" y="208"/>
      <point x="447" y="203" type="curve" smooth="yes"/>
      <point x="433" y="145"/>
      <point x="355" y="110"/>
      <point x="271" y="110" type="curve" smooth="yes"/>
      <point x="155" y="110"/>
      <point x="91" y="140"/>
      <point x="47" y="197" type="curve"/>
      <point x="43" y="197" type="line"/>
      <point x="36" y="183"/>
      <point x="28" y="164"/>
      <point x="22" y="140" type="curve" smooth="yes"/>
      <point x="10" y="92"/>
      <point x="16" y="67"/>
      <point x="30" y="47" type="curve" smooth="yes"/>
      <point x="56" y="14"/>
      <point x="133" y="-19"/>
    </contour>
    <contour>
      <point x="562" y="439" type="curve"/>
      <point x="592" y="556" type="line" smooth="yes"/>
      <point x="609" y="629"/>
      <point x="580" y="648"/>
      <point x="514" y="644" type="curve"/>
      <point x="480" y="596"/>
      <point x="456" y="546"/>
      <point x="448" y="514" type="curve" smooth="yes"/>
      <point x="443" y="492" type="line" smooth="yes"/>
      <point x="439" y="475"/>
      <point x="440" y="461"/>
      <point x="447" y="452" type="curve" smooth="yes"/>
      <point x="456" y="440"/>
      <point x="474" y="433"/>
      <point x="511" y="433" type="curve" smooth="yes"/>
      <point x="531" y="433"/>
      <point x="548" y="435"/>
    </contour>
    <contour>
      <point x="427" y="711" type="move" name="top"/>
    </contour>
    <contour>
      <point x="232" y="-1" type="move" name="bottom"/>
    </contour>
  </outline>
</glyph>
<glyph name="T" format="1">
  <advance width="600"/>
  <unicode hex="0054"/>
  <outline>
    <contour>
      <point x="143" y="700" type="line"/>
      <point x="138" y="693"/>
      <point x="135" y="683"/>
      <point x="132" y="669" type="curve" smooth="yes"/>
      <point x="124" y="637"/>
      <point x="125" y="614"/>
      <point x="139" y="595" type="curve" smooth="yes"/>
      <point x="153" y="576"/>
      <point x="181" y="572"/>
      <point x="250" y="572" type="curve" smooth="yes"/>
      <point x="632" y="572" type="line"/>
      <point x="639" y="585"/>
      <point x="646" y="602"/>
      <point x="650" y="622" type="curve" smooth="yes"/>
      <point x="661" y="666"/>
      <point x="662" y="700"/>
      <point x="614" y="700" type="curve" smooth="yes"/>
    </contour>
    <contour>
      <point x="314" y="-4" type="curve"/>
      <point x="314" y="32"/>
      <point x="321" y="69"/>
      <point x="330" y="108" type="curve" smooth="yes"/>
      <point x="429" y="504" type="line" smooth="yes"/>
      <point x="448" y="580"/>
      <point x="419" y="605"/>
      <point x="313" y="605" type="curve"/>
      <point x="176" y="58" type="line" smooth="yes"/>
      <point x="170" y="34"/>
      <point x="171" y="21"/>
      <point x="179" y="10" type="curve" smooth="yes"/>
      <point x="190" y="-5"/>
      <point x="210" y="-10"/>
      <point x="253" y="-10" type="curve" smooth="yes"/>
      <point x="275" y="-10"/>
      <point x="293" y="-8"/>
    </contour>
    <contour>
      <point x="407" y="711" type="move" name="top"/>
    </contour>
    <contour>
      <point x="232" y="-1" type="move" name="bottom"/>
    </contour>
  </outline>
</glyph>
<glyph name="U" format="1">
  <advance width="650"/>
  <unicode hex="0055"/>
  <outline>
    <contour>
      <point x="165" y="703" type="curve"/>
      <point x="166" y="668"/>
      <point x="160" y="630"/>
      <point x="149" y="586" type="curve" smooth="yes"/>
      <point x="38" y="142" type="line"/>
      <point x="28" y="100"/>
      <point x="67" y="86"/>
      <point x="136" y="89" type="curve"/>
      <point x="215" y="293"/>
      <point x="262" y="408"/>
      <point x="297" y="548" type="curve"/>
      <point x="300" y="557" type="line"/>
      <point x="329" y="674"/>
      <point x="296" y="709"/>
      <point x="223" y="709" type="curve"/>
      <point x="202" y="709"/>
      <point x="186" y="707"/>
    </contour>
    <contour>
      <point x="144" y="-12" type="curve" smooth="yes"/>
      <point x="215" y="-12"/>
      <point x="327" y="36"/>
      <point x="407" y="129" type="curve" smooth="yes"/>
      <point x="455" y="189"/>
      <point x="474" y="205"/>
      <point x="446" y="276" type="curve"/>
      <point x="360" y="172"/>
      <point x="275" y="138"/>
      <point x="201" y="138" type="curve" smooth="yes"/>
      <point x="164" y="138"/>
      <point x="145" y="154"/>
      <point x="147" y="202" type="curve"/>
      <point x="116" y="199"/>
      <point x="46" y="173"/>
      <point x="38" y="142" type="curve" smooth="yes"/>
      <point x="20" y="70"/>
      <point x="73" y="-12"/>
    </contour>
    <contour>
      <point x="517" y="-7" type="curve"/>
      <point x="519" y="28"/>
      <point x="527" y="64"/>
      <point x="537" y="101" type="curve" smooth="yes"/>
      <point x="675" y="656" type="line" smooth="yes"/>
      <point x="685" y="693"/>
      <point x="654" y="709"/>
      <point x="587" y="709" type="curve" smooth="yes"/>
      <point x="573" y="709"/>
      <point x="559" y="708"/>
      <point x="546" y="704" type="curve"/>
      <point x="390" y="81" type="line" smooth="yes"/>
      <point x="383" y="50"/>
      <point x="385" y="32"/>
      <point x="398" y="15" type="curve" smooth="yes"/>
      <point x="410" y="-1"/>
      <point x="442" y="-10"/>
      <point x="477" y="-10" type="curve" smooth="yes"/>
      <point x="493" y="-10"/>
      <point x="503" y="-9"/>
    </contour>
    <contour>
      <point x="432" y="711" type="move" name="top"/>
    </contour>
    <contour>
      <point x="517" y="-9" type="move" name="ogonek"/>
    </contour>
    <contour>
      <point x="431" y="709" type="move" name="ring"/>
    </contour>
    <contour>
      <point x="254" y="-1" type="move" name="bottom"/>
    </contour>
  </outline>
</glyph>
<glyph name="V" format="1">
  <advance width="650"/>
  <unicode hex="0056"/>
  <outline>
    <contour>
      <point x="185" y="710" type="curve"/>
      <point x="163" y="710" type="line"/>
      <point x="86" y="354"/>
      <point x="99" y="154"/>
      <point x="189" y="33" type="curve"/>
      <point x="217" y="-4"/>
      <point x="246" y="-10"/>
      <point x="273" y="-10" type="curve"/>
      <point x="312" y="-10"/>
      <point x="336" y="12"/>
      <point x="365" y="67" type="curve"/>
      <point x="361" y="67"/>
      <point x="359" y="67"/>
      <point x="356" y="67" type="curve" smooth="yes"/>
      <point x="349" y="67"/>
      <point x="344" y="69"/>
      <point x="334" y="76" type="curve"/>
      <point x="236" y="170"/>
      <point x="212" y="282"/>
      <point x="290" y="665" type="curve"/>
      <point x="295" y="691"/>
      <point x="268" y="710"/>
    </contour>
    <contour>
      <point x="591" y="710" type="curve"/>
      <point x="570" y="710" type="line"/>
      <point x="450" y="327"/>
      <point x="384" y="198"/>
      <point x="242" y="98" type="curve"/>
      <point x="212" y="78"/>
      <point x="219" y="-10"/>
      <point x="273" y="-10" type="curve"/>
      <point x="311" y="-10" type="line"/>
      <point x="470" y="101"/>
      <point x="595" y="320"/>
      <point x="692" y="644" type="curve"/>
      <point x="704" y="682"/>
      <point x="655" y="710"/>
    </contour>
  </outline>
</glyph>
<glyph name="W" format="1">
  <advance width="900"/>
  <unicode hex="0057"/>
  <outline>
    <contour>
      <point x="153" y="710" type="curve"/>
      <point x="68" y="370"/>
      <point x="45" y="158"/>
      <point x="131" y="32" type="curve"/>
      <point x="150" y="4"/>
      <point x="173" y="-10"/>
      <point x="199" y="-10" type="curve"/>
      <point x="224" y="-10" type="line" smooth="yes"/>
      <point x="246" y="-10"/>
      <point x="257" y="18"/>
      <point x="268" y="61" type="curve"/>
      <point x="185" y="132"/>
      <point x="193" y="295"/>
      <point x="280" y="663" type="curve"/>
      <point x="282" y="673"/>
      <point x="280" y="676"/>
      <point x="276" y="682" type="curve" smooth="yes"/>
      <point x="262" y="701"/>
      <point x="217" y="710"/>
      <point x="175" y="710" type="curve"/>
      <point x="167" y="710"/>
      <point x="160" y="710"/>
    </contour>
    <contour>
      <point x="828" y="710" type="curve"/>
      <point x="733" y="355"/>
      <point x="660" y="189"/>
      <point x="537" y="98" type="curve"/>
      <point x="498" y="71"/>
      <point x="517" y="-10"/>
      <point x="570" y="-10" type="curve"/>
      <point x="608" y="-10" type="line"/>
      <point x="746" y="91"/>
      <point x="881" y="354"/>
      <point x="953" y="644" type="curve" smooth="yes"/>
      <point x="956" y="654"/>
      <point x="957" y="661"/>
      <point x="953" y="667" type="curve" smooth="yes"/>
      <point x="934" y="692"/>
      <point x="892" y="710"/>
      <point x="850" y="710" type="curve"/>
      <point x="843" y="710"/>
      <point x="835" y="710"/>
    </contour>
    <contour>
      <point x="510" y="622" type="curve"/>
      <point x="479" y="622" type="line"/>
      <point x="387" y="362"/>
      <point x="297" y="180"/>
      <point x="180" y="90" type="curve"/>
      <point x="147" y="66"/>
      <point x="162" y="-10"/>
      <point x="199" y="-10" type="curve"/>
      <point x="237" y="-10" type="line"/>
      <point x="358" y="85"/>
      <point x="469" y="279"/>
      <point x="560" y="536" type="curve" smooth="yes"/>
      <point x="575" y="579"/>
      <point x="550" y="622"/>
    </contour>
    <contour>
      <point x="516" y="622" type="curve"/>
      <point x="500" y="622" type="line"/>
      <point x="454" y="333"/>
      <point x="436" y="134"/>
      <point x="497" y="37" type="curve" smooth="yes"/>
      <point x="521" y="4"/>
      <point x="542" y="-10"/>
      <point x="570" y="-10" type="curve"/>
      <point x="594" y="-10" type="line"/>
      <point x="607" y="-10"/>
      <point x="617" y="24"/>
      <point x="626" y="61" type="curve"/>
      <point x="538" y="144"/>
      <point x="548" y="276"/>
      <point x="594" y="577" type="curve" smooth="yes"/>
      <point x="598" y="599"/>
      <point x="560" y="622"/>
    </contour>
    <contour>
      <point x="561" y="711" type="move" name="top"/>
    </contour>
  </outline>
</glyph>
<glyph name="X" format="1">
  <advance width="650"/>
  <unicode hex="0058"/>
  <outline>
    <contour>
      <point x="484" y="-9" type="curve" smooth="yes"/>
      <point x="511" y="-9"/>
      <point x="530" y="-6"/>
      <point x="550" y="-1" type="curve"/>
      <point x="494" y="77"/>
      <point x="435" y="201"/>
      <point x="386" y="329" type="curve" smooth="yes"/>
      <point x="381" y="344"/>
      <point x="376" y="359"/>
      <point x="371" y="374" type="curve" smooth="yes"/>
      <point x="332" y="480"/>
      <point x="302" y="585"/>
      <point x="290" y="663" type="curve" smooth="yes"/>
      <point x="283" y="699"/>
      <point x="251" y="709"/>
      <point x="151" y="709" type="curve" smooth="yes"/>
      <point x="129" y="709" type="line"/>
      <point x="154" y="593"/>
      <point x="205" y="438"/>
      <point x="259" y="297" type="curve" smooth="yes"/>
      <point x="265" y="284"/>
      <point x="270" y="270"/>
      <point x="275" y="256" type="curve" smooth="yes"/>
      <point x="312" y="169"/>
      <point x="350" y="90"/>
      <point x="384" y="36" type="curve" smooth="yes"/>
      <point x="403" y="2"/>
      <point x="428" y="-9"/>
    </contour>
    <contour>
      <point x="597" y="709" type="curve" smooth="yes"/>
      <point x="576" y="709" type="line"/>
      <point x="500" y="552"/>
      <point x="428" y="452"/>
      <point x="338" y="375" type="curve"/>
      <point x="292" y="334"/>
      <point x="326" y="277"/>
      <point x="389" y="278" type="curve"/>
      <point x="544" y="395"/>
      <point x="626" y="496"/>
      <point x="709" y="644" type="curve"/>
      <point x="717" y="658"/>
      <point x="718" y="672"/>
      <point x="711" y="679" type="curve" smooth="yes"/>
      <point x="687" y="702"/>
      <point x="638" y="709"/>
    </contour>
    <contour>
      <point x="80" y="-9" type="curve"/>
      <point x="101" y="-9" type="line"/>
      <point x="158" y="95"/>
      <point x="224" y="172"/>
      <point x="305" y="237" type="curve"/>
      <point x="342" y="268"/>
      <point x="324" y="347"/>
      <point x="273" y="354" type="curve"/>
      <point x="129" y="245"/>
      <point x="34" y="155"/>
      <point x="-36" y="61" type="curve" smooth="yes"/>
      <point x="-45" y="47"/>
      <point x="-44" y="33"/>
      <point x="-36" y="24" type="curve" smooth="yes"/>
      <point x="-11" y="0"/>
      <point x="26" y="-9"/>
    </contour>
  </outline>
</glyph>
<glyph name="Y" format="1">
  <advance width="600"/>
  <unicode hex="0059"/>
  <outline>
    <contour>
      <point x="157" y="710" type="line"/>
      <point x="123" y="470"/>
      <point x="137" y="332"/>
      <point x="208" y="236" type="curve"/>
      <point x="235" y="201"/>
      <point x="264" y="197"/>
      <point x="289" y="197" type="curve"/>
      <point x="329" y="197"/>
      <point x="350" y="210"/>
      <point x="366" y="277" type="curve"/>
      <point x="271" y="340"/>
      <point x="256" y="436"/>
      <point x="285" y="665" type="curve"/>
      <point x="289" y="691"/>
      <point x="263" y="710"/>
      <point x="179" y="710" type="curve" smooth="yes"/>
    </contour>
    <contour>
      <point x="518" y="710" type="line"/>
      <point x="435" y="474"/>
      <point x="379" y="383"/>
      <point x="253" y="295" type="curve"/>
      <point x="221" y="273"/>
      <point x="238" y="197"/>
      <point x="289" y="197" type="curve"/>
      <point x="335" y="197" type="line"/>
      <point x="470" y="302"/>
      <point x="572" y="446"/>
      <point x="642" y="644" type="curve"/>
      <point x="655" y="682"/>
      <point x="611" y="710"/>
      <point x="540" y="710" type="curve"/>
    </contour>
    <contour>
      <point x="313" y="-4" type="curve"/>
      <point x="314" y="32"/>
      <point x="320" y="69"/>
      <point x="330" y="108" type="curve" smooth="yes"/>
      <point x="365" y="251" type="line" smooth="yes"/>
      <point x="374" y="286"/>
      <point x="319" y="311"/>
      <point x="239" y="311" type="curve"/>
      <point x="176" y="58" type="line" smooth="yes"/>
      <point x="170" y="34"/>
      <point x="170" y="21"/>
      <point x="178" y="10" type="curve" smooth="yes"/>
      <point x="189" y="-5"/>
      <point x="209" y="-10"/>
      <point x="253" y="-10" type="curve" smooth="yes"/>
      <point x="275" y="-10"/>
      <point x="292" y="-8"/>
    </contour>
    <contour>
      <point x="410" y="712" type="move" name="top"/>
    </contour>
  </outline>
</glyph>
<glyph name="bracketleft" format="1">
  <advance width="400"/>
  <unicode hex="005B"/>
  <outline>
    <contour>
      <point x="142" y="642" type="curve" smooth="yes"/>
      <point x="-26" y="-31" type="line" smooth="yes"/>
      <point x="-38" y="-77"/>
      <point x="38" y="-86"/>
      <point x="101" y="-86" type="curve"/>
      <point x="297" y="695" type="line" smooth="yes"/>
      <point x="310" y="749"/>
      <point x="294" y="760"/>
      <point x="220" y="760" type="curve" smooth="yes"/>
      <point x="197" y="760"/>
      <point x="180" y="758"/>
      <point x="158" y="754" type="curve"/>
      <point x="158" y="718"/>
      <point x="152" y="681"/>
    </contour>
    <contour>
      <point x="446" y="627" type="line"/>
      <point x="453" y="640"/>
      <point x="459" y="656"/>
      <point x="464" y="675" type="curve" smooth="yes"/>
      <point x="469" y="694"/>
      <point x="474" y="732"/>
      <point x="461" y="749" type="curve" smooth="yes"/>
      <point x="454" y="758"/>
      <point x="448" y="760"/>
      <point x="433" y="760" type="curve" smooth="yes"/>
      <point x="220" y="760" type="line"/>
      <point x="198" y="672"/>
      <point x="232" y="627"/>
      <point x="338" y="627" type="curve"/>
    </contour>
    <contour>
      <point x="251" y="-161" type="line"/>
      <point x="257" y="-148"/>
      <point x="263" y="-131"/>
      <point x="268" y="-111" type="curve" smooth="yes"/>
      <point x="283" y="-52"/>
      <point x="273" y="-28"/>
      <point x="234" y="-28" type="curve" smooth="yes"/>
      <point x="-25" y="-28" type="line"/>
      <point x="-30" y="-45" type="line" smooth="yes"/>
      <point x="-43" y="-97"/>
      <point x="-7" y="-161"/>
      <point x="36" y="-161" type="curve" smooth="yes"/>
    </contour>
  </outline>
</glyph>
<glyph name="bracketright" format="1">
  <advance width="400"/>
  <unicode hex="005D"/>
  <outline>
    <contour>
      <point x="273" y="-43" type="curve" smooth="yes"/>
      <point x="441" y="630" type="line" smooth="yes"/>
      <point x="453" y="676"/>
      <point x="377" y="685"/>
      <point x="314" y="685" type="curve"/>
      <point x="119" y="-96" type="line" smooth="yes"/>
      <point x="105" y="-150"/>
      <point x="122" y="-161"/>
      <point x="196" y="-161" type="curve" smooth="yes"/>
      <point x="218" y="-161"/>
      <point x="236" y="-159"/>
      <point x="257" y="-155" type="curve"/>
      <point x="258" y="-119"/>
      <point x="263" y="-82"/>
    </contour>
    <contour>
      <point x="-30" y="-28" type="line"/>
      <point x="-38" y="-41"/>
      <point x="-44" y="-57"/>
      <point x="-48" y="-76" type="curve" smooth="yes"/>
      <point x="-53" y="-95"/>
      <point x="-58" y="-133"/>
      <point x="-45" y="-150" type="curve" smooth="yes"/>
      <point x="-39" y="-159"/>
      <point x="-33" y="-161"/>
      <point x="-18" y="-161" type="curve" smooth="yes"/>
      <point x="196" y="-161" type="line"/>
      <point x="218" y="-73"/>
      <point x="183" y="-28"/>
      <point x="77" y="-28" type="curve"/>
    </contour>
    <contour>
      <point x="165" y="760" type="line"/>
      <point x="158" y="747"/>
      <point x="152" y="730"/>
      <point x="147" y="710" type="curve" smooth="yes"/>
      <point x="132" y="651"/>
      <point x="143" y="627"/>
      <point x="182" y="627" type="curve" smooth="yes"/>
      <point x="441" y="627" type="line"/>
      <point x="445" y="644" type="line" smooth="yes"/>
      <point x="458" y="696"/>
      <point x="422" y="760"/>
      <point x="379" y="760" type="curve" smooth="yes"/>
    </contour>
  </outline>
</glyph>
<glyph name="underscore" format="1">
  <advance width="600"/>
  <unicode hex="005F"/>
  <outline>
    <contour>
      <point x="-30" y="-59" type="line"/>
      <point x="-32" y="-64"/>
      <point x="-33" y="-70"/>
      <point x="-35" y="-76" type="curve" smooth="yes"/>
      <point x="-47" y="-128"/>
      <point x="-48" y="-158"/>
      <point x="-36" y="-174" type="curve" smooth="yes"/>
      <point x="-26" y="-187"/>
      <point x="-10" y="-191"/>
      <point x="29" y="-191" type="curve"/>
      <point x="437" y="-191" type="line"/>
      <point x="445" y="-174"/>
      <point x="453" y="-154"/>
      <point x="457" y="-138" type="curve" smooth="yes"/>
      <point x="471" y="-79"/>
      <point x="461" y="-59"/>
      <point x="412" y="-59" type="curve"/>
    </contour>
  </outline>
</glyph>
<glyph name="grave" format="1">
  <advance width="350"/>
  <unicode hex="0060"/>
  <outline>
    <contour>
      <point x="331" y="397" type="curve"/>
      <point x="302" y="480"/>
      <point x="304" y="578"/>
      <point x="338" y="713" type="curve"/>
      <point x="313" y="718"/>
      <point x="298" y="720"/>
      <point x="275" y="720" type="curve" smooth="yes"/>
      <point x="207" y="720"/>
      <point x="161" y="707"/>
      <point x="147" y="649" type="curve" smooth="yes"/>
      <point x="124" y="558"/>
      <point x="144" y="437"/>
      <point x="187" y="380" type="curve" smooth="yes"/>
      <point x="195" y="370"/>
      <point x="205" y="366"/>
      <point x="225" y="366" type="curve" smooth="yes"/>
      <point x="267" y="366"/>
      <point x="297" y="375"/>
    </contour>
  </outline>
</glyph>
<glyph name="c" format="1">
  <advance width="500"/>
  <unicode hex="0063"/>
  <outline>
    <contour>
      <point x="374" y="549" type="curve" smooth="yes"/>
      <point x="230" y="549"/>
      <point x="103" y="463"/>
      <point x="55" y="275" type="curve" smooth="yes"/>
      <point x="51" y="259" type="line" smooth="yes"/>
      <point x="4" y="70"/>
      <point x="97" y="-12"/>
      <point x="235" y="-12" type="curve" smooth="yes"/>
      <point x="264" y="-12"/>
      <point x="276" y="7"/>
      <point x="279" y="47" type="curve"/>
      <point x="183" y="63"/>
      <point x="156" y="145"/>
      <point x="179" y="236" type="curve" smooth="yes"/>
      <point x="182" y="249" type="line" smooth="yes"/>
      <point x="206" y="348"/>
      <point x="265" y="413"/>
      <point x="350" y="413" type="curve" smooth="yes"/>
      <point x="401" y="413"/>
      <point x="436" y="404"/>
      <point x="466" y="375" type="curve"/>
      <point x="470" y="375" type="line"/>
      <point x="486" y="395"/>
      <point x="493" y="410"/>
      <point x="501" y="441" type="curve"/>
      <point x="510" y="477"/>
      <point x="506" y="493"/>
      <point x="495" y="509" type="curve" smooth="yes"/>
      <point x="482" y="527"/>
      <point x="449" y="549"/>
    </contour>
    <contour>
      <point x="235" y="-12" type="curve" smooth="yes"/>
      <point x="308" y="-12"/>
      <point x="349" y="1"/>
      <point x="375" y="22" type="curve" smooth="yes"/>
      <point x="401" y="43"/>
      <point x="413" y="62"/>
      <point x="425" y="110" type="curve"/>
      <point x="429" y="129"/>
      <point x="431" y="151"/>
      <point x="431" y="167" type="curve"/>
      <point x="427" y="167" type="line"/>
      <point x="373" y="131"/>
      <point x="324" y="117"/>
      <point x="263" y="117" type="curve" smooth="yes"/>
      <point x="199" y="117"/>
      <point x="164" y="134"/>
      <point x="113" y="182" type="curve"/>
      <point x="48" y="98"/>
      <point x="101" y="-12"/>
    </contour>
    <contour>
      <point x="358" y="549" type="move" name="top"/>
    </contour>
    <contour>
      <point x="225" y="-1" type="move" name="bottom"/>
    </contour>
  </outline>
</glyph>
<glyph name="d" format="1">
  <advance width="600"/>
  <unicode hex="0064"/>
  <outline>
    <contour>
      <point x="317" y="549" type="curve" smooth="yes"/>
      <point x="187" y="549"/>
      <point x="89" y="456"/>
      <point x="37" y="233" type="curve" smooth="yes"/>
      <point x="31" y="208" type="line" smooth="yes"/>
      <point x="19" y="156"/>
      <point x="33" y="64"/>
      <point x="110" y="64" type="curve" smooth="yes"/>
      <point x="134" y="64"/>
      <point x="156" y="76"/>
      <point x="165" y="99" type="curve"/>
      <point x="154" y="136"/>
      <point x="154" y="158"/>
      <point x="172" y="225" type="curve" smooth="yes"/>
      <point x="177" y="241" type="line" smooth="yes"/>
      <point x="207" y="360"/>
      <point x="263" y="426"/>
      <point x="343" y="426" type="curve" smooth="yes"/>
      <point x="391" y="426"/>
      <point x="420" y="410"/>
      <point x="439" y="376" type="curve"/>
      <point x="457" y="400"/>
      <point x="465" y="433"/>
      <point x="454" y="460" type="curve" smooth="yes"/>
      <point x="443" y="499"/>
      <point x="390" y="549"/>
    </contour>
    <contour>
      <point x="135" y="-12" type="curve" smooth="yes"/>
      <point x="220" y="-12"/>
      <point x="339" y="76"/>
      <point x="391" y="177" type="curve" smooth="yes"/>
      <point x="416" y="224"/>
      <point x="426" y="288"/>
      <point x="419" y="324" type="curve"/>
      <point x="335" y="177"/>
      <point x="260" y="126"/>
      <point x="186" y="126" type="curve" smooth="yes"/>
      <point x="141" y="126"/>
      <point x="106" y="156"/>
      <point x="82" y="226" type="curve"/>
      <point x="48" y="223"/>
      <point x="33" y="216"/>
      <point x="31" y="208" type="curve" smooth="yes"/>
      <point x="3" y="95"/>
      <point x="52" y="-12"/>
    </contour>
    <contour>
      <point x="508" y="751" type="curve"/>
      <point x="508" y="716"/>
      <point x="504" y="689"/>
      <point x="493" y="650" type="curve" smooth="yes"/>
      <point x="374" y="188" type="line"/>
      <point x="348" y="94"/>
      <point x="343" y="46"/>
      <point x="360" y="22" type="curve" smooth="yes"/>
      <point x="375" y="2"/>
      <point x="406" y="-4"/>
      <point x="432" y="-4" type="curve" smooth="yes"/>
      <point x="445" y="-4"/>
      <point x="456" y="-3"/>
      <point x="470" y="0" type="curve"/>
      <point x="470" y="34"/>
      <point x="473" y="62"/>
      <point x="484" y="103" type="curve" smooth="yes"/>
      <point x="637" y="692" type="line"/>
      <point x="642" y="711"/>
      <point x="641" y="726"/>
      <point x="634" y="735" type="curve" smooth="yes"/>
      <point x="622" y="753"/>
      <point x="598" y="756"/>
      <point x="564" y="756" type="curve" smooth="yes"/>
      <point x="544" y="756"/>
      <point x="525" y="755"/>
    </contour>
    <contour>
      <point x="574" y="711" type="move" name="caronslovak"/>
    </contour>
  </outline>
</glyph>
<glyph name="g" format="1">
  <advance width="600"/>
  <unicode hex="0067"/>
  <outline>
    <contour>
      <point x="357" y="434" type="curve" smooth="yes"/>
      <point x="484" y="434"/>
      <point x="534" y="421"/>
      <point x="570" y="421" type="curve" smooth="yes"/>
      <point x="602" y="421"/>
      <point x="622" y="452"/>
      <point x="634" y="496" type="curve" smooth="yes"/>
      <point x="638" y="513"/>
      <point x="640" y="530"/>
      <point x="638" y="539" type="curve"/>
      <point x="564" y="546"/>
      <point x="493" y="551"/>
      <point x="390" y="551" type="curve" smooth="yes"/>
      <point x="221" y="551"/>
      <point x="131" y="490"/>
      <point x="101" y="368" type="curve" smooth="yes"/>
      <point x="98" y="358" type="line" smooth="yes"/>
      <point x="68" y="239"/>
      <point x="152" y="150"/>
      <point x="286" y="152" type="curve"/>
      <point x="324" y="152"/>
      <point x="332" y="162"/>
      <point x="343" y="209" type="curve"/>
      <point x="239" y="213"/>
      <point x="197" y="274"/>
      <point x="213" y="339" type="curve" smooth="yes"/>
      <point x="215" y="346" type="line" smooth="yes"/>
      <point x="232" y="412"/>
      <point x="277" y="434"/>
    </contour>
    <contour>
      <point x="293" y="264" type="curve" smooth="yes"/>
      <point x="239" y="264"/>
      <point x="212" y="271"/>
      <point x="178" y="294" type="curve"/>
      <point x="140" y="234"/>
      <point x="188" y="152"/>
      <point x="286" y="152" type="curve" smooth="yes"/>
      <point x="420" y="152"/>
      <point x="494" y="201"/>
      <point x="517" y="293" type="curve" smooth="yes"/>
      <point x="519" y="303" type="line" smooth="yes"/>
      <point x="533" y="361"/>
      <point x="515" y="419"/>
      <point x="460" y="452" type="curve" smooth="yes"/>
      <point x="436" y="468"/>
      <point x="387" y="461"/>
      <point x="375" y="451" type="curve"/>
      <point x="415" y="429"/>
      <point x="422" y="383"/>
      <point x="413" y="346" type="curve" smooth="yes"/>
      <point x="410" y="335" type="line" smooth="yes"/>
      <point x="398" y="286"/>
      <point x="362" y="264"/>
    </contour>
    <contour>
      <point x="98" y="71" type="curve" smooth="yes"/>
      <point x="97" y="67" type="line" smooth="yes"/>
      <point x="80" y="-2"/>
      <point x="124" y="-42"/>
      <point x="207" y="-48" type="curve" smooth="yes"/>
      <point x="319" y="-57" type="line" smooth="yes"/>
      <point x="344" y="-58"/>
      <point x="353" y="-72"/>
      <point x="348" y="-94" type="curve" smooth="yes"/>
      <point x="346" y="-101" type="line" smooth="yes"/>
      <point x="331" y="-163"/>
      <point x="270" y="-205"/>
      <point x="142" y="-205" type="curve"/>
      <point x="135" y="-235"/>
      <point x="134" y="-250"/>
      <point x="161" y="-250" type="curve" smooth="yes"/>
      <point x="340" y="-250"/>
      <point x="443" y="-212"/>
      <point x="478" y="-83" type="curve" smooth="yes"/>
      <point x="481" y="-73" type="line" smooth="yes"/>
      <point x="500" y="0"/>
      <point x="459" y="58"/>
      <point x="386" y="63" type="curve" smooth="yes"/>
      <point x="259" y="72" type="line" smooth="yes"/>
      <point x="236" y="74"/>
      <point x="227" y="88"/>
      <point x="233" y="111" type="curve" smooth="yes"/>
      <point x="234" y="114" type="line" smooth="yes"/>
      <point x="238" y="133"/>
      <point x="250" y="155"/>
      <point x="271" y="175" type="curve"/>
      <point x="272" y="187"/>
      <point x="267" y="191"/>
      <point x="256" y="191" type="curve" smooth="yes"/>
      <point x="197" y="191"/>
      <point x="115" y="138"/>
    </contour>
    <contour>
      <point x="397" y="-118" type="curve"/>
      <point x="330" y="-150"/>
      <point x="281" y="-159"/>
      <point x="175" y="-159" type="curve" smooth="yes"/>
      <point x="156" y="-159" type="line" smooth="yes"/>
      <point x="92" y="-159"/>
      <point x="71" y="-139"/>
      <point x="82" y="-96" type="curve" smooth="yes"/>
      <point x="84" y="-89" type="line" smooth="yes"/>
      <point x="95" y="-47"/>
      <point x="119" y="-21"/>
      <point x="167" y="0" type="curve"/>
      <point x="170" y="17"/>
      <point x="146" y="27"/>
      <point x="117" y="27" type="curve" smooth="yes"/>
      <point x="30" y="25"/>
      <point x="-32" y="-15"/>
      <point x="-51" y="-92" type="curve" smooth="yes"/>
      <point x="-53" y="-100" type="line" smooth="yes"/>
      <point x="-74" y="-186"/>
      <point x="-9" y="-250"/>
      <point x="146" y="-250" type="curve" smooth="yes"/>
      <point x="161" y="-250" type="line" smooth="yes"/>
      <point x="308" y="-250"/>
      <point x="397" y="-180"/>
    </contour>
  </outline>
</glyph>
<glyph name="h" format="1">
  <advance width="600"/>
  <unicode hex="0068"/>
  <outline>
    <contour>
      <point x="140" y="-1" type="curve"/>
      <point x="310" y="651" type="line" smooth="yes"/>
      <point x="320" y="690"/>
      <point x="318" y="710"/>
      <point x="307" y="724" type="curve" smooth="yes"/>
      <point x="290" y="746"/>
      <point x="262" y="755"/>
      <point x="220" y="755" type="curve" smooth="yes"/>
      <point x="207" y="755"/>
      <point x="195" y="754"/>
      <point x="182" y="751" type="curve"/>
      <point x="182" y="716"/>
      <point x="178" y="688"/>
      <point x="168" y="648" type="curve" smooth="yes"/>
      <point x="13" y="49" type="line" smooth="yes"/>
      <point x="0" y="2"/>
      <point x="38" y="-6"/>
      <point x="89" y="-6" type="curve" smooth="yes"/>
      <point x="109" y="-6"/>
      <point x="126" y="-4"/>
    </contour>
    <contour>
      <point x="469" y="549" type="curve" smooth="yes"/>
      <point x="379" y="549"/>
      <point x="269" y="454"/>
      <point x="208" y="337" type="curve" smooth="yes"/>
      <point x="170" y="261"/>
      <point x="154" y="177"/>
      <point x="161" y="113" type="curve"/>
      <point x="256" y="329"/>
      <point x="338" y="407"/>
      <point x="397" y="407" type="curve" smooth="yes"/>
      <point x="426" y="407"/>
      <point x="444" y="382"/>
      <point x="447" y="331" type="curve"/>
      <point x="499" y="332"/>
      <point x="541" y="353"/>
      <point x="547" y="378" type="curve" smooth="yes"/>
      <point x="568" y="459"/>
      <point x="539" y="549"/>
    </contour>
    <contour>
      <point x="469" y="0" type="curve"/>
      <point x="469" y="56"/>
      <point x="473" y="92"/>
      <point x="489" y="153" type="curve" smooth="yes"/>
      <point x="547" y="378" type="line"/>
      <point x="557" y="413"/>
      <point x="534" y="434"/>
      <point x="455" y="432" type="curve"/>
      <point x="401" y="317"/>
      <point x="361" y="223"/>
      <point x="341" y="142" type="curve" smooth="yes"/>
      <point x="336" y="130" type="line" smooth="yes"/>
      <point x="307" y="23"/>
      <point x="343" y="-5"/>
      <point x="417" y="-5" type="curve" smooth="yes"/>
      <point x="436" y="-5"/>
      <point x="451" y="-3"/>
    </contour>
    <contour>
      <point x="254" y="730" type="move" name="top"/>
    </contour>
  </outline>
</glyph>
<glyph name="i" format="1">
  <advance width="350"/>
  <unicode hex="0069"/>
  <outline>
    <contour>
      <point x="111" y="543" type="curve"/>
      <point x="104" y="530"/>
      <point x="98" y="512"/>
      <point x="94" y="493" type="curve" smooth="yes"/>
      <point x="79" y="436"/>
      <point x="92" y="415"/>
      <point x="113" y="415" type="curve" smooth="yes"/>
      <point x="134" y="415"/>
      <point x="160" y="426"/>
      <point x="217" y="426" type="curve"/>
      <point x="234" y="492"/>
      <point x="252" y="548"/>
      <point x="208" y="548" type="curve" smooth="yes"/>
      <point x="177" y="548"/>
      <point x="146" y="547"/>
    </contour>
    <contour>
      <point x="211" y="-5" type="curve"/>
      <point x="212" y="28"/>
      <point x="217" y="60"/>
      <point x="227" y="98" type="curve" smooth="yes"/>
      <point x="329" y="498" type="line" smooth="yes"/>
      <point x="338" y="535"/>
      <point x="303" y="548"/>
      <point x="218" y="548" type="curve" smooth="yes"/>
      <point x="208" y="548" type="line"/>
      <point x="84" y="57" type="line" smooth="yes"/>
      <point x="72" y="9"/>
      <point x="98" y="-7"/>
      <point x="188" y="-7" type="curve" smooth="yes"/>
      <point x="197" y="-7"/>
      <point x="204" y="-6"/>
    </contour>
    <contour>
      <point x="375" y="627" type="curve"/>
      <point x="394" y="704" type="line" smooth="yes"/>
      <point x="407" y="753"/>
      <point x="369" y="762"/>
      <point x="316" y="762" type="curve" smooth="yes"/>
      <point x="295" y="762"/>
      <point x="268" y="760"/>
      <point x="245" y="756" type="curve"/>
      <point x="225" y="678" type="line" smooth="yes"/>
      <point x="213" y="630"/>
      <point x="251" y="621"/>
      <point x="304" y="621" type="curve" smooth="yes"/>
      <point x="325" y="621"/>
      <point x="352" y="623"/>
    </contour>
    <contour>
      <point x="387" y="-1" type="move" name="ogonek"/>
    </contour>
    <contour>
      <point x="237" y="-1" type="move" name="bottom"/>
    </contour>
  </outline>
</glyph>
<glyph name="j" format="1">
  <advance width="350"/>
  <unicode hex="006A"/>
  <outline>
    <contour>
      <point x="120" y="541" type="curve"/>
      <point x="113" y="528"/>
      <point x="107" y="511"/>
      <point x="102" y="491" type="curve" smooth="yes"/>
      <point x="88" y="434"/>
      <point x="101" y="413"/>
      <point x="122" y="413" type="curve" smooth="yes"/>
      <point x="145" y="413"/>
      <point x="166" y="426"/>
      <point x="234" y="426" type="curve"/>
      <point x="254" y="507"/>
      <point x="256" y="548"/>
      <point x="225" y="548" type="curve" smooth="yes"/>
      <point x="195" y="548"/>
      <point x="151" y="545"/>
    </contour>
    <contour>
      <point x="206" y="-50" type="curve" smooth="yes"/>
      <point x="342" y="485" type="line" smooth="yes"/>
      <point x="346" y="501"/>
      <point x="345" y="508"/>
      <point x="337" y="519" type="curve" smooth="yes"/>
      <point x="323" y="538"/>
      <point x="281" y="548"/>
      <point x="234" y="548" type="curve" smooth="yes"/>
      <point x="225" y="548" type="line"/>
      <point x="79" y="-27" type="line" smooth="yes"/>
      <point x="59" y="-107"/>
      <point x="40" y="-143"/>
      <point x="3" y="-185" type="curve"/>
      <point x="51" y="-205"/>
      <point x="186" y="-127"/>
    </contour>
    <contour>
      <point x="8" y="-122" type="curve" smooth="yes"/>
      <point x="-24" y="-122"/>
      <point x="-42" y="-118"/>
      <point x="-68" y="-104" type="curve"/>
      <point x="-72" y="-104" type="line"/>
      <point x="-78" y="-114"/>
      <point x="-81" y="-123"/>
      <point x="-84" y="-135" type="curve" smooth="yes"/>
      <point x="-93" y="-171"/>
      <point x="-92" y="-209"/>
      <point x="-79" y="-227" type="curve" smooth="yes"/>
      <point x="-69" y="-240"/>
      <point x="-51" y="-250"/>
      <point x="-12" y="-250" type="curve" smooth="yes"/>
      <point x="101" y="-250"/>
      <point x="169" y="-184"/>
      <point x="206" y="-50" type="curve" smooth="yes"/>
      <point x="218" y="-4"/>
      <point x="198" y="-3"/>
      <point x="179" y="-3" type="curve"/>
      <point x="137" y="-91"/>
      <point x="69" y="-122"/>
    </contour>
    <contour>
      <point x="388" y="627" type="curve"/>
      <point x="408" y="704" type="line" smooth="yes"/>
      <point x="420" y="753"/>
      <point x="382" y="762"/>
      <point x="329" y="762" type="curve" smooth="yes"/>
      <point x="308" y="762"/>
      <point x="281" y="760"/>
      <point x="258" y="756" type="curve"/>
      <point x="238" y="678" type="line" smooth="yes"/>
      <point x="226" y="630"/>
      <point x="264" y="621"/>
      <point x="317" y="621" type="curve" smooth="yes"/>
      <point x="338" y="621"/>
      <point x="365" y="623"/>
    </contour>
  </outline>
</glyph>
<glyph name="l" format="1">
  <advance width="300"/>
  <unicode hex="006C"/>
  <outline>
    <contour>
      <point x="159" y="648" type="curve"/>
      <point x="31" y="136" type="line" smooth="yes"/>
      <point x="13" y="65"/>
      <point x="86" y="7"/>
      <point x="146" y="21" type="curve"/>
      <point x="153" y="72"/>
      <point x="164" y="122"/>
      <point x="179" y="179" type="curve" smooth="yes"/>
      <point x="295" y="646" type="line" smooth="yes"/>
      <point x="307" y="692"/>
      <point x="308" y="708"/>
      <point x="293" y="728" type="curve" smooth="yes"/>
      <point x="277" y="749"/>
      <point x="251" y="755"/>
      <point x="211" y="755" type="curve" smooth="yes"/>
      <point x="198" y="755"/>
      <point x="185" y="754"/>
      <point x="172" y="751" type="curve"/>
      <point x="173" y="717"/>
      <point x="169" y="689"/>
    </contour>
    <contour>
      <point x="249" y="137" type="curve"/>
      <point x="245" y="137" type="line"/>
      <point x="227" y="128"/>
      <point x="210" y="123"/>
      <point x="189" y="123" type="curve" smooth="yes"/>
      <point x="151" y="123"/>
      <point x="138" y="137"/>
      <point x="134" y="183" type="curve"/>
      <point x="67" y="183"/>
      <point x="36" y="157"/>
      <point x="31" y="136" type="curve" smooth="yes"/>
      <point x="9" y="49"/>
      <point x="60" y="-10"/>
      <point x="129" y="-10" type="curve" smooth="yes"/>
      <point x="137" y="-10" type="line" smooth="yes"/>
      <point x="167" y="-10"/>
      <point x="190" y="-4"/>
      <point x="206" y="9" type="curve" smooth="yes"/>
      <point x="222" y="21"/>
      <point x="233" y="42"/>
      <point x="243" y="94" type="curve" smooth="yes"/>
      <point x="246" y="107"/>
      <point x="248" y="125"/>
    </contour>
    <contour>
      <point x="429" y="711" type="move" name="caronslovak"/>
    </contour>
    <contour>
      <point x="249" y="742" type="move" name="top"/>
    </contour>
    <contour>
      <point x="351" y="400" type="move" name="dot"/>
    </contour>
    <contour>
      <point x="101" y="-1" type="move" name="bottom"/>
    </contour>
  </outline>
</glyph>
<glyph name="m" format="1">
  <advance width="850"/>
  <unicode hex="006D"/>
  <outline>
    <contour>
      <point x="156" y="-1" type="curve"/>
      <point x="266" y="434" type="line" smooth="yes"/>
      <point x="278" y="482"/>
      <point x="277" y="499"/>
      <point x="263" y="517" type="curve" smooth="yes"/>
      <point x="248" y="537"/>
      <point x="206" y="543"/>
      <point x="178" y="543" type="curve" smooth="yes"/>
      <point x="165" y="543"/>
      <point x="153" y="542"/>
      <point x="139" y="540" type="curve"/>
      <point x="140" y="505"/>
      <point x="136" y="477"/>
      <point x="126" y="437" type="curve" smooth="yes"/>
      <point x="28" y="49" type="line" smooth="yes"/>
      <point x="15" y="1"/>
      <point x="54" y="-6"/>
      <point x="105" y="-6" type="curve" smooth="yes"/>
      <point x="124" y="-6"/>
      <point x="142" y="-4"/>
    </contour>
    <contour>
      <point x="458" y="549" type="curve" smooth="yes"/>
      <point x="358" y="549"/>
      <point x="274" y="455"/>
      <point x="219" y="345" type="curve" smooth="yes"/>
      <point x="184" y="270"/>
      <point x="165" y="190"/>
      <point x="180" y="138" type="curve"/>
      <point x="264" y="351"/>
      <point x="328" y="407"/>
      <point x="377" y="407" type="curve" smooth="yes"/>
      <point x="414" y="407"/>
      <point x="433" y="383"/>
      <point x="435" y="332" type="curve"/>
      <point x="490" y="332"/>
      <point x="531" y="358"/>
      <point x="538" y="384" type="curve" smooth="yes"/>
      <point x="557" y="457"/>
      <point x="523" y="549"/>
    </contour>
    <contour>
      <point x="440" y="0" type="curve"/>
      <point x="538" y="384" type="line"/>
      <point x="545" y="413"/>
      <point x="524" y="435"/>
      <point x="439" y="432" type="curve"/>
      <point x="391" y="320"/>
      <point x="351" y="223"/>
      <point x="328" y="135" type="curve" smooth="yes"/>
      <point x="326" y="128" type="line" smooth="yes"/>
      <point x="296" y="21"/>
      <point x="326" y="-5"/>
      <point x="400" y="-5" type="curve" smooth="yes"/>
      <point x="415" y="-5"/>
      <point x="426" y="-4"/>
    </contour>
    <contour>
      <point x="741" y="549" type="curve" smooth="yes"/>
      <point x="641" y="549"/>
      <point x="556" y="457"/>
      <point x="502" y="347" type="curve" smooth="yes"/>
      <point x="466" y="273"/>
      <point x="446" y="190"/>
      <point x="461" y="138" type="curve"/>
      <point x="545" y="351"/>
      <point x="611" y="407"/>
      <point x="662" y="407" type="curve" smooth="yes"/>
      <point x="697" y="407"/>
      <point x="716" y="383"/>
      <point x="719" y="332" type="curve"/>
      <point x="773" y="332"/>
      <point x="814" y="358"/>
      <point x="820" y="385" type="curve" smooth="yes"/>
      <point x="840" y="458"/>
      <point x="807" y="549"/>
    </contour>
    <contour>
      <point x="742" y="0" type="curve"/>
      <point x="742" y="56"/>
      <point x="746" y="92"/>
      <point x="762" y="153" type="curve" smooth="yes"/>
      <point x="820" y="385" type="line"/>
      <point x="829" y="415"/>
      <point x="807" y="436"/>
      <point x="723" y="433" type="curve"/>
      <point x="673" y="317"/>
      <point x="633" y="222"/>
      <point x="611" y="134" type="curve" smooth="yes"/>
      <point x="609" y="129" type="line" smooth="yes"/>
      <point x="582" y="23"/>
      <point x="616" y="-5"/>
      <point x="691" y="-5" type="curve" smooth="yes"/>
      <point x="709" y="-5"/>
      <point x="724" y="-3"/>
    </contour>
  </outline>
</glyph>
<glyph name="n" format="1">
  <advance width="600"/>
  <unicode hex="006E"/>
  <outline>
    <contour>
      <point x="141" y="-3" type="curve"/>
      <point x="234" y="350" type="line" smooth="yes"/>
      <point x="258" y="438"/>
      <point x="250" y="486"/>
      <point x="232" y="512" type="curve" smooth="yes"/>
      <point x="220" y="530"/>
      <point x="201" y="541"/>
      <point x="166" y="541" type="curve" smooth="yes"/>
      <point x="155" y="541"/>
      <point x="142" y="540"/>
      <point x="128" y="537" type="curve"/>
      <point x="129" y="503"/>
      <point x="125" y="474"/>
      <point x="115" y="433" type="curve" smooth="yes"/>
      <point x="14" y="47" type="line" smooth="yes"/>
      <point x="1" y="-1"/>
      <point x="39" y="-8"/>
      <point x="90" y="-8" type="curve" smooth="yes"/>
      <point x="109" y="-8"/>
      <point x="128" y="-7"/>
    </contour>
    <contour>
      <point x="465" y="547" type="curve" smooth="yes"/>
      <point x="377" y="547"/>
      <point x="272" y="448"/>
      <point x="210" y="330" type="curve" smooth="yes"/>
      <point x="172" y="254"/>
      <point x="157" y="174"/>
      <point x="162" y="119" type="curve"/>
      <point x="260" y="341"/>
      <point x="344" y="405"/>
      <point x="402" y="405" type="curve" smooth="yes"/>
      <point x="433" y="405"/>
      <point x="453" y="386"/>
      <point x="455" y="345" type="curve"/>
      <point x="509" y="345"/>
      <point x="549" y="368"/>
      <point x="556" y="396" type="curve" smooth="yes"/>
      <point x="572" y="457"/>
      <point x="537" y="547"/>
    </contour>
    <contour>
      <point x="470" y="-2" type="curve"/>
      <point x="470" y="54"/>
      <point x="475" y="89"/>
      <point x="490" y="150" type="curve" smooth="yes"/>
      <point x="556" y="396" type="line"/>
      <point x="562" y="421"/>
      <point x="543" y="432"/>
      <point x="457" y="429" type="curve"/>
      <point x="402" y="318"/>
      <point x="357" y="220"/>
      <point x="337" y="139" type="curve" smooth="yes"/>
      <point x="333" y="127" type="line" smooth="yes"/>
      <point x="304" y="19"/>
      <point x="339" y="-8"/>
      <point x="418" y="-8" type="curve" smooth="yes"/>
      <point x="437" y="-8"/>
      <point x="452" y="-6"/>
    </contour>
    <contour>
      <point x="396" y="702" type="move" name="caronslovak"/>
    </contour>
    <contour>
      <point x="370" y="549" type="move" name="top"/>
    </contour>
    <contour>
      <point x="235" y="-1" type="move" name="bottom"/>
    </contour>
  </outline>
</glyph>
<glyph name="p" format="1">
  <advance width="600"/>
  <unicode hex="0070"/>
  <outline>
    <contour>
      <point x="80" y="-203" type="curve"/>
      <point x="224" y="351" type="line" smooth="yes"/>
      <point x="249" y="449"/>
      <point x="257" y="492"/>
      <point x="239" y="517" type="curve" smooth="yes"/>
      <point x="224" y="536"/>
      <point x="191" y="543"/>
      <point x="165" y="543" type="curve"/>
      <point x="153" y="543"/>
      <point x="140" y="542"/>
      <point x="128" y="540" type="curve"/>
      <point x="127" y="505"/>
      <point x="124" y="477"/>
      <point x="113" y="437" type="curve" smooth="yes"/>
      <point x="-40" y="-153" type="line" smooth="yes"/>
      <point x="-52" y="-201"/>
      <point x="-18" y="-209"/>
      <point x="28" y="-209" type="curve"/>
      <point x="48" y="-209"/>
      <point x="66" y="-207"/>
    </contour>
    <contour>
      <point x="466" y="549" type="curve" smooth="yes"/>
      <point x="373" y="549"/>
      <point x="258" y="461"/>
      <point x="206" y="361" type="curve" smooth="yes"/>
      <point x="182" y="314"/>
      <point x="171" y="250"/>
      <point x="178" y="214" type="curve"/>
      <point x="262" y="359"/>
      <point x="339" y="412"/>
      <point x="417" y="412" type="curve" smooth="yes"/>
      <point x="449" y="412"/>
      <point x="481" y="386"/>
      <point x="517" y="319" type="curve"/>
      <point x="551" y="321"/>
      <point x="567" y="332"/>
      <point x="570" y="342" type="curve" smooth="yes"/>
      <point x="600" y="457"/>
      <point x="550" y="549"/>
    </contour>
    <contour>
      <point x="268" y="-12" type="curve" smooth="yes"/>
      <point x="373" y="-12"/>
      <point x="503" y="82"/>
      <point x="564" y="320" type="curve" smooth="yes"/>
      <point x="570" y="342" type="line" smooth="yes"/>
      <point x="584" y="394"/>
      <point x="565" y="477"/>
      <point x="488" y="477" type="curve" smooth="yes"/>
      <point x="465" y="477"/>
      <point x="442" y="464"/>
      <point x="432" y="426" type="curve"/>
      <point x="444" y="402"/>
      <point x="442" y="376"/>
      <point x="425" y="312" type="curve" smooth="yes"/>
      <point x="422" y="300" type="line" smooth="yes"/>
      <point x="391" y="179"/>
      <point x="334" y="112"/>
      <point x="254" y="112" type="curve" smooth="yes"/>
      <point x="206" y="112"/>
      <point x="179" y="132"/>
      <point x="160" y="165" type="curve"/>
      <point x="141" y="141"/>
      <point x="129" y="99"/>
      <point x="139" y="71" type="curve" smooth="yes"/>
      <point x="150" y="33"/>
      <point x="196" y="-12"/>
    </contour>
  </outline>
</glyph>
<glyph name="r" format="1">
  <advance width="450"/>
  <unicode hex="0072"/>
  <outline>
    <contour>
      <point x="159" y="0" type="curve"/>
      <point x="273" y="447" type="line" smooth="yes"/>
      <point x="282" y="482"/>
      <point x="280" y="499"/>
      <point x="270" y="513" type="curve" smooth="yes"/>
      <point x="254" y="534"/>
      <point x="223" y="544"/>
      <point x="181" y="544" type="curve" smooth="yes"/>
      <point x="169" y="544"/>
      <point x="156" y="543"/>
      <point x="143" y="540" type="curve"/>
      <point x="143" y="505"/>
      <point x="140" y="477"/>
      <point x="129" y="437" type="curve" smooth="yes"/>
      <point x="31" y="50" type="line" smooth="yes"/>
      <point x="19" y="2"/>
      <point x="57" y="-5"/>
      <point x="108" y="-5" type="curve" smooth="yes"/>
      <point x="128" y="-5"/>
      <point x="146" y="-4"/>
    </contour>
    <contour>
      <point x="196" y="160" type="curve"/>
      <point x="280" y="340"/>
      <point x="337" y="400"/>
      <point x="403" y="400" type="curve" smooth="yes"/>
      <point x="424" y="400"/>
      <point x="436" y="396"/>
      <point x="451" y="384" type="curve"/>
      <point x="455" y="384" type="line"/>
      <point x="469" y="408"/>
      <point x="477" y="425"/>
      <point x="485" y="458" type="curve"/>
      <point x="500" y="518"/>
      <point x="487" y="557"/>
      <point x="444" y="557" type="curve" smooth="yes"/>
      <point x="442" y="557" type="line" smooth="yes"/>
      <point x="369" y="557"/>
      <point x="286" y="467"/>
      <point x="213" y="296" type="curve" smooth="yes"/>
      <point x="201" y="267"/>
      <point x="189" y="234"/>
    </contour>
    <contour>
      <point x="260" y="549" type="move" name="top"/>
    </contour>
    <contour>
      <point x="260" y="-1" type="move" name="bottom"/>
    </contour>
  </outline>
</glyph>
<glyph name="s" format="1">
  <advance width="550"/>
  <unicode hex="0073"/>
  <outline>
    <contour>
      <point x="408" y="550" type="curve" smooth="yes"/>
      <point x="402" y="550" type="line" smooth="yes"/>
      <point x="265" y="550"/>
      <point x="152" y="501"/>
      <point x="125" y="392" type="curve" smooth="yes"/>
      <point x="114" y="353"/>
      <point x="162" y="308"/>
      <point x="247" y="308" type="curve"/>
      <point x="242" y="335"/>
      <point x="244" y="352"/>
      <point x="249" y="372" type="curve" smooth="yes"/>
      <point x="257" y="401"/>
      <point x="299" y="422"/>
      <point x="382" y="422" type="curve" smooth="yes"/>
      <point x="444" y="422"/>
      <point x="475" y="410"/>
      <point x="510" y="391" type="curve"/>
      <point x="514" y="391" type="line"/>
      <point x="520" y="402"/>
      <point x="525" y="414"/>
      <point x="528" y="425" type="curve"/>
      <point x="540" y="471"/>
      <point x="536" y="502"/>
      <point x="522" y="520" type="curve" smooth="yes"/>
      <point x="510" y="536"/>
      <point x="474" y="550"/>
    </contour>
    <contour>
      <point x="372" y="309" type="curve" smooth="yes"/>
      <point x="320" y="322" type="line" smooth="yes"/>
      <point x="257" y="338"/>
      <point x="243" y="348"/>
      <point x="249" y="372" type="curve" smooth="yes"/>
      <point x="254" y="389"/>
      <point x="262" y="411"/>
      <point x="281" y="439" type="curve"/>
      <point x="189" y="428"/>
      <point x="133" y="423"/>
      <point x="125" y="392" type="curve"/>
      <point x="105" y="314"/>
      <point x="139" y="252"/>
      <point x="239" y="227" type="curve" smooth="yes"/>
      <point x="308" y="211" type="line" smooth="yes"/>
      <point x="353" y="200"/>
      <point x="364" y="179"/>
      <point x="357" y="150" type="curve" smooth="yes"/>
      <point x="352" y="130"/>
      <point x="342" y="115"/>
      <point x="327" y="102" type="curve"/>
      <point x="428" y="103"/>
      <point x="471" y="115"/>
      <point x="480" y="146" type="curve" smooth="yes"/>
      <point x="497" y="218"/>
      <point x="468" y="285"/>
    </contour>
    <contour>
      <point x="263" y="116" type="curve" smooth="yes"/>
      <point x="155" y="116"/>
      <point x="110" y="131"/>
      <point x="51" y="173" type="curve"/>
      <point x="47" y="173" type="line"/>
      <point x="41" y="160"/>
      <point x="36" y="146"/>
      <point x="31" y="128" type="curve" smooth="yes"/>
      <point x="18" y="78"/>
      <point x="25" y="54"/>
      <point x="38" y="38" type="curve" smooth="yes"/>
      <point x="58" y="11"/>
      <point x="118" y="-12"/>
      <point x="218" y="-12" type="curve" smooth="yes"/>
      <point x="229" y="-12" type="line" smooth="yes"/>
      <point x="372" y="-12"/>
      <point x="451" y="34"/>
      <point x="480" y="146" type="curve" smooth="yes"/>
      <point x="492" y="194"/>
      <point x="464" y="207"/>
      <point x="420" y="217" type="curve"/>
      <point x="419" y="199"/>
      <point x="417" y="190"/>
      <point x="415" y="181" type="curve" smooth="yes"/>
      <point x="405" y="143"/>
      <point x="351" y="116"/>
    </contour>
    <contour>
      <point x="279" y="549" type="move" name="top"/>
    </contour>
    <contour>
      <point x="279" y="-1" type="move" name="bottom"/>
    </contour>
  </outline>
</glyph>
<glyph name="t" format="1">
  <advance width="500"/>
  <unicode hex="0074"/>
  <outline>
    <contour>
      <point x="238" y="700" type="curve"/>
      <point x="101" y="151" type="line" smooth="yes"/>
      <point x="84" y="81"/>
      <point x="156" y="6"/>
      <point x="243" y="31" type="curve"/>
      <point x="225" y="70"/>
      <point x="226" y="119"/>
      <point x="239" y="173" type="curve" smooth="yes"/>
      <point x="359" y="650" type="line" smooth="yes"/>
      <point x="371" y="698"/>
      <point x="335" y="705"/>
      <point x="290" y="705" type="curve" smooth="yes"/>
      <point x="270" y="705"/>
      <point x="253" y="704"/>
    </contour>
    <contour>
      <point x="414" y="156" type="curve"/>
      <point x="410" y="156" type="line"/>
      <point x="359" y="133"/>
      <point x="320" y="119"/>
      <point x="268" y="119" type="curve" smooth="yes"/>
      <point x="219" y="119"/>
      <point x="180" y="136"/>
      <point x="149" y="189" type="curve"/>
      <point x="123" y="187"/>
      <point x="106" y="171"/>
      <point x="101" y="151" type="curve" smooth="yes"/>
      <point x="79" y="61"/>
      <point x="133" y="-13"/>
      <point x="238" y="-13" type="curve" smooth="yes"/>
      <point x="249" y="-13" type="line" smooth="yes"/>
      <point x="307" y="-13"/>
      <point x="334" y="-2"/>
      <point x="351" y="12" type="curve" smooth="yes"/>
      <point x="377" y="33"/>
      <point x="394" y="57"/>
      <point x="408" y="117" type="curve" smooth="yes"/>
      <point x="412" y="132"/>
      <point x="414" y="144"/>
    </contour>
    <contour>
      <point x="106" y="538" type="line"/>
      <point x="105" y="532"/>
      <point x="103" y="526"/>
      <point x="102" y="520" type="curve" smooth="yes"/>
      <point x="90" y="475"/>
      <point x="92" y="448"/>
      <point x="104" y="432" type="curve" smooth="yes"/>
      <point x="120" y="411"/>
      <point x="146" y="405"/>
      <point x="222" y="405" type="curve"/>
      <point x="475" y="405" type="line"/>
      <point x="482" y="419"/>
      <point x="490" y="439"/>
      <point x="494" y="459" type="curve" smooth="yes"/>
      <point x="509" y="517"/>
      <point x="499" y="538"/>
      <point x="450" y="538" type="curve"/>
    </contour>
    <contour>
      <point x="504" y="711" type="move" name="caronslovak"/>
    </contour>
    <contour>
      <point x="211" y="-1" type="move" name="bottom"/>
    </contour>
  </outline>
</glyph>
<glyph name="u" format="1">
  <advance width="600"/>
  <unicode hex="0075"/>
  <outline>
    <contour>
      <point x="458" y="541" type="curve"/>
      <point x="365" y="188" type="line" smooth="yes"/>
      <point x="341" y="100"/>
      <point x="350" y="52"/>
      <point x="367" y="26" type="curve" smooth="yes"/>
      <point x="380" y="8"/>
      <point x="398" y="-4"/>
      <point x="433" y="-4" type="curve" smooth="yes"/>
      <point x="445" y="-4"/>
      <point x="458" y="-3"/>
      <point x="471" y="0" type="curve"/>
      <point x="471" y="35"/>
      <point x="474" y="63"/>
      <point x="485" y="103" type="curve" smooth="yes"/>
      <point x="585" y="491" type="line" smooth="yes"/>
      <point x="598" y="538"/>
      <point x="561" y="546"/>
      <point x="510" y="546" type="curve" smooth="yes"/>
      <point x="490" y="546"/>
      <point x="472" y="544"/>
    </contour>
    <contour>
      <point x="134" y="-9" type="curve" smooth="yes"/>
      <point x="222" y="-9"/>
      <point x="328" y="90"/>
      <point x="389" y="208" type="curve" smooth="yes"/>
      <point x="427" y="284"/>
      <point x="442" y="364"/>
      <point x="437" y="418" type="curve"/>
      <point x="339" y="197"/>
      <point x="256" y="133"/>
      <point x="197" y="133" type="curve" smooth="yes"/>
      <point x="167" y="133"/>
      <point x="147" y="152"/>
      <point x="145" y="193" type="curve"/>
      <point x="90" y="193"/>
      <point x="51" y="169"/>
      <point x="43" y="141" type="curve" smooth="yes"/>
      <point x="27" y="80"/>
      <point x="63" y="-9"/>
    </contour>
    <contour>
      <point x="129" y="540" type="curve"/>
      <point x="130" y="484"/>
      <point x="124" y="448"/>
      <point x="109" y="387" type="curve" smooth="yes"/>
      <point x="43" y="141" type="line"/>
      <point x="37" y="116"/>
      <point x="57" y="106"/>
      <point x="142" y="108" type="curve"/>
      <point x="198" y="220"/>
      <point x="241" y="318"/>
      <point x="263" y="399" type="curve" smooth="yes"/>
      <point x="266" y="411" type="line" smooth="yes"/>
      <point x="295" y="519"/>
      <point x="260" y="545"/>
      <point x="181" y="545" type="curve" smooth="yes"/>
      <point x="163" y="545"/>
      <point x="147" y="544"/>
    </contour>
    <contour>
      <point x="370" y="549" type="move" name="top"/>
    </contour>
    <contour>
      <point x="475" y="-1" type="move" name="ogonek"/>
    </contour>
    <contour>
      <point x="235" y="-1" type="move" name="bottom"/>
    </contour>
  </outline>
</glyph>
<glyph name="v" format="1">
  <advance width="600"/>
  <unicode hex="0076"/>
  <outline>
    <contour>
      <point x="497" y="548" type="curve" smooth="yes"/>
      <point x="476" y="548" type="line"/>
      <point x="384" y="285"/>
      <point x="329" y="177"/>
      <point x="211" y="99" type="curve"/>
      <point x="181" y="78"/>
      <point x="187" y="-10"/>
      <point x="239" y="-10" type="curve"/>
      <point x="277" y="-10" type="line"/>
      <point x="404" y="77"/>
      <point x="515" y="254"/>
      <point x="595" y="482" type="curve"/>
      <point x="608" y="520"/>
      <point x="556" y="548"/>
    </contour>
    <contour>
      <point x="144" y="548" type="curve" smooth="yes"/>
      <point x="122" y="548" type="line"/>
      <point x="79" y="289"/>
      <point x="85" y="127"/>
      <point x="154" y="33" type="curve"/>
      <point x="182" y="-4"/>
      <point x="209" y="-10"/>
      <point x="236" y="-10" type="curve" smooth="yes"/>
      <point x="246" y="-10" type="line" smooth="yes"/>
      <point x="281" y="-10"/>
      <point x="312" y="19"/>
      <point x="338" y="63" type="curve"/>
      <point x="331" y="63"/>
      <point x="327" y="63"/>
      <point x="321" y="63" type="curve" smooth="yes"/>
      <point x="313" y="63"/>
      <point x="305" y="65"/>
      <point x="295" y="75" type="curve"/>
      <point x="228" y="146"/>
      <point x="219" y="265"/>
      <point x="255" y="503" type="curve"/>
      <point x="260" y="529"/>
      <point x="202" y="548"/>
    </contour>
  </outline>
</glyph>
<glyph name="z" format="1">
  <advance width="550"/>
  <unicode hex="007A"/>
  <outline>
    <contour>
      <point x="130" y="538" type="line"/>
      <point x="124" y="527"/>
      <point x="121" y="516"/>
      <point x="117" y="503" type="curve" smooth="yes"/>
      <point x="109" y="468"/>
      <point x="113" y="440"/>
      <point x="124" y="425" type="curve" smooth="yes"/>
      <point x="132" y="414"/>
      <point x="139" y="410"/>
      <point x="158" y="410" type="curve" smooth="yes"/>
      <point x="280" y="410" type="line" smooth="yes"/>
      <point x="363" y="410"/>
      <point x="473" y="412"/>
      <point x="556" y="425" type="curve"/>
      <point x="558" y="432" type="line" smooth="yes"/>
      <point x="567" y="468"/>
      <point x="556" y="499"/>
      <point x="538" y="523" type="curve" smooth="yes"/>
      <point x="529" y="534"/>
      <point x="520" y="538"/>
      <point x="499" y="538" type="curve" smooth="yes"/>
    </contour>
    <contour>
      <point x="426" y="473" type="curve"/>
      <point x="335" y="340"/>
      <point x="198" y="216"/>
      <point x="19" y="119" type="curve"/>
      <point x="12" y="86"/>
      <point x="105" y="84"/>
      <point x="158" y="102" type="curve" smooth="yes"/>
      <point x="332" y="171"/>
      <point x="543" y="376"/>
      <point x="556" y="425" type="curve"/>
      <point x="564" y="459"/>
      <point x="528" y="473"/>
    </contour>
    <contour>
      <point x="442" y="0" type="line"/>
      <point x="449" y="15"/>
      <point x="456" y="34"/>
      <point x="461" y="54" type="curve"/>
      <point x="475" y="109"/>
      <point x="465" y="128"/>
      <point x="414" y="128" type="curve" smooth="yes"/>
      <point x="298" y="128" type="line" smooth="yes"/>
      <point x="201" y="128"/>
      <point x="109" y="125"/>
      <point x="19" y="119" type="curve"/>
      <point x="16" y="106" type="line" smooth="yes"/>
      <point x="6" y="65"/>
      <point x="8" y="30"/>
      <point x="23" y="10" type="curve" smooth="yes"/>
      <point x="28" y="3"/>
      <point x="36" y="0"/>
      <point x="48" y="0" type="curve" smooth="yes"/>
    </contour>
    <contour>
      <point x="285" y="549" type="move" name="top"/>
    </contour>
  </outline>
</glyph>
<glyph name="braceleft" format="1">
  <advance width="500"/>
  <unicode hex="007B"/>
  <outline>
    <contour>
      <point x="479" y="637" type="curve" smooth="yes"/>
      <point x="508" y="637"/>
      <point x="532" y="635"/>
      <point x="548" y="629" type="curve"/>
      <point x="552" y="629" type="line"/>
      <point x="559" y="643"/>
      <point x="563" y="655"/>
      <point x="569" y="675" type="curve"/>
      <point x="581" y="726"/>
      <point x="560" y="770"/>
      <point x="522" y="770" type="curve" smooth="yes"/>
      <point x="517" y="770" type="line" smooth="yes"/>
      <point x="395" y="770"/>
      <point x="292" y="722"/>
      <point x="274" y="650" type="curve" smooth="yes"/>
      <point x="273" y="647" type="line" smooth="yes"/>
      <point x="265" y="614"/>
      <point x="291" y="585"/>
      <point x="328" y="581" type="curve"/>
      <point x="370" y="624"/>
      <point x="420" y="637"/>
    </contour>
    <contour>
      <point x="381" y="433" type="curve" smooth="yes"/>
      <point x="407" y="538"/>
      <point x="357" y="593"/>
      <point x="367" y="633" type="curve" smooth="yes"/>
      <point x="372" y="653"/>
      <point x="380" y="668"/>
      <point x="396" y="687" type="curve"/>
      <point x="343" y="701"/>
      <point x="285" y="691"/>
      <point x="273" y="647" type="curve" smooth="yes"/>
      <point x="272" y="642" type="line" smooth="yes"/>
      <point x="260" y="594"/>
      <point x="282" y="538"/>
      <point x="262" y="460" type="curve" smooth="yes"/>
      <point x="246" y="393"/>
      <point x="193" y="360"/>
      <point x="85" y="360" type="curve" smooth="yes"/>
      <point x="79" y="360" type="line"/>
      <point x="76" y="350" type="line" smooth="yes"/>
      <point x="68" y="317"/>
      <point x="68" y="284"/>
      <point x="105" y="284" type="curve" smooth="yes"/>
      <point x="126" y="284" type="line" smooth="yes"/>
      <point x="245" y="284"/>
      <point x="359" y="343"/>
    </contour>
    <contour>
      <point x="314" y="166" type="curve" smooth="yes"/>
      <point x="339" y="264"/>
      <point x="258" y="314"/>
      <point x="137" y="314" type="curve" smooth="yes"/>
      <point x="94" y="314"/>
      <point x="86" y="336"/>
      <point x="77" y="354" type="curve"/>
      <point x="75" y="346" type="line" smooth="yes"/>
      <point x="60" y="288"/>
      <point x="70" y="238"/>
      <point x="103" y="238" type="curve" smooth="yes"/>
      <point x="106" y="238" type="line" smooth="yes"/>
      <point x="164" y="238"/>
      <point x="199" y="205"/>
      <point x="182" y="139" type="curve" smooth="yes"/>
      <point x="163" y="61"/>
      <point x="112" y="1"/>
      <point x="100" y="-48" type="curve" smooth="yes"/>
      <point x="99" y="-52" type="line" smooth="yes"/>
      <point x="87" y="-98"/>
      <point x="142" y="-107"/>
      <point x="202" y="-93" type="curve"/>
      <point x="194" y="-74"/>
      <point x="194" y="-58"/>
      <point x="199" y="-38" type="curve" smooth="yes"/>
      <point x="209" y="3"/>
      <point x="289" y="66"/>
    </contour>
    <contour>
      <point x="293" y="-38" type="curve" smooth="yes"/>
      <point x="240" y="-38"/>
      <point x="200" y="-26"/>
      <point x="184" y="10" type="curve"/>
      <point x="141" y="4"/>
      <point x="105" y="-27"/>
      <point x="99" y="-49" type="curve" smooth="yes"/>
      <point x="98" y="-54" type="line" smooth="yes"/>
      <point x="80" y="-127"/>
      <point x="132" y="-172"/>
      <point x="276" y="-172" type="curve" smooth="yes"/>
      <point x="281" y="-172" type="line" smooth="yes"/>
      <point x="327" y="-172"/>
      <point x="368" y="-118"/>
      <point x="389" y="-34" type="curve"/>
      <point x="391" y="-26" type="line"/>
      <point x="387" y="-26" type="line"/>
      <point x="353" y="-35"/>
      <point x="330" y="-38"/>
    </contour>
  </outline>
</glyph>
<glyph name="bar" format="1">
  <advance width="300"/>
  <unicode hex="007C"/>
  <outline>
    <contour>
      <point x="196" y="758" type="curve"/>
      <point x="195" y="723"/>
      <point x="190" y="686"/>
      <point x="180" y="646" type="curve" smooth="yes"/>
      <point x="-8" y="-104" type="line" smooth="yes"/>
      <point x="-18" y="-144"/>
      <point x="14" y="-163"/>
      <point x="86" y="-163" type="curve" smooth="yes"/>
      <point x="101" y="-163"/>
      <point x="112" y="-162"/>
      <point x="119" y="-161" type="curve"/>
      <point x="333" y="696" type="line" smooth="yes"/>
      <point x="340" y="721"/>
      <point x="339" y="734"/>
      <point x="331" y="745" type="curve" smooth="yes"/>
      <point x="320" y="759"/>
      <point x="300" y="765"/>
      <point x="256" y="765" type="curve" smooth="yes"/>
      <point x="234" y="765"/>
      <point x="217" y="763"/>
    </contour>
  </outline>
</glyph>
<glyph name="braceright" format="1">
  <advance width="500"/>
  <unicode hex="007D"/>
  <outline>
    <contour>
      <point x="36" y="-39" type="curve" smooth="yes"/>
      <point x="7" y="-39"/>
      <point x="-17" y="-37"/>
      <point x="-33" y="-31" type="curve"/>
      <point x="-37" y="-31" type="line"/>
      <point x="-44" y="-45"/>
      <point x="-48" y="-57"/>
      <point x="-53" y="-77" type="curve"/>
      <point x="-66" y="-128"/>
      <point x="-45" y="-172"/>
      <point x="-6" y="-172" type="curve" smooth="yes"/>
      <point x="-2" y="-172" type="line" smooth="yes"/>
      <point x="120" y="-172"/>
      <point x="223" y="-124"/>
      <point x="241" y="-52" type="curve" smooth="yes"/>
      <point x="242" y="-49" type="line" smooth="yes"/>
      <point x="250" y="-16"/>
      <point x="224" y="13"/>
      <point x="187" y="17" type="curve"/>
      <point x="145" y="-26"/>
      <point x="95" y="-39"/>
    </contour>
    <contour>
      <point x="134" y="165" type="curve" smooth="yes"/>
      <point x="108" y="60"/>
      <point x="158" y="5"/>
      <point x="148" y="-35" type="curve" smooth="yes"/>
      <point x="143" y="-55"/>
      <point x="135" y="-70"/>
      <point x="120" y="-89" type="curve"/>
      <point x="173" y="-103"/>
      <point x="231" y="-93"/>
      <point x="242" y="-49" type="curve" smooth="yes"/>
      <point x="243" y="-44" type="line" smooth="yes"/>
      <point x="255" y="4"/>
      <point x="233" y="60"/>
      <point x="253" y="138" type="curve" smooth="yes"/>
      <point x="269" y="205"/>
      <point x="322" y="238"/>
      <point x="430" y="238" type="curve" smooth="yes"/>
      <point x="437" y="238" type="line"/>
      <point x="439" y="248" type="line" smooth="yes"/>
      <point x="447" y="281"/>
      <point x="447" y="314"/>
      <point x="410" y="314" type="curve" smooth="yes"/>
      <point x="389" y="314" type="line" smooth="yes"/>
      <point x="270" y="314"/>
      <point x="157" y="255"/>
    </contour>
    <contour>
      <point x="201" y="432" type="curve" smooth="yes"/>
      <point x="176" y="334"/>
      <point x="257" y="284"/>
      <point x="378" y="284" type="curve" smooth="yes"/>
      <point x="421" y="284"/>
      <point x="429" y="262"/>
      <point x="438" y="244" type="curve"/>
      <point x="440" y="252" type="line" smooth="yes"/>
      <point x="455" y="310"/>
      <point x="445" y="360"/>
      <point x="412" y="360" type="curve" smooth="yes"/>
      <point x="409" y="360" type="line" smooth="yes"/>
      <point x="351" y="360"/>
      <point x="317" y="393"/>
      <point x="333" y="459" type="curve" smooth="yes"/>
      <point x="353" y="537"/>
      <point x="403" y="597"/>
      <point x="415" y="646" type="curve" smooth="yes"/>
      <point x="417" y="650" type="line" smooth="yes"/>
      <point x="428" y="696"/>
      <point x="373" y="705"/>
      <point x="314" y="691" type="curve"/>
      <point x="321" y="672"/>
      <point x="321" y="656"/>
      <point x="316" y="636" type="curve" smooth="yes"/>
      <point x="306" y="595"/>
      <point x="226" y="532"/>
    </contour>
    <contour>
      <point x="222" y="636" type="curve" smooth="yes"/>
      <point x="275" y="636"/>
      <point x="315" y="624"/>
      <point x="331" y="588" type="curve"/>
      <point x="374" y="594"/>
      <point x="410" y="625"/>
      <point x="416" y="647" type="curve" smooth="yes"/>
      <point x="417" y="652" type="line" smooth="yes"/>
      <point x="435" y="725"/>
      <point x="383" y="770"/>
      <point x="239" y="770" type="curve" smooth="yes"/>
      <point x="234" y="770" type="line" smooth="yes"/>
      <point x="189" y="770"/>
      <point x="147" y="716"/>
      <point x="126" y="632" type="curve"/>
      <point x="124" y="624" type="line"/>
      <point x="128" y="624" type="line"/>
      <point x="162" y="633"/>
      <point x="185" y="636"/>
    </contour>
  </outline>
</glyph>
<glyph name="asciitilde" format="1">
  <advance width="600"/>
  <unicode hex="007E"/>
  <outline>
    <contour>
      <point x="433" y="316" type="curve" smooth="yes"/>
      <point x="345" y="316"/>
      <point x="296" y="437"/>
      <point x="207" y="437" type="curve" smooth="yes"/>
      <point x="154" y="437"/>
      <point x="116" y="410"/>
      <point x="88" y="369" type="curve" smooth="yes"/>
      <point x="77" y="353"/>
      <point x="62" y="324"/>
      <point x="52" y="283" type="curve" smooth="yes"/>
      <point x="48" y="266"/>
      <point x="44" y="241"/>
      <point x="46" y="225" type="curve"/>
      <point x="50" y="225" type="line"/>
      <point x="101" y="267"/>
      <point x="135" y="284"/>
      <point x="183" y="284" type="curve" smooth="yes"/>
      <point x="271" y="284"/>
      <point x="320" y="163"/>
      <point x="409" y="163" type="curve" smooth="yes"/>
      <point x="462" y="163"/>
      <point x="500" y="190"/>
      <point x="527" y="231" type="curve" smooth="yes"/>
      <point x="538" y="247"/>
      <point x="553" y="276"/>
      <point x="563" y="317" type="curve" smooth="yes"/>
      <point x="568" y="334"/>
      <point x="572" y="359"/>
      <point x="569" y="375" type="curve"/>
      <point x="565" y="375" type="line"/>
      <point x="515" y="333"/>
      <point x="480" y="316"/>
    </contour>
  </outline>
</glyph>
<glyph name="exclamdown" format="1">
  <advance width="359"/>
  <unicode hex="00A1"/>
  <outline>
    <contour>
      <point x="122" y="254" type="line"/>
      <point x="90" y="186"/>
      <point x="53" y="84"/>
      <point x="36" y="16" type="curve"/>
      <point x="4" y="-111" type="line" smooth="yes"/>
      <point x="-7" y="-156"/>
      <point x="36" y="-175"/>
      <point x="102" y="-175" type="curve" smooth="yes"/>
      <point x="124" y="-175"/>
      <point x="141" y="-174"/>
      <point x="162" y="-169" type="curve"/>
      <point x="163" y="-133"/>
      <point x="169" y="-96"/>
      <point x="178" y="-57" type="curve" smooth="yes"/>
      <point x="195" y="11" type="line"/>
      <point x="217" y="98"/>
      <point x="233" y="205"/>
      <point x="217" y="226" type="curve" smooth="yes"/>
      <point x="204" y="243"/>
      <point x="177" y="254"/>
      <point x="135" y="254" type="curve"/>
    </contour>
    <contour>
      <point x="150" y="538" type="curve"/>
      <point x="118" y="412" type="line" smooth="yes"/>
      <point x="104" y="354"/>
      <point x="162" y="343"/>
      <point x="221" y="343" type="curve" smooth="yes"/>
      <point x="244" y="343"/>
      <point x="272" y="345"/>
      <point x="296" y="350" type="curve"/>
      <point x="328" y="476" type="line" smooth="yes"/>
      <point x="342" y="534"/>
      <point x="284" y="545"/>
      <point x="225" y="545" type="curve" smooth="yes"/>
      <point x="202" y="545"/>
      <point x="174" y="542"/>
    </contour>
  </outline>
</glyph>
<glyph name="cent" format="1">
  <advance width="600"/>
  <unicode hex="00A2"/>
  <outline>
    <contour>
      <point x="402" y="382" type="line"/>
      <point x="539" y="681" type="line" smooth="yes"/>
      <point x="571" y="746"/>
      <point x="554" y="787"/>
      <point x="487" y="787" type="curve" smooth="yes"/>
      <point x="473" y="787"/>
      <point x="448" y="783"/>
      <point x="432" y="778" type="curve"/>
      <point x="435" y="750"/>
      <point x="433" y="723"/>
      <point x="423" y="680" type="curve"/>
      <point x="360" y="428" type="line" smooth="yes"/>
      <point x="353" y="399"/>
      <point x="375" y="382"/>
      <point x="398" y="382" type="curve" smooth="yes"/>
    </contour>
    <contour>
      <point x="330" y="312" type="line"/>
      <point x="193" y="13" type="line" smooth="yes"/>
      <point x="162" y="-52"/>
      <point x="178" y="-93"/>
      <point x="246" y="-93" type="curve" smooth="yes"/>
      <point x="260" y="-93"/>
      <point x="284" y="-89"/>
      <point x="300" y="-84" type="curve"/>
      <point x="298" y="-56"/>
      <point x="299" y="-29"/>
      <point x="309" y="14" type="curve"/>
      <point x="372" y="266" type="line" smooth="yes"/>
      <point x="380" y="295"/>
      <point x="358" y="312"/>
      <point x="334" y="312" type="curve" smooth="yes"/>
    </contour>
    <contour>
      <point x="449" y="630" type="curve" smooth="yes"/>
      <point x="271" y="630"/>
      <point x="117" y="508"/>
      <point x="69" y="320" type="curve" smooth="yes"/>
      <point x="67" y="309" type="line" smooth="yes"/>
      <point x="32" y="169"/>
      <point x="131" y="70"/>
      <point x="273" y="70" type="curve" smooth="yes"/>
      <point x="295" y="70"/>
      <point x="307" y="86"/>
      <point x="318" y="124" type="curve"/>
      <point x="192" y="175"/>
      <point x="184" y="244"/>
      <point x="201" y="311" type="curve" smooth="yes"/>
      <point x="203" y="320" type="line" smooth="yes"/>
      <point x="229" y="422"/>
      <point x="311" y="494"/>
      <point x="405" y="494" type="curve" smooth="yes"/>
      <point x="476" y="494"/>
      <point x="510" y="476"/>
      <point x="550" y="432" type="curve"/>
      <point x="554" y="432" type="line"/>
      <point x="571" y="459"/>
      <point x="580" y="483"/>
      <point x="588" y="513" type="curve" smooth="yes"/>
      <point x="598" y="552"/>
      <point x="597" y="572"/>
      <point x="583" y="589" type="curve" smooth="yes"/>
      <point x="566" y="613"/>
      <point x="519" y="630"/>
    </contour>
    <contour>
      <point x="168" y="301" type="curve"/>
      <point x="78" y="208"/>
      <point x="143" y="70"/>
      <point x="273" y="70" type="curve" smooth="yes"/>
      <point x="377" y="70"/>
      <point x="431" y="90"/>
      <point x="463" y="116" type="curve" smooth="yes"/>
      <point x="486" y="135"/>
      <point x="511" y="179"/>
      <point x="520" y="213" type="curve"/>
      <point x="525" y="233"/>
      <point x="527" y="244"/>
      <point x="528" y="257" type="curve"/>
      <point x="524" y="257" type="line"/>
      <point x="458" y="217"/>
      <point x="398" y="198"/>
      <point x="314" y="198" type="curve" smooth="yes"/>
      <point x="226" y="198"/>
      <point x="195" y="220"/>
    </contour>
  </outline>
</glyph>
<glyph name="sterling" format="1">
  <advance width="600"/>
  <unicode hex="00A3"/>
  <outline>
    <contour>
      <point x="415" y="587" type="curve" smooth="yes"/>
      <point x="500" y="587"/>
      <point x="556" y="573"/>
      <point x="594" y="518" type="curve"/>
      <point x="598" y="518" type="line"/>
      <point x="609" y="538"/>
      <point x="615" y="555"/>
      <point x="622" y="581" type="curve" smooth="yes"/>
      <point x="634" y="631"/>
      <point x="632" y="653"/>
      <point x="613" y="678" type="curve" smooth="yes"/>
      <point x="594" y="704"/>
      <point x="536" y="720"/>
      <point x="448" y="720" type="curve" smooth="yes"/>
      <point x="285" y="720"/>
      <point x="176" y="642"/>
      <point x="151" y="542" type="curve" smooth="yes"/>
      <point x="148" y="528" type="line" smooth="yes"/>
      <point x="140" y="496"/>
      <point x="179" y="485"/>
      <point x="254" y="480" type="curve"/>
      <point x="271" y="549"/>
      <point x="323" y="587"/>
    </contour>
    <contour>
      <point x="148" y="528" type="curve" smooth="yes"/>
      <point x="118" y="411"/>
      <point x="187" y="317"/>
      <point x="157" y="199" type="curve" smooth="yes"/>
      <point x="145" y="150"/>
      <point x="98" y="117"/>
      <point x="29" y="117" type="curve" smooth="yes"/>
      <point x="23" y="117"/>
      <point x="19" y="117"/>
      <point x="15" y="119" type="curve"/>
      <point x="11" y="119" type="line"/>
      <point x="3" y="101"/>
      <point x="-2" y="88"/>
      <point x="-7" y="68" type="curve" smooth="yes"/>
      <point x="-21" y="11"/>
      <point x="-12" y="-19"/>
      <point x="31" y="-19" type="curve" smooth="yes"/>
      <point x="38" y="-19" type="line" smooth="yes"/>
      <point x="139" y="-19"/>
      <point x="243" y="54"/>
      <point x="272" y="173" type="curve" smooth="yes"/>
      <point x="301" y="289"/>
      <point x="253" y="394"/>
      <point x="282" y="509" type="curve" smooth="yes"/>
      <point x="291" y="547"/>
      <point x="307" y="579"/>
      <point x="345" y="618" type="curve"/>
      <point x="232" y="618"/>
      <point x="162" y="583"/>
    </contour>
    <contour>
      <point x="159" y="89" type="curve"/>
      <point x="232" y="11"/>
      <point x="297" y="-19"/>
      <point x="396" y="-19" type="curve" smooth="yes"/>
      <point x="402" y="-19" type="line" smooth="yes"/>
      <point x="465" y="-19"/>
      <point x="497" y="15"/>
      <point x="516" y="90" type="curve"/>
      <point x="522" y="117"/>
      <point x="525" y="141"/>
      <point x="525" y="159" type="curve"/>
      <point x="521" y="159" type="line"/>
      <point x="487" y="135"/>
      <point x="456" y="123"/>
      <point x="405" y="123" type="curve" smooth="yes"/>
      <point x="335" y="123"/>
      <point x="281" y="134"/>
      <point x="199" y="176" type="curve"/>
      <point x="162" y="144"/>
      <point x="148" y="108"/>
    </contour>
    <contour>
      <point x="81" y="391" type="line"/>
      <point x="79" y="386"/>
      <point x="78" y="380"/>
      <point x="76" y="374" type="curve" smooth="yes"/>
      <point x="63" y="322"/>
      <point x="63" y="292"/>
      <point x="75" y="276" type="curve" smooth="yes"/>
      <point x="85" y="263"/>
      <point x="101" y="259"/>
      <point x="140" y="259" type="curve" smooth="yes"/>
      <point x="458" y="259" type="line"/>
      <point x="466" y="276"/>
      <point x="473" y="296"/>
      <point x="477" y="312" type="curve" smooth="yes"/>
      <point x="492" y="371"/>
      <point x="482" y="391"/>
      <point x="433" y="391" type="curve" smooth="yes"/>
    </contour>
  </outline>
</glyph>
<glyph name="currency" format="1">
  <advance width="600"/>
  <unicode hex="00A4"/>
  <outline>
    <contour>
      <point x="301" y="425" type="curve"/>
      <point x="283" y="443"/>
      <point x="266" y="465"/>
      <point x="253" y="489" type="curve" smooth="yes"/>
      <point x="244" y="506"/>
      <point x="232" y="515"/>
      <point x="218" y="515" type="curve" smooth="yes"/>
      <point x="202" y="515"/>
      <point x="183" y="506"/>
      <point x="159" y="487" type="curve" smooth="yes"/>
      <point x="145" y="476"/>
      <point x="129" y="460"/>
      <point x="115" y="445" type="curve"/>
      <point x="123" y="431"/>
      <point x="134" y="417"/>
      <point x="144" y="405" type="curve" smooth="yes"/>
      <point x="175" y="369"/>
      <point x="232" y="370"/>
      <point x="286" y="413" type="curve" smooth="yes"/>
      <point x="292" y="417"/>
      <point x="296" y="421"/>
    </contour>
    <contour>
      <point x="375" y="424" type="curve"/>
      <point x="378" y="420"/>
      <point x="381" y="416"/>
      <point x="384" y="412" type="curve" smooth="yes"/>
      <point x="417" y="368"/>
      <point x="464" y="361"/>
      <point x="519" y="400" type="curve" smooth="yes"/>
      <point x="537" y="413"/>
      <point x="555" y="429"/>
      <point x="571" y="444" type="curve"/>
      <point x="565" y="459"/>
      <point x="557" y="475"/>
      <point x="549" y="487" type="curve" smooth="yes"/>
      <point x="534" y="506"/>
      <point x="519" y="514"/>
      <point x="504" y="514" type="curve" smooth="yes"/>
      <point x="490" y="514"/>
      <point x="473" y="505"/>
      <point x="455" y="488" type="curve" smooth="yes"/>
      <point x="430" y="464"/>
      <point x="404" y="442"/>
    </contour>
    <contour>
      <point x="312" y="171" type="curve"/>
      <point x="330" y="153"/>
      <point x="346" y="131"/>
      <point x="360" y="108" type="curve" smooth="yes"/>
      <point x="369" y="90"/>
      <point x="381" y="81"/>
      <point x="395" y="81" type="curve" smooth="yes"/>
      <point x="411" y="81"/>
      <point x="430" y="90"/>
      <point x="454" y="109" type="curve" smooth="yes"/>
      <point x="468" y="121"/>
      <point x="484" y="136"/>
      <point x="498" y="151" type="curve"/>
      <point x="490" y="166"/>
      <point x="479" y="180"/>
      <point x="469" y="191" type="curve" smooth="yes"/>
      <point x="438" y="227"/>
      <point x="381" y="227"/>
      <point x="327" y="183" type="curve" smooth="yes"/>
      <point x="321" y="179"/>
      <point x="316" y="175"/>
    </contour>
    <contour>
      <point x="237" y="172" type="curve"/>
      <point x="234" y="176"/>
      <point x="231" y="180"/>
      <point x="228" y="184" type="curve" smooth="yes"/>
      <point x="195" y="228"/>
      <point x="148" y="235"/>
      <point x="93" y="196" type="curve" smooth="yes"/>
      <point x="75" y="183"/>
      <point x="58" y="167"/>
      <point x="41" y="152" type="curve"/>
      <point x="47" y="137"/>
      <point x="55" y="121"/>
      <point x="64" y="109" type="curve" smooth="yes"/>
      <point x="78" y="90"/>
      <point x="93" y="82"/>
      <point x="109" y="82" type="curve" smooth="yes"/>
      <point x="123" y="82"/>
      <point x="139" y="91"/>
      <point x="157" y="108" type="curve" smooth="yes"/>
      <point x="182" y="132"/>
      <point x="209" y="154"/>
    </contour>
    <contour>
      <point x="299" y="193" type="curve"/>
      <point x="238" y="193"/>
      <point x="211" y="232"/>
      <point x="227" y="294" type="curve" smooth="yes"/>
      <point x="228" y="302" type="line" smooth="yes"/>
      <point x="242" y="358"/>
      <point x="280" y="389"/>
      <point x="337" y="389" type="curve" smooth="yes"/>
      <point x="365" y="389"/>
      <point x="383" y="382"/>
      <point x="404" y="358" type="curve"/>
      <point x="439" y="410"/>
      <point x="424" y="478"/>
      <point x="354" y="478" type="curve"/>
      <point x="253" y="478"/>
      <point x="162" y="405"/>
      <point x="136" y="302" type="curve" smooth="yes"/>
      <point x="134" y="295" type="line" smooth="yes"/>
      <point x="109" y="194"/>
      <point x="164" y="127"/>
      <point x="260" y="127" type="curve"/>
      <point x="277" y="127"/>
      <point x="289" y="152"/>
    </contour>
    <contour>
      <point x="314" y="403" type="curve"/>
      <point x="374" y="403"/>
      <point x="403" y="367"/>
      <point x="388" y="310" type="curve" smooth="yes"/>
      <point x="386" y="302" type="line" smooth="yes"/>
      <point x="372" y="247"/>
      <point x="335" y="216"/>
      <point x="278" y="216" type="curve" smooth="yes"/>
      <point x="250" y="216"/>
      <point x="232" y="223"/>
      <point x="211" y="247" type="curve"/>
      <point x="176" y="194"/>
      <point x="191" y="127"/>
      <point x="260" y="127" type="curve"/>
      <point x="362" y="127"/>
      <point x="453" y="199"/>
      <point x="479" y="302" type="curve" smooth="yes"/>
      <point x="481" y="310" type="line" smooth="yes"/>
      <point x="506" y="411"/>
      <point x="451" y="478"/>
      <point x="354" y="478" type="curve"/>
      <point x="338" y="478"/>
      <point x="328" y="460"/>
    </contour>
  </outline>
</glyph>
